<svg xmlns="http://www.w3.org/2000/svg" version="1.1" width="450" height="450">
<rect width="450" height="450" style="fill:rgb(255,255,255)"/><defs>
<filter id="f3" x="0" y="0" width="200%" height="200%">
<feOffset result="offOut" in="SourceAlpha" dx="20" dy="20" /><feGaussianBlur result="blurOut" in="offOut" stdDeviation="10" /><feBlend in="SourceGraphic" in2="blurOut" mode="normal" /></filter>
</defs><polygon points="258,237 258,167 188,167 188,237" style="fill:rgb(67,142,200)" />
<polygon points="381,246 381,176 311,176 311,246" style="fill:rgb(67,142,200)" />
<polygon points="133,226 168,165 107,130 72,191" style="fill:rgb(67,142,200)" />
<polygon points="117,76 117,48 89,48 89,76" style="fill:rgb(255,91,165)" />
<polygon points="83,146 103,126 83,106 63,126" style="fill:rgb(255,91,165)" />
<polygon points="67,172 67,144 39,144 39,172" style="fill:rgb(255,91,165)" />
<polygon points="293,195 293,167 265,167 265,195" style="fill:rgb(255,91,165)" />
<polygon points="416,208 416,180 388,180 388,208" style="fill:rgb(255,91,165)" />
<polygon points="293,230 293,202 265,202 265,230" style="fill:rgb(255,91,165)" />
<polygon points="166,238 186,218 166,198 146,218" style="fill:rgb(255,91,165)" />
<polygon points="416,243 416,215 388,215 388,243" style="fill:rgb(255,91,165)" />
<polygon points="287,265 287,237 259,237 259,265" style="fill:rgb(255,91,165)" />
<polygon points="167,278 187,258 167,238 147,258" style="fill:rgb(255,91,165)" />
<polygon points="399,278 399,250 371,250 371,278" style="fill:rgb(255,91,165)" />
<polygon points="342,281 342,253 314,253 314,281" style="fill:rgb(255,91,165)" />
<polygon points="143,307 157,283 133,269 119,293" style="fill:rgb(255,91,165)" />
<polygon points="218,268 218,240 190,240 190,268" style="fill:rgb(255,91,165)" />
<polygon points="249,268 249,240 221,240 221,268" style="fill:rgb(255,91,165)" />
<polygon points="167,13 166,6 159,7 160,14" style="fill:rgb(153,87,205)" />
<polygon points="173,19 175,13 169,11 167,17" style="fill:rgb(153,87,205)" />
<polygon points="125,21 127,15 121,13 119,19" style="fill:rgb(153,87,205)" />
<polygon points="133,24 135,18 129,16 127,22" style="fill:rgb(153,87,205)" />
<polygon points="181,25 183,19 177,17 175,23" style="fill:rgb(153,87,205)" />
<polygon points="142,26 144,20 138,18 136,24" style="fill:rgb(153,87,205)" />
<polygon points="172,28 174,22 168,20 166,26" style="fill:rgb(153,87,205)" />
<polygon points="187,31 189,25 183,23 181,29" style="fill:rgb(153,87,205)" />
<polygon points="135,34 137,28 131,26 129,32" style="fill:rgb(153,87,205)" />
<polygon points="178,34 180,28 174,26 172,32" style="fill:rgb(153,87,205)" />
<polygon points="144,35 146,29 140,27 138,33" style="fill:rgb(153,87,205)" />
<polygon points="170,38 172,32 166,30 164,36" style="fill:rgb(153,87,205)" />
<polygon points="186,39 185,32 178,33 179,40" style="fill:rgb(153,87,205)" />
<polygon points="205,41 204,34 197,35 198,42" style="fill:rgb(153,87,205)" />
<polygon points="136,43 138,37 132,35 130,41" style="fill:rgb(153,87,205)" />
<polygon points="155,42 154,35 147,36 148,43" style="fill:rgb(153,87,205)" />
<polygon points="145,45 147,39 141,37 139,43" style="fill:rgb(153,87,205)" />
<polygon points="92,46 92,38 84,38 84,46" style="fill:rgb(153,87,205)" />
<polygon points="112,46 112,38 104,38 104,46" style="fill:rgb(153,87,205)" />
<polygon points="173,46 175,40 169,38 167,44" style="fill:rgb(153,87,205)" />
<polygon points="185,48 187,42 181,40 179,46" style="fill:rgb(153,87,205)" />
<polygon points="196,49 196,41 188,41 188,49" style="fill:rgb(153,87,205)" />
<polygon points="134,52 136,46 130,44 128,50" style="fill:rgb(153,87,205)" />
<polygon points="145,54 145,46 137,46 137,54" style="fill:rgb(153,87,205)" />
<polygon points="166,54 168,48 162,46 160,52" style="fill:rgb(153,87,205)" />
<polygon points="176,54 178,48 172,46 170,52" style="fill:rgb(153,87,205)" />
<polygon points="187,57 187,49 179,49 179,57" style="fill:rgb(153,87,205)" />
<polygon points="130,61 132,55 126,53 124,59" style="fill:rgb(153,87,205)" />
<polygon points="169,62 171,56 165,54 163,60" style="fill:rgb(153,87,205)" />
<polygon points="160,66 162,60 156,58 154,64" style="fill:rgb(153,87,205)" />
<polygon points="87,68 87,60 79,60 79,68" style="fill:rgb(153,87,205)" />
<polygon points="127,70 127,62 119,62 119,70" style="fill:rgb(153,87,205)" />
<polygon points="170,70 169,63 162,64 163,71" style="fill:rgb(153,87,205)" />
<polygon points="153,74 155,68 149,66 147,72" style="fill:rgb(153,87,205)" />
<polygon points="146,79 145,72 138,73 139,80" style="fill:rgb(153,87,205)" />
<polygon points="123,83 125,77 119,75 117,81" style="fill:rgb(153,87,205)" />
<polygon points="137,83 136,76 129,77 130,84" style="fill:rgb(153,87,205)" />
<polygon points="98,86 100,80 94,78 92,84" style="fill:rgb(153,87,205)" />
<polygon points="107,86 109,80 103,78 101,84" style="fill:rgb(153,87,205)" />
<polygon points="115,89 117,83 111,81 109,87" style="fill:rgb(153,87,205)" />
<polygon points="127,90 129,84 123,82 121,88" style="fill:rgb(153,87,205)" />
<polygon points="62,92 64,86 58,84 56,90" style="fill:rgb(153,87,205)" />
<polygon points="56,93 55,86 48,87 49,94" style="fill:rgb(153,87,205)" />
<polygon points="101,94 103,88 97,86 95,92" style="fill:rgb(153,87,205)" />
<polygon points="136,94 138,88 132,86 130,92" style="fill:rgb(153,87,205)" />
<polygon points="40,94 39,87 32,88 33,95" style="fill:rgb(153,87,205)" />
<polygon points="70,95 72,89 66,87 64,93" style="fill:rgb(153,87,205)" />
<polygon points="95,94 94,87 87,88 88,95" style="fill:rgb(153,87,205)" />
<polygon points="120,96 119,89 112,90 113,97" style="fill:rgb(153,87,205)" />
<polygon points="79,98 81,92 75,90 73,96" style="fill:rgb(153,87,205)" />
<polygon points="111,98 110,91 103,92 104,99" style="fill:rgb(153,87,205)" />
<polygon points="129,99 129,91 121,91 121,99" style="fill:rgb(153,87,205)" />
<polygon points="48,99 47,92 40,93 41,100" style="fill:rgb(153,87,205)" />
<polygon points="60,101 62,95 56,93 54,99" style="fill:rgb(153,87,205)" />
<polygon points="96,103 96,95 88,95 88,103" style="fill:rgb(153,87,205)" />
<polygon points="71,104 71,96 63,96 63,104" style="fill:rgb(153,87,205)" />
<polygon points="53,107 53,99 45,99 45,107" style="fill:rgb(153,87,205)" />
<polygon points="133,123 132,116 125,117 126,124" style="fill:rgb(153,87,205)" />
<polygon points="124,124 123,117 116,118 117,125" style="fill:rgb(153,87,205)" />
<polygon points="60,133 62,127 56,125 54,131" style="fill:rgb(153,87,205)" />
<polygon points="65,141 65,133 57,133 57,141" style="fill:rgb(153,87,205)" />
<polygon points="101,141 100,134 93,135 94,142" style="fill:rgb(153,87,205)" />
<polygon points="94,148 93,141 86,142 87,149" style="fill:rgb(153,87,205)" />
<polygon points="75,151 77,145 71,143 69,149" style="fill:rgb(153,87,205)" />
<polygon points="34,154 36,148 30,146 28,152" style="fill:rgb(153,87,205)" />
<polygon points="83,156 85,150 79,148 77,154" style="fill:rgb(153,87,205)" />
<polygon points="25,159 27,153 21,151 19,157" style="fill:rgb(153,87,205)" />
<polygon points="75,160 77,154 71,152 69,158" style="fill:rgb(153,87,205)" />
<polygon points="228,160 227,153 220,154 221,161" style="fill:rgb(153,87,205)" />
<polygon points="219,162 219,154 211,154 211,162" style="fill:rgb(153,87,205)" />
<polygon points="240,162 240,154 232,154 232,162" style="fill:rgb(153,87,205)" />
<polygon points="33,163 35,157 29,155 27,161" style="fill:rgb(153,87,205)" />
<polygon points="88,163 87,156 80,157 81,164" style="fill:rgb(153,87,205)" />
<polygon points="208,164 208,156 200,156 200,164" style="fill:rgb(153,87,205)" />
<polygon points="180,165 182,159 176,157 174,163" style="fill:rgb(153,87,205)" />
<polygon points="197,165 197,157 189,157 189,165" style="fill:rgb(153,87,205)" />
<polygon points="250,165 250,157 242,157 242,165" style="fill:rgb(153,87,205)" />
<polygon points="18,167 20,161 14,159 12,165" style="fill:rgb(153,87,205)" />
<polygon points="80,167 79,160 72,161 73,168" style="fill:rgb(153,87,205)" />
<polygon points="350,169 349,162 342,163 343,170" style="fill:rgb(153,87,205)" />
<polygon points="360,170 360,162 352,162 352,170" style="fill:rgb(153,87,205)" />
<polygon points="370,170 370,162 362,162 362,170" style="fill:rgb(153,87,205)" />
<polygon points="26,171 28,165 22,163 20,169" style="fill:rgb(153,87,205)" />
<polygon points="334,170 333,163 326,164 327,171" style="fill:rgb(153,87,205)" />
<polygon points="380,171 380,163 372,163 372,171" style="fill:rgb(153,87,205)" />
<polygon points="35,172 37,166 31,164 29,170" style="fill:rgb(153,87,205)" />
<polygon points="303,172 305,166 299,164 297,170" style="fill:rgb(153,87,205)" />
<polygon points="185,172 184,165 177,166 178,173" style="fill:rgb(153,87,205)" />
<polygon points="314,173 314,165 306,165 306,173" style="fill:rgb(153,87,205)" />
<polygon points="325,173 325,165 317,165 317,173" style="fill:rgb(153,87,205)" />
<polygon points="174,175 176,169 170,167 168,173" style="fill:rgb(153,87,205)" />
<polygon points="390,175 390,167 382,167 382,175" style="fill:rgb(153,87,205)" />
<polygon points="16,176 18,170 12,168 10,174" style="fill:rgb(153,87,205)" />
<polygon points="81,175 80,168 73,169 74,176" style="fill:rgb(153,87,205)" />
<polygon points="24,180 26,174 20,172 18,178" style="fill:rgb(153,87,205)" />
<polygon points="35,181 35,173 27,173 27,181" style="fill:rgb(153,87,205)" />
<polygon points="186,180 185,173 178,174 179,181" style="fill:rgb(153,87,205)" />
<polygon points="301,181 303,175 297,173 295,179" style="fill:rgb(153,87,205)" />
<polygon points="64,182 66,176 60,174 58,180" style="fill:rgb(153,87,205)" />
<polygon points="170,184 172,178 166,176 164,182" style="fill:rgb(153,87,205)" />
<polygon points="74,185 74,177 66,177 66,185" style="fill:rgb(153,87,205)" />
<polygon points="304,189 306,183 300,181 298,187" style="fill:rgb(153,87,205)" />
<polygon points="179,189 178,182 171,183 172,190" style="fill:rgb(153,87,205)" />
<polygon points="166,192 166,184 158,184 158,192" style="fill:rgb(153,87,205)" />
<polygon points="424,192 426,186 420,184 418,190" style="fill:rgb(153,87,205)" />
<polygon points="184,195 186,189 180,187 178,193" style="fill:rgb(153,87,205)" />
<polygon points="309,196 308,189 301,190 302,197" style="fill:rgb(153,87,205)" />
<polygon points="176,199 178,193 172,191 170,197" style="fill:rgb(153,87,205)" />
<polygon points="428,199 430,193 424,191 422,197" style="fill:rgb(153,87,205)" />
<polygon points="298,203 300,197 294,195 292,201" style="fill:rgb(153,87,205)" />
<polygon points="186,204 186,196 178,196 178,204" style="fill:rgb(153,87,205)" />
<polygon points="307,206 309,200 303,198 301,204" style="fill:rgb(153,87,205)" />
<polygon points="439,207 441,201 435,199 433,205" style="fill:rgb(153,87,205)" />
<polygon points="426,208 426,200 418,200 418,208" style="fill:rgb(153,87,205)" />
<polygon points="301,214 303,208 297,206 295,212" style="fill:rgb(153,87,205)" />
<polygon points="425,218 425,210 417,210 417,218" style="fill:rgb(153,87,205)" />
<polygon points="306,221 308,215 302,213 300,219" style="fill:rgb(153,87,205)" />
<polygon points="426,228 426,220 418,220 418,228" style="fill:rgb(153,87,205)" />
<polygon points="144,229 146,223 140,221 138,227" style="fill:rgb(153,87,205)" />
<polygon points="301,230 303,224 297,222 295,228" style="fill:rgb(153,87,205)" />
<polygon points="184,232 186,226 180,224 178,230" style="fill:rgb(153,87,205)" />
<polygon points="153,235 152,228 145,229 146,236" style="fill:rgb(153,87,205)" />
<polygon points="307,236 309,230 303,228 301,234" style="fill:rgb(153,87,205)" />
<polygon points="133,237 135,231 129,229 127,235" style="fill:rgb(153,87,205)" />
<polygon points="142,238 144,232 138,230 136,236" style="fill:rgb(153,87,205)" />
<polygon points="297,239 299,233 293,231 291,237" style="fill:rgb(153,87,205)" />
<polygon points="181,241 181,233 173,233 173,241" style="fill:rgb(153,87,205)" />
<polygon points="157,242 159,236 153,234 151,240" style="fill:rgb(153,87,205)" />
<polygon points="147,245 149,239 143,237 141,243" style="fill:rgb(153,87,205)" />
<polygon points="303,245 305,239 299,237 297,243" style="fill:rgb(153,87,205)" />
<polygon points="295,249 297,243 291,241 289,247" style="fill:rgb(153,87,205)" />
<polygon points="155,250 154,243 147,244 148,251" style="fill:rgb(153,87,205)" />
<polygon points="306,253 308,247 302,245 300,251" style="fill:rgb(153,87,205)" />
<polygon points="405,253 407,247 401,245 399,251" style="fill:rgb(153,87,205)" />
<polygon points="416,253 416,245 408,245 408,253" style="fill:rgb(153,87,205)" />
<polygon points="146,254 146,246 138,246 138,254" style="fill:rgb(153,87,205)" />
<polygon points="348,256 350,250 344,248 342,254" style="fill:rgb(153,87,205)" />
<polygon points="357,256 359,250 353,248 351,254" style="fill:rgb(153,87,205)" />
<polygon points="366,256 368,250 362,248 360,254" style="fill:rgb(153,87,205)" />
<polygon points="298,257 300,251 294,249 292,255" style="fill:rgb(153,87,205)" />
<polygon points="309,261 311,255 305,253 303,259" style="fill:rgb(153,87,205)" />
<polygon points="409,263 409,255 401,255 401,263" style="fill:rgb(153,87,205)" />
<polygon points="144,264 146,258 140,256 138,262" style="fill:rgb(153,87,205)" />
<polygon points="351,264 353,258 347,256 345,262" style="fill:rgb(153,87,205)" />
<polygon points="360,264 362,258 356,256 354,262" style="fill:rgb(153,87,205)" />
<polygon points="303,264 302,257 295,258 296,265" style="fill:rgb(153,87,205)" />
<polygon points="312,269 311,262 304,263 305,270" style="fill:rgb(153,87,205)" />
<polygon points="365,271 367,265 361,263 359,269" style="fill:rgb(153,87,205)" />
<polygon points="150,272 150,264 142,264 142,272" style="fill:rgb(153,87,205)" />
<polygon points="296,272 296,264 288,264 288,272" style="fill:rgb(153,87,205)" />
<polygon points="356,271 355,264 348,265 349,272" style="fill:rgb(153,87,205)" />
<polygon points="359,279 361,273 355,271 353,277" style="fill:rgb(153,87,205)" />
<polygon points="368,280 370,274 364,272 362,278" style="fill:rgb(153,87,205)" />
<polygon points="350,281 352,275 346,273 344,279" style="fill:rgb(153,87,205)" />
<polygon points="407,281 409,275 403,273 401,279" style="fill:rgb(153,87,205)" />
<polygon points="356,288 358,282 352,280 350,286" style="fill:rgb(153,87,205)" />
<polygon points="371,288 373,282 367,280 365,286" style="fill:rgb(153,87,205)" />
<polygon points="380,288 382,282 376,280 374,286" style="fill:rgb(153,87,205)" />
<polygon points="389,288 391,282 385,280 383,286" style="fill:rgb(153,87,205)" />
<polygon points="398,288 400,282 394,280 392,286" style="fill:rgb(153,87,205)" />
<polygon points="410,289 412,283 406,281 404,287" style="fill:rgb(153,87,205)" />
<polygon points="348,289 347,282 340,283 341,290" style="fill:rgb(153,87,205)" />
<polygon points="327,291 329,285 323,283 321,289" style="fill:rgb(153,87,205)" />
<polygon points="336,291 338,285 332,283 330,289" style="fill:rgb(153,87,205)" />
<polygon points="362,294 364,288 358,286 356,292" style="fill:rgb(153,87,205)" />
<polygon points="418,295 420,289 414,287 412,293" style="fill:rgb(153,87,205)" />
<polygon points="383,296 385,290 379,288 377,294" style="fill:rgb(153,87,205)" />
<polygon points="392,296 394,290 388,288 386,294" style="fill:rgb(153,87,205)" />
<polygon points="401,296 403,290 397,288 395,294" style="fill:rgb(153,87,205)" />
<polygon points="353,297 355,291 349,289 347,295" style="fill:rgb(153,87,205)" />
<polygon points="342,299 342,291 334,291 334,299" style="fill:rgb(153,87,205)" />
<polygon points="410,299 412,293 406,291 404,297" style="fill:rgb(153,87,205)" />
<polygon points="359,303 361,297 355,295 353,301" style="fill:rgb(153,87,205)" />
<polygon points="395,304 397,298 391,296 389,302" style="fill:rgb(153,87,205)" />
<polygon points="418,304 420,298 414,296 412,302" style="fill:rgb(153,87,205)" />
<polygon points="119,305 121,299 115,297 113,303" style="fill:rgb(153,87,205)" />
<polygon points="350,306 352,300 346,298 344,304" style="fill:rgb(153,87,205)" />
<polygon points="406,306 405,299 398,300 399,307" style="fill:rgb(153,87,205)" />
<polygon points="127,309 129,303 123,301 121,307" style="fill:rgb(153,87,205)" />
<polygon points="366,309 365,302 358,303 359,310" style="fill:rgb(153,87,205)" />
<polygon points="427,310 426,303 419,304 420,311" style="fill:rgb(153,87,205)" />
<polygon points="358,311 357,304 350,305 351,312" style="fill:rgb(153,87,205)" />
<polygon points="411,312 413,306 407,304 405,310" style="fill:rgb(153,87,205)" />
<polygon points="117,314 119,308 113,306 111,312" style="fill:rgb(153,87,205)" />
<polygon points="137,313 136,306 129,307 130,314" style="fill:rgb(153,87,205)" />
<polygon points="347,316 349,310 343,308 341,314" style="fill:rgb(153,87,205)" />
<polygon points="125,318 127,312 121,310 119,316" style="fill:rgb(153,87,205)" />
<polygon points="417,318 419,312 413,310 411,316" style="fill:rgb(153,87,205)" />
<polygon points="363,318 362,311 355,312 356,319" style="fill:rgb(153,87,205)" />
<polygon points="426,319 428,313 422,311 420,317" style="fill:rgb(153,87,205)" />
<polygon points="116,323 118,317 112,315 110,321" style="fill:rgb(153,87,205)" />
<polygon points="135,322 134,315 127,316 128,323" style="fill:rgb(153,87,205)" />
<polygon points="354,322 353,315 346,316 347,323" style="fill:rgb(153,87,205)" />
<polygon points="124,327 126,321 120,319 118,325" style="fill:rgb(153,87,205)" />
<polygon points="418,327 420,321 414,319 412,325" style="fill:rgb(153,87,205)" />
<polygon points="427,328 429,322 423,320 421,326" style="fill:rgb(153,87,205)" />
<polygon points="345,330 347,324 341,322 339,328" style="fill:rgb(153,87,205)" />
<polygon points="112,332 114,326 108,324 106,330" style="fill:rgb(153,87,205)" />
<polygon points="122,335 121,328 114,329 115,336" style="fill:rgb(153,87,205)" />
<polygon points="421,336 423,330 417,328 415,334" style="fill:rgb(153,87,205)" />
<polygon points="350,337 349,330 342,331 343,338" style="fill:rgb(153,87,205)" />
<polygon points="108,341 110,335 104,333 102,339" style="fill:rgb(153,87,205)" />
<polygon points="426,343 428,337 422,335 420,341" style="fill:rgb(153,87,205)" />
<polygon points="339,344 341,338 335,336 333,342" style="fill:rgb(153,87,205)" />
<polygon points="116,345 118,339 112,337 110,343" style="fill:rgb(153,87,205)" />
<polygon points="102,349 104,343 98,341 96,347" style="fill:rgb(153,87,205)" />
<polygon points="431,350 430,343 423,344 424,351" style="fill:rgb(153,87,205)" />
<polygon points="333,352 335,346 329,344 327,350" style="fill:rgb(153,87,205)" />
<polygon points="112,352 111,345 104,346 105,353" style="fill:rgb(153,87,205)" />
<polygon points="344,353 343,346 336,347 337,354" style="fill:rgb(153,87,205)" />
<polygon points="96,357 98,351 92,349 90,355" style="fill:rgb(153,87,205)" />
<polygon points="432,358 431,351 424,352 425,359" style="fill:rgb(153,87,205)" />
<polygon points="326,360 328,354 322,352 320,358" style="fill:rgb(153,87,205)" />
<polygon points="337,361 337,353 329,353 329,361" style="fill:rgb(153,87,205)" />
<polygon points="106,361 105,354 98,355 99,362" style="fill:rgb(153,87,205)" />
<polygon points="88,365 90,359 84,357 82,363" style="fill:rgb(153,87,205)" />
<polygon points="423,366 425,360 419,358 417,364" style="fill:rgb(153,87,205)" />
<polygon points="318,368 320,362 314,360 312,366" style="fill:rgb(153,87,205)" />
<polygon points="99,368 98,361 91,362 92,369" style="fill:rgb(153,87,205)" />
<polygon points="79,371 81,365 75,363 73,369" style="fill:rgb(153,87,205)" />
<polygon points="329,371 329,363 321,363 321,371" style="fill:rgb(153,87,205)" />
<polygon points="88,374 90,368 84,366 82,372" style="fill:rgb(153,87,205)" />
<polygon points="428,373 427,366 420,367 421,374" style="fill:rgb(153,87,205)" />
<polygon points="70,376 72,370 66,368 64,374" style="fill:rgb(153,87,205)" />
<polygon points="309,376 311,370 305,368 303,374" style="fill:rgb(153,87,205)" />
<polygon points="320,377 320,369 312,369 312,377" style="fill:rgb(153,87,205)" />
<polygon points="418,378 420,372 414,370 412,376" style="fill:rgb(153,87,205)" />
<polygon points="80,380 80,372 72,372 72,380" style="fill:rgb(153,87,205)" />
<polygon points="302,381 302,373 294,373 294,381" style="fill:rgb(153,87,205)" />
<polygon points="412,387 414,381 408,379 406,385" style="fill:rgb(153,87,205)" />
<polygon points="408,394 407,387 400,388 401,395" style="fill:rgb(153,87,205)" />
<polygon points="191,38 193,32 187,30 185,36" style="fill:rgb(153,87,205)" />
<polygon points="177,62 179,56 173,54 171,60" style="fill:rgb(153,87,205)" />
<polygon points="136,66 135,59 128,60 129,67" style="fill:rgb(153,87,205)" />
<polygon points="160,75 164,69 158,65 154,71" style="fill:rgb(153,87,205)" />
<polygon points="151,83 155,77 149,73 145,79" style="fill:rgb(153,87,205)" />
<polygon points="148,94 147,87 140,88 141,95" style="fill:rgb(153,87,205)" />
<polygon points="84,104 88,98 82,94 78,100" style="fill:rgb(153,87,205)" />
<polygon points="103,106 105,100 99,98 97,104" style="fill:rgb(153,87,205)" />
<polygon points="59,110 63,104 57,100 53,106" style="fill:rgb(153,87,205)" />
<polygon points="117,125 116,118 109,119 110,126" style="fill:rgb(153,87,205)" />
<polygon points="126,130 125,123 118,124 119,131" style="fill:rgb(153,87,205)" />
<polygon points="54,140 56,134 50,132 48,138" style="fill:rgb(153,87,205)" />
<polygon points="90,158 94,152 88,148 84,154" style="fill:rgb(153,87,205)" />
<polygon points="256,165 260,159 254,155 250,161" style="fill:rgb(153,87,205)" />
<polygon points="172,166 174,160 168,158 166,164" style="fill:rgb(153,87,205)" />
<polygon points="264,168 268,162 262,158 258,164" style="fill:rgb(153,87,205)" />
<polygon points="339,170 341,164 335,162 333,168" style="fill:rgb(153,87,205)" />
<polygon points="396,179 400,173 394,169 390,175" style="fill:rgb(153,87,205)" />
<polygon points="156,202 161,197 156,192 151,197" style="fill:rgb(153,87,205)" />
<polygon points="422,238 426,232 420,228 416,234" style="fill:rgb(153,87,205)" />
<polygon points="255,247 259,241 253,237 249,243" style="fill:rgb(153,87,205)" />
<polygon points="184,251 189,246 184,241 179,246" style="fill:rgb(153,87,205)" />
<polygon points="255,256 259,250 253,246 249,252" style="fill:rgb(153,87,205)" />
<polygon points="255,265 259,259 253,255 249,261" style="fill:rgb(153,87,205)" />
<polygon points="186,271 190,265 184,261 180,267" style="fill:rgb(153,87,205)" />
<polygon points="405,273 409,267 403,263 399,269" style="fill:rgb(153,87,205)" />
<polygon points="302,274 306,268 300,264 296,270" style="fill:rgb(153,87,205)" />
<polygon points="280,274 282,268 276,266 274,272" style="fill:rgb(153,87,205)" />
<polygon points="155,280 160,275 155,270 150,275" style="fill:rgb(153,87,205)" />
<polygon points="164,284 163,277 156,278 157,285" style="fill:rgb(153,87,205)" />
<polygon points="374,295 376,289 370,287 368,293" style="fill:rgb(153,87,205)" />
<polygon points="386,303 388,297 382,295 380,301" style="fill:rgb(153,87,205)" />
<polygon points="353,330 355,324 349,322 347,328" style="fill:rgb(153,87,205)" />
<polygon points="422,352 424,346 418,344 416,350" style="fill:rgb(153,87,205)" />
<polygon points="431,366 433,360 427,358 425,364" style="fill:rgb(153,87,205)" />
<polygon points="106,369 108,363 102,361 100,367" style="fill:rgb(153,87,205)" />
<polygon points="91,381 93,375 87,373 85,379" style="fill:rgb(153,87,205)" />
<polygon points="415,394 417,388 411,386 409,392" style="fill:rgb(153,87,205)" />
<polygon points="194,31 196,25 190,23 188,29" style="fill:rgb(153,87,205)" />
<polygon points="177,41 179,35 173,33 171,39" style="fill:rgb(153,87,205)" />
<polygon points="167,45 169,39 163,37 161,43" style="fill:rgb(153,87,205)" />
<polygon points="151,50 153,44 147,42 145,48" style="fill:rgb(153,87,205)" />
<polygon points="87,57 89,51 83,49 81,55" style="fill:rgb(153,87,205)" />
<polygon points="162,60 164,54 158,52 156,58" style="fill:rgb(153,87,205)" />
<polygon points="142,87 144,81 138,79 136,85" style="fill:rgb(153,87,205)" />
<polygon points="153,95 155,89 149,87 147,93" style="fill:rgb(153,87,205)" />
<polygon points="141,99 140,92 133,93 134,100" style="fill:rgb(153,87,205)" />
<polygon points="121,102 120,95 113,96 114,103" style="fill:rgb(153,87,205)" />
<polygon points="77,105 79,99 73,97 71,103" style="fill:rgb(153,87,205)" />
<polygon points="93,111 95,105 89,103 87,109" style="fill:rgb(153,87,205)" />
<polygon points="75,112 77,106 71,104 69,110" style="fill:rgb(153,87,205)" />
<polygon points="108,127 110,121 104,119 102,125" style="fill:rgb(153,87,205)" />
<polygon points="119,131 118,124 111,125 112,132" style="fill:rgb(153,87,205)" />
<polygon points="71,143 73,137 67,135 65,141" style="fill:rgb(153,87,205)" />
<polygon points="187,164 189,158 183,156 181,162" style="fill:rgb(153,87,205)" />
<polygon points="229,166 228,159 221,160 222,167" style="fill:rgb(153,87,205)" />
<polygon points="344,175 343,168 336,169 337,176" style="fill:rgb(153,87,205)" />
<polygon points="351,175 350,168 343,169 344,176" style="fill:rgb(153,87,205)" />
<polygon points="41,180 43,174 37,172 35,178" style="fill:rgb(153,87,205)" />
<polygon points="48,180 50,174 44,172 42,178" style="fill:rgb(153,87,205)" />
<polygon points="56,180 58,174 52,172 50,178" style="fill:rgb(153,87,205)" />
<polygon points="179,180 178,173 171,174 172,181" style="fill:rgb(153,87,205)" />
<polygon points="308,181 310,175 304,173 302,179" style="fill:rgb(153,87,205)" />
<polygon points="18,182 17,175 10,176 11,183" style="fill:rgb(153,87,205)" />
<polygon points="22,187 24,181 18,179 16,185" style="fill:rgb(153,87,205)" />
<polygon points="187,186 186,179 179,180 180,187" style="fill:rgb(153,87,205)" />
<polygon points="299,195 301,189 295,187 293,193" style="fill:rgb(153,87,205)" />
<polygon points="266,200 265,193 258,194 259,201" style="fill:rgb(153,87,205)" />
<polygon points="434,202 436,196 430,194 428,200" style="fill:rgb(153,87,205)" />
<polygon points="151,209 156,204 151,199 146,204" style="fill:rgb(153,87,205)" />
<polygon points="185,212 187,206 181,204 179,210" style="fill:rgb(153,87,205)" />
<polygon points="308,213 310,207 304,205 302,211" style="fill:rgb(153,87,205)" />
<polygon points="389,213 388,206 381,207 382,214" style="fill:rgb(153,87,205)" />
<polygon points="146,218 150,212 144,208 140,214" style="fill:rgb(153,87,205)" />
<polygon points="299,221 301,215 295,213 293,219" style="fill:rgb(153,87,205)" />
<polygon points="311,226 310,219 303,220 304,227" style="fill:rgb(153,87,205)" />
<polygon points="266,235 265,228 258,229 259,236" style="fill:rgb(153,87,205)" />
<polygon points="290,238 292,232 286,230 284,236" style="fill:rgb(153,87,205)" />
<polygon points="139,243 138,236 131,237 132,244" style="fill:rgb(153,87,205)" />
<polygon points="422,245 424,239 418,237 416,243" style="fill:rgb(153,87,205)" />
<polygon points="389,248 388,241 381,242 382,249" style="fill:rgb(153,87,205)" />
<polygon points="313,254 315,248 309,246 307,252" style="fill:rgb(153,87,205)" />
<polygon points="371,261 370,254 363,255 364,262" style="fill:rgb(153,87,205)" />
<polygon points="293,263 295,257 289,255 287,261" style="fill:rgb(153,87,205)" />
<polygon points="140,270 142,264 136,262 134,268" style="fill:rgb(153,87,205)" />
<polygon points="271,273 273,267 267,265 265,271" style="fill:rgb(153,87,205)" />
<polygon points="350,273 349,266 342,267 343,274" style="fill:rgb(153,87,205)" />
<polygon points="314,275 313,268 306,269 307,276" style="fill:rgb(153,87,205)" />
<polygon points="363,286 365,280 359,278 357,284" style="fill:rgb(153,87,205)" />
<polygon points="332,297 334,291 328,289 326,295" style="fill:rgb(153,87,205)" />
<polygon points="157,298 159,292 153,290 151,296" style="fill:rgb(153,87,205)" />
<polygon points="418,311 420,305 414,303 412,309" style="fill:rgb(153,87,205)" />
<polygon points="142,314 144,308 138,306 136,312" style="fill:rgb(153,87,205)" />
<polygon points="412,318 411,311 404,312 405,319" style="fill:rgb(153,87,205)" />
<polygon points="345,323 347,317 341,315 339,321" style="fill:rgb(153,87,205)" />
<polygon points="432,333 431,326 424,327 425,334" style="fill:rgb(153,87,205)" />
<polygon points="341,336 343,330 337,328 335,334" style="fill:rgb(153,87,205)" />
<polygon points="346,345 348,339 342,337 340,343" style="fill:rgb(153,87,205)" />
<polygon points="113,358 112,351 105,352 106,359" style="fill:rgb(153,87,205)" />
<polygon points="421,359 423,353 417,351 415,357" style="fill:rgb(153,87,205)" />
<polygon points="69,383 71,377 65,375 63,381" style="fill:rgb(153,87,205)" />
<polygon points="308,383 310,377 304,375 302,381" style="fill:rgb(153,87,205)" />
<polygon points="419,385 421,379 415,377 413,383" style="fill:rgb(153,87,205)" />
<polygon points="179,46 179,42 175,42 175,46" style="fill:rgb(59,198,182)" />
<polygon points="136,59 136,55 132,55 132,59" style="fill:rgb(59,198,182)" />
<polygon points="174,66 174,62 170,62 170,66" style="fill:rgb(59,198,182)" />
<polygon points="121,87 121,83 117,83 117,87" style="fill:rgb(59,198,182)" />
<polygon points="108,90 108,86 104,86 104,90" style="fill:rgb(59,198,182)" />
<polygon points="47,91 47,87 43,87 43,91" style="fill:rgb(59,198,182)" />
<polygon points="102,98 102,94 98,94 98,98" style="fill:rgb(59,198,182)" />
<polygon points="25,163 25,159 21,159 21,163" style="fill:rgb(59,198,182)" />
<polygon points="84,168 84,164 80,164 80,168" style="fill:rgb(59,198,182)" />
<polygon points="73,172 73,168 69,168 69,172" style="fill:rgb(59,198,182)" />
<polygon points="387,181 387,177 383,177 383,181" style="fill:rgb(59,198,182)" />
<polygon points="171,193 171,189 167,189 167,193" style="fill:rgb(59,198,182)" />
<polygon points="422,196 422,192 418,192 418,196" style="fill:rgb(59,198,182)" />
<polygon points="309,242 309,238 305,238 305,242" style="fill:rgb(59,198,182)" />
<polygon points="254,269 254,265 250,265 250,269" style="fill:rgb(59,198,182)" />
<polygon points="260,270 260,266 256,266 256,270" style="fill:rgb(59,198,182)" />
<polygon points="286,271 286,267 282,267 282,271" style="fill:rgb(59,198,182)" />
<polygon points="404,285 404,281 400,281 400,285" style="fill:rgb(59,198,182)" />
<polygon points="161,289 161,285 157,285 157,289" style="fill:rgb(59,198,182)" />
<polygon points="368,292 368,288 364,288 364,292" style="fill:rgb(59,198,182)" />
<polygon points="365,301 365,297 361,297 361,301" style="fill:rgb(59,198,182)" />
<polygon points="411,303 411,299 407,299 407,303" style="fill:rgb(59,198,182)" />
<polygon points="358,323 358,319 354,319 354,323" style="fill:rgb(59,198,182)" />
<polygon points="103,353 103,349 99,349 99,353" style="fill:rgb(59,198,182)" />
<polygon points="419,369 419,365 415,365 415,369" style="fill:rgb(59,198,182)" />
<polygon points="94,373 94,369 90,369 90,373" style="fill:rgb(59,198,182)" />
</svg>