<svg xmlns="http://www.w3.org/2000/svg" version="1.1" width="502" height="600">
<rect width="502" height="600" style="fill:rgb(255,255,255)"/><polygon points="69,69 69,13 13,13 13,69" style="fill:rgb(255,153,204)" />
<polygon points="138,69 138,13 82,13 82,69" style="fill:rgb(255,153,204)" />
<polygon points="430,69 430,13 374,13 374,69" style="fill:rgb(255,153,204)" />
<polygon points="470,127 470,71 414,71 414,127" style="fill:rgb(255,153,204)" />
<polygon points="69,138 69,82 13,82 13,138" style="fill:rgb(255,153,204)" />
<polygon points="138,138 138,82 82,82 82,138" style="fill:rgb(255,153,204)" />
<polygon points="444,196 444,140 388,140 388,196" style="fill:rgb(255,153,204)" />
<polygon points="69,207 69,151 13,151 13,207" style="fill:rgb(255,153,204)" />
<polygon points="138,207 138,151 82,151 82,207" style="fill:rgb(255,153,204)" />
<polygon points="456,266 496,226 456,186 416,226" style="fill:rgb(255,153,204)" />
<polygon points="150,277 190,237 150,197 110,237" style="fill:rgb(255,153,204)" />
<polygon points="69,276 69,220 13,220 13,276" style="fill:rgb(255,153,204)" />
<polygon points="423,314 423,258 367,258 367,314" style="fill:rgb(255,153,204)" />
<polygon points="90,345 130,305 90,265 50,305" style="fill:rgb(255,153,204)" />
<polygon points="488,371 488,315 432,315 432,371" style="fill:rgb(255,153,204)" />
<polygon points="490,437 490,381 434,381 434,437" style="fill:rgb(255,153,204)" />
<polygon points="61,387 61,337 11,337 11,387" style="fill:rgb(153,51,255)" />
<polygon points="474,69 499,26 456,1 431,44" style="fill:rgb(153,51,255)" />
<polygon points="490,489 490,447 448,447 448,489" style="fill:rgb(0,76,153)" />
<polygon points="471,312 501,282 471,252 441,282" style="fill:rgb(0,76,153)" />
<polygon points="182,44 182,8 146,8 146,44" style="fill:rgb(255,0,0)" />
<polygon points="493,167 493,131 457,131 457,167" style="fill:rgb(255,0,0)" />
<polygon points="410,240 410,204 374,204 374,240" style="fill:rgb(255,0,0)" />
<polygon points="44,320 44,284 8,284 8,320" style="fill:rgb(255,0,0)" />
<polygon points="44,431 44,395 8,395 8,431" style="fill:rgb(255,0,0)" />
<polygon points="486,533 486,497 450,497 450,533" style="fill:rgb(255,0,0)" />
<polygon points="169,93 187,63 157,45 139,75" style="fill:rgb(255,0,0)" />
<polygon points="395,118 413,88 383,70 365,100" style="fill:rgb(255,0,0)" />
<polygon points="209,278 191,248 161,266 179,296" style="fill:rgb(255,0,0)" />
<polygon points="413,363 431,333 401,315 383,345" style="fill:rgb(255,0,0)" />
<polygon points="482,582 500,552 470,534 452,564" style="fill:rgb(255,0,0)" />
<polygon points="99,255 117,225 87,207 69,237" style="fill:rgb(255,0,0)" />
<polygon points="35,476 45,442 11,432 1,466" style="fill:rgb(255,0,0)" />
<polygon points="40,594 40,558 4,558 4,594" style="fill:rgb(255,0,0)" />
<polygon points="35,510 35,482 7,482 7,510" style="fill:rgb(0,0,255)" />
<polygon points="35,545 35,517 7,517 7,545" style="fill:rgb(0,0,255)" />
<polygon points="80,13 80,3 70,3 70,13" style="fill:rgb(178,51,50)" />
<polygon points="195,13 195,3 185,3 185,13" style="fill:rgb(178,51,50)" />
<polygon points="360,13 360,3 350,3 350,13" style="fill:rgb(178,51,50)" />
<polygon points="373,13 373,3 363,3 363,13" style="fill:rgb(178,51,50)" />
<polygon points="441,13 441,3 431,3 431,13" style="fill:rgb(178,51,50)" />
<polygon points="493,13 493,3 483,3 483,13" style="fill:rgb(178,51,50)" />
<polygon points="195,26 195,16 185,16 185,26" style="fill:rgb(178,51,50)" />
<polygon points="368,26 368,16 358,16 358,26" style="fill:rgb(178,51,50)" />
<polygon points="496,60 499,51 490,48 487,57" style="fill:rgb(178,51,50)" />
<polygon points="443,65 443,55 433,55 433,65" style="fill:rgb(178,51,50)" />
<polygon points="489,72 492,63 483,60 480,69" style="fill:rgb(178,51,50)" />
<polygon points="80,78 80,68 70,68 70,78" style="fill:rgb(178,51,50)" />
<polygon points="496,82 499,73 490,70 487,79" style="fill:rgb(178,51,50)" />
<polygon points="483,83 483,73 473,73 473,83" style="fill:rgb(178,51,50)" />
<polygon points="489,96 496,89 489,82 482,89" style="fill:rgb(178,51,50)" />
<polygon points="149,97 152,88 143,85 140,94" style="fill:rgb(178,51,50)" />
<polygon points="183,98 186,89 177,86 174,95" style="fill:rgb(178,51,50)" />
<polygon points="160,103 163,94 154,91 151,100" style="fill:rgb(178,51,50)" />
<polygon points="481,106 484,97 475,94 472,103" style="fill:rgb(178,51,50)" />
<polygon points="496,107 499,98 490,95 487,104" style="fill:rgb(178,51,50)" />
<polygon points="173,108 173,98 163,98 163,108" style="fill:rgb(178,51,50)" />
<polygon points="151,113 151,103 141,103 141,113" style="fill:rgb(178,51,50)" />
<polygon points="485,118 488,109 479,106 476,115" style="fill:rgb(178,51,50)" />
<polygon points="409,123 412,114 403,111 400,120" style="fill:rgb(178,51,50)" />
<polygon points="498,123 498,113 488,113 488,123" style="fill:rgb(178,51,50)" />
<polygon points="149,134 152,125 143,122 140,131" style="fill:rgb(178,51,50)" />
<polygon points="409,135 409,125 399,125 399,135" style="fill:rgb(178,51,50)" />
<polygon points="157,142 160,133 151,130 148,139" style="fill:rgb(178,51,50)" />
<polygon points="80,147 80,137 70,137 70,147" style="fill:rgb(178,51,50)" />
<polygon points="145,149 148,140 139,137 136,146" style="fill:rgb(178,51,50)" />
<polygon points="164,152 164,142 154,142 154,152" style="fill:rgb(178,51,50)" />
<polygon points="150,160 153,151 144,148 141,157" style="fill:rgb(178,51,50)" />
<polygon points="162,168 160,158 150,160 152,170" style="fill:rgb(178,51,50)" />
<polygon points="385,169 385,159 375,159 375,169" style="fill:rgb(178,51,50)" />
<polygon points="149,181 152,172 143,169 140,178" style="fill:rgb(178,51,50)" />
<polygon points="457,180 457,170 447,170 447,180" style="fill:rgb(178,51,50)" />
<polygon points="470,180 470,170 460,170 460,180" style="fill:rgb(178,51,50)" />
<polygon points="481,181 484,172 475,169 472,178" style="fill:rgb(178,51,50)" />
<polygon points="496,180 496,170 486,170 486,180" style="fill:rgb(178,51,50)" />
<polygon points="163,184 163,174 153,174 153,184" style="fill:rgb(178,51,50)" />
<polygon points="383,187 386,178 377,175 374,184" style="fill:rgb(178,51,50)" />
<polygon points="151,193 151,183 141,183 141,193" style="fill:rgb(178,51,50)" />
<polygon points="478,193 478,183 468,183 468,193" style="fill:rgb(178,51,50)" />
<polygon points="491,193 491,183 481,183 481,193" style="fill:rgb(178,51,50)" />
<polygon points="165,197 165,187 155,187 155,197" style="fill:rgb(178,51,50)" />
<polygon points="378,199 378,189 368,189 368,199" style="fill:rgb(178,51,50)" />
<polygon points="498,205 498,195 488,195 488,205" style="fill:rgb(178,51,50)" />
<polygon points="423,209 423,199 413,199 413,209" style="fill:rgb(178,51,50)" />
<polygon points="80,216 80,206 70,206 70,216" style="fill:rgb(178,51,50)" />
<polygon points="121,220 121,210 111,210 111,220" style="fill:rgb(178,51,50)" />
<polygon points="493,244 500,237 493,230 486,237" style="fill:rgb(178,51,50)" />
<polygon points="424,247 422,237 412,239 414,249" style="fill:rgb(178,51,50)" />
<polygon points="378,253 378,243 368,243 368,253" style="fill:rgb(178,51,50)" />
<polygon points="391,253 391,243 381,243 381,253" style="fill:rgb(178,51,50)" />
<polygon points="404,253 404,243 394,243 394,253" style="fill:rgb(178,51,50)" />
<polygon points="489,255 489,245 479,245 479,255" style="fill:rgb(178,51,50)" />
<polygon points="431,257 431,247 421,247 421,257" style="fill:rgb(178,51,50)" />
<polygon points="82,258 82,248 72,248 72,258" style="fill:rgb(178,51,50)" />
<polygon points="114,259 117,250 108,247 105,256" style="fill:rgb(178,51,50)" />
<polygon points="121,269 124,260 115,257 112,266" style="fill:rgb(178,51,50)" />
<polygon points="445,268 443,258 433,260 435,270" style="fill:rgb(178,51,50)" />
<polygon points="111,271 111,261 101,261 101,271" style="fill:rgb(178,51,50)" />
<polygon points="132,277 135,268 126,265 123,274" style="fill:rgb(178,51,50)" />
<polygon points="122,281 122,271 112,271 112,281" style="fill:rgb(178,51,50)" />
<polygon points="436,282 436,272 426,272 426,282" style="fill:rgb(178,51,50)" />
<polygon points="161,284 164,275 155,272 152,281" style="fill:rgb(178,51,50)" />
<polygon points="139,287 142,278 133,275 130,284" style="fill:rgb(178,51,50)" />
<polygon points="57,289 57,279 47,279 47,289" style="fill:rgb(178,51,50)" />
<polygon points="149,295 152,286 143,283 140,292" style="fill:rgb(178,51,50)" />
<polygon points="166,295 169,286 160,283 157,292" style="fill:rgb(178,51,50)" />
<polygon points="436,295 439,286 430,283 427,292" style="fill:rgb(178,51,50)" />
<polygon points="362,296 365,287 356,284 353,293" style="fill:rgb(178,51,50)" />
<polygon points="138,298 136,288 126,290 128,300" style="fill:rgb(178,51,50)" />
<polygon points="493,305 500,298 493,291 486,298" style="fill:rgb(178,51,50)" />
<polygon points="447,303 445,293 435,295 437,305" style="fill:rgb(178,51,50)" />
<polygon points="154,306 157,297 148,294 145,303" style="fill:rgb(178,51,50)" />
<polygon points="355,308 358,299 349,296 346,305" style="fill:rgb(178,51,50)" />
<polygon points="142,310 145,301 136,298 133,307" style="fill:rgb(178,51,50)" />
<polygon points="365,316 363,306 353,308 355,318" style="fill:rgb(178,51,50)" />
<polygon points="132,321 135,312 126,309 123,318" style="fill:rgb(178,51,50)" />
<polygon points="57,327 57,317 47,317 47,327" style="fill:rgb(178,51,50)" />
<polygon points="369,328 372,319 363,316 360,325" style="fill:rgb(178,51,50)" />
<polygon points="384,327 384,317 374,317 374,327" style="fill:rgb(178,51,50)" />
<polygon points="124,332 124,322 114,322 114,332" style="fill:rgb(178,51,50)" />
<polygon points="13,333 13,323 3,323 3,333" style="fill:rgb(178,51,50)" />
<polygon points="26,333 26,323 16,323 16,333" style="fill:rgb(178,51,50)" />
<polygon points="39,333 39,323 29,323 29,333" style="fill:rgb(178,51,50)" />
<polygon points="380,340 380,330 370,330 370,340" style="fill:rgb(178,51,50)" />
<polygon points="72,345 75,336 66,333 63,342" style="fill:rgb(178,51,50)" />
<polygon points="83,353 81,343 71,345 73,355" style="fill:rgb(178,51,50)" />
<polygon points="74,367 74,357 64,357 64,367" style="fill:rgb(178,51,50)" />
<polygon points="427,368 430,359 421,356 418,365" style="fill:rgb(178,51,50)" />
<polygon points="429,380 429,370 419,370 419,380" style="fill:rgb(178,51,50)" />
<polygon points="57,400 57,390 47,390 47,400" style="fill:rgb(178,51,50)" />
<polygon points="446,450 446,440 436,440 436,450" style="fill:rgb(178,51,50)" />
<polygon points="498,500 498,490 488,490 488,500" style="fill:rgb(178,51,50)" />
<polygon points="498,540 498,530 488,530 488,540" style="fill:rgb(178,51,50)" />
<polygon points="458,546 458,536 448,536 448,546" style="fill:rgb(178,51,50)" />
<polygon points="496,587 499,578 490,575 487,584" style="fill:rgb(178,51,50)" />
<polygon points="479,594 479,584 469,584 469,594" style="fill:rgb(178,51,50)" />
<polygon points="10,10 10,2 2,2 2,10" style="fill:rgb(255,91,165)" />
<polygon points="20,10 20,2 12,2 12,10" style="fill:rgb(255,91,165)" />
<polygon points="30,10 30,2 22,2 22,10" style="fill:rgb(255,91,165)" />
<polygon points="40,10 40,2 32,2 32,10" style="fill:rgb(255,91,165)" />
<polygon points="50,10 50,2 42,2 42,10" style="fill:rgb(255,91,165)" />
<polygon points="60,10 60,2 52,2 52,10" style="fill:rgb(255,91,165)" />
<polygon points="90,10 90,2 82,2 82,10" style="fill:rgb(255,91,165)" />
<polygon points="100,10 100,2 92,2 92,10" style="fill:rgb(255,91,165)" />
<polygon points="110,10 110,2 102,2 102,10" style="fill:rgb(255,91,165)" />
<polygon points="120,10 120,2 112,2 112,10" style="fill:rgb(255,91,165)" />
<polygon points="130,10 130,2 122,2 122,10" style="fill:rgb(255,91,165)" />
<polygon points="140,10 140,2 132,2 132,10" style="fill:rgb(255,91,165)" />
<polygon points="205,10 205,2 197,2 197,10" style="fill:rgb(255,91,165)" />
<polygon points="383,10 383,2 375,2 375,10" style="fill:rgb(255,91,165)" />
<polygon points="393,10 393,2 385,2 385,10" style="fill:rgb(255,91,165)" />
<polygon points="403,10 403,2 395,2 395,10" style="fill:rgb(255,91,165)" />
<polygon points="413,10 413,2 405,2 405,10" style="fill:rgb(255,91,165)" />
<polygon points="423,10 423,2 415,2 415,10" style="fill:rgb(255,91,165)" />
<polygon points="10,20 10,12 2,12 2,20" style="fill:rgb(255,91,165)" />
<polygon points="79,23 79,15 71,15 71,23" style="fill:rgb(255,91,165)" />
<polygon points="440,23 440,15 432,15 432,23" style="fill:rgb(255,91,165)" />
<polygon points="10,30 10,22 2,22 2,30" style="fill:rgb(255,91,165)" />
<polygon points="79,33 79,25 71,25 71,33" style="fill:rgb(255,91,165)" />
<polygon points="370,36 370,28 362,28 362,36" style="fill:rgb(255,91,165)" />
<polygon points="10,40 10,32 2,32 2,40" style="fill:rgb(255,91,165)" />
<polygon points="79,43 79,35 71,35 71,43" style="fill:rgb(255,91,165)" />
<polygon points="372,46 372,38 364,38 364,46" style="fill:rgb(255,91,165)" />
<polygon points="10,50 10,42 2,42 2,50" style="fill:rgb(255,91,165)" />
<polygon points="79,53 79,45 71,45 71,53" style="fill:rgb(255,91,165)" />
<polygon points="148,54 148,46 140,46 140,54" style="fill:rgb(255,91,165)" />
<polygon points="183,54 183,46 175,46 175,54" style="fill:rgb(255,91,165)" />
<polygon points="10,60 10,52 2,52 2,60" style="fill:rgb(255,91,165)" />
<polygon points="79,63 79,55 71,55 71,63" style="fill:rgb(255,91,165)" />
<polygon points="453,67 453,59 445,59 445,67" style="fill:rgb(255,91,165)" />
<polygon points="10,70 10,62 2,62 2,70" style="fill:rgb(255,91,165)" />
<polygon points="16,78 15,71 8,72 9,79" style="fill:rgb(255,91,165)" />
<polygon points="25,79 25,71 17,71 17,79" style="fill:rgb(255,91,165)" />
<polygon points="35,79 35,71 27,71 27,79" style="fill:rgb(255,91,165)" />
<polygon points="45,79 45,71 37,71 37,79" style="fill:rgb(255,91,165)" />
<polygon points="55,79 55,71 47,71 47,79" style="fill:rgb(255,91,165)" />
<polygon points="65,79 65,71 57,71 57,79" style="fill:rgb(255,91,165)" />
<polygon points="90,79 90,71 82,71 82,79" style="fill:rgb(255,91,165)" />
<polygon points="100,79 100,71 92,71 92,79" style="fill:rgb(255,91,165)" />
<polygon points="110,79 110,71 102,71 102,79" style="fill:rgb(255,91,165)" />
<polygon points="120,79 120,71 112,71 112,79" style="fill:rgb(255,91,165)" />
<polygon points="130,79 130,71 122,71 122,79" style="fill:rgb(255,91,165)" />
<polygon points="374,79 374,71 366,71 366,79" style="fill:rgb(255,91,165)" />
<polygon points="409,79 409,71 401,71 401,79" style="fill:rgb(255,91,165)" />
<polygon points="10,88 10,80 2,80 2,88" style="fill:rgb(255,91,165)" />
<polygon points="79,88 79,80 71,80 71,88" style="fill:rgb(255,91,165)" />
<polygon points="480,93 480,85 472,85 472,93" style="fill:rgb(255,91,165)" />
<polygon points="10,98 10,90 2,90 2,98" style="fill:rgb(255,91,165)" />
<polygon points="79,98 79,90 71,90 71,98" style="fill:rgb(255,91,165)" />
<polygon points="183,107 183,99 175,99 175,107" style="fill:rgb(255,91,165)" />
<polygon points="10,108 10,100 2,100 2,108" style="fill:rgb(255,91,165)" />
<polygon points="79,108 79,100 71,100 71,108" style="fill:rgb(255,91,165)" />
<polygon points="161,112 161,104 153,104 153,112" style="fill:rgb(255,91,165)" />
<polygon points="374,116 374,108 366,108 366,116" style="fill:rgb(255,91,165)" />
<polygon points="10,118 10,110 2,110 2,118" style="fill:rgb(255,91,165)" />
<polygon points="79,118 79,110 71,110 71,118" style="fill:rgb(255,91,165)" />
<polygon points="480,126 480,118 472,118 472,126" style="fill:rgb(255,91,165)" />
<polygon points="10,128 10,120 2,120 2,128" style="fill:rgb(255,91,165)" />
<polygon points="79,128 79,120 71,120 71,128" style="fill:rgb(255,91,165)" />
<polygon points="419,137 419,129 411,129 411,137" style="fill:rgb(255,91,165)" />
<polygon points="429,137 429,129 421,129 421,137" style="fill:rgb(255,91,165)" />
<polygon points="439,137 439,129 431,129 431,137" style="fill:rgb(255,91,165)" />
<polygon points="449,137 449,129 441,129 441,137" style="fill:rgb(255,91,165)" />
<polygon points="10,138 10,130 2,130 2,138" style="fill:rgb(255,91,165)" />
<polygon points="454,147 454,139 446,139 446,147" style="fill:rgb(255,91,165)" />
<polygon points="10,148 10,140 2,140 2,148" style="fill:rgb(255,91,165)" />
<polygon points="20,148 20,140 12,140 12,148" style="fill:rgb(255,91,165)" />
<polygon points="30,148 30,140 22,140 22,148" style="fill:rgb(255,91,165)" />
<polygon points="40,148 40,140 32,140 32,148" style="fill:rgb(255,91,165)" />
<polygon points="50,148 50,140 42,140 42,148" style="fill:rgb(255,91,165)" />
<polygon points="60,148 60,140 52,140 52,148" style="fill:rgb(255,91,165)" />
<polygon points="90,148 90,140 82,140 82,148" style="fill:rgb(255,91,165)" />
<polygon points="100,148 100,140 92,140 92,148" style="fill:rgb(255,91,165)" />
<polygon points="110,148 110,140 102,140 102,148" style="fill:rgb(255,91,165)" />
<polygon points="120,148 120,140 112,140 112,148" style="fill:rgb(255,91,165)" />
<polygon points="130,148 130,140 122,140 122,148" style="fill:rgb(255,91,165)" />
<polygon points="79,157 79,149 71,149 71,157" style="fill:rgb(255,91,165)" />
<polygon points="454,157 454,149 446,149 446,157" style="fill:rgb(255,91,165)" />
<polygon points="10,158 10,150 2,150 2,158" style="fill:rgb(255,91,165)" />
<polygon points="79,167 79,159 71,159 71,167" style="fill:rgb(255,91,165)" />
<polygon points="454,167 454,159 446,159 446,167" style="fill:rgb(255,91,165)" />
<polygon points="10,168 10,160 2,160 2,168" style="fill:rgb(255,91,165)" />
<polygon points="79,177 79,169 71,169 71,177" style="fill:rgb(255,91,165)" />
<polygon points="10,178 10,170 2,170 2,178" style="fill:rgb(255,91,165)" />
<polygon points="79,187 79,179 71,179 71,187" style="fill:rgb(255,91,165)" />
<polygon points="10,188 10,180 2,180 2,188" style="fill:rgb(255,91,165)" />
<polygon points="79,197 79,189 71,189 71,197" style="fill:rgb(255,91,165)" />
<polygon points="10,198 10,190 2,190 2,198" style="fill:rgb(255,91,165)" />
<polygon points="484,203 484,195 476,195 476,203" style="fill:rgb(255,91,165)" />
<polygon points="171,206 171,198 163,198 163,206" style="fill:rgb(255,91,165)" />
<polygon points="433,206 433,198 425,198 425,206" style="fill:rgb(255,91,165)" />
<polygon points="10,208 10,200 2,200 2,208" style="fill:rgb(255,91,165)" />
<polygon points="496,215 496,207 488,207 488,215" style="fill:rgb(255,91,165)" />
<polygon points="16,216 15,209 8,210 9,217" style="fill:rgb(255,91,165)" />
<polygon points="25,217 25,209 17,209 17,217" style="fill:rgb(255,91,165)" />
<polygon points="35,217 35,209 27,209 27,217" style="fill:rgb(255,91,165)" />
<polygon points="45,217 45,209 37,209 37,217" style="fill:rgb(255,91,165)" />
<polygon points="55,217 55,209 47,209 47,217" style="fill:rgb(255,91,165)" />
<polygon points="65,217 65,209 57,209 57,217" style="fill:rgb(255,91,165)" />
<polygon points="420,219 420,211 412,211 412,219" style="fill:rgb(255,91,165)" />
<polygon points="10,226 10,218 2,218 2,226" style="fill:rgb(255,91,165)" />
<polygon points="10,236 10,228 2,228 2,236" style="fill:rgb(255,91,165)" />
<polygon points="10,246 10,238 2,238 2,246" style="fill:rgb(255,91,165)" />
<polygon points="499,253 499,245 491,245 491,253" style="fill:rgb(255,91,165)" />
<polygon points="10,256 10,248 2,248 2,256" style="fill:rgb(255,91,165)" />
<polygon points="92,261 92,253 84,253 84,261" style="fill:rgb(255,91,165)" />
<polygon points="498,263 498,255 490,255 490,263" style="fill:rgb(255,91,165)" />
<polygon points="10,266 10,258 2,258 2,266" style="fill:rgb(255,91,165)" />
<polygon points="433,267 433,259 425,259 425,267" style="fill:rgb(255,91,165)" />
<polygon points="79,268 79,260 71,260 71,268" style="fill:rgb(255,91,165)" />
<polygon points="10,276 10,268 2,268 2,276" style="fill:rgb(255,91,165)" />
<polygon points="448,276 447,269 440,270 441,277" style="fill:rgb(255,91,165)" />
<polygon points="67,286 67,278 59,278 59,286" style="fill:rgb(255,91,165)" />
<polygon points="130,287 129,280 122,281 123,288" style="fill:rgb(255,91,165)" />
<polygon points="54,299 54,291 46,291 46,299" style="fill:rgb(255,91,165)" />
<polygon points="175,300 174,293 167,294 168,301" style="fill:rgb(255,91,165)" />
<polygon points="164,304 166,298 160,296 158,302" style="fill:rgb(255,91,165)" />
<polygon points="433,304 433,296 425,296 425,304" style="fill:rgb(255,91,165)" />
<polygon points="456,307 455,300 448,301 449,308" style="fill:rgb(255,91,165)" />
<polygon points="488,310 487,303 480,304 481,311" style="fill:rgb(255,91,165)" />
<polygon points="445,313 445,305 437,305 437,313" style="fill:rgb(255,91,165)" />
<polygon points="497,313 499,307 493,305 491,311" style="fill:rgb(255,91,165)" />
<polygon points="159,313 158,306 151,307 152,314" style="fill:rgb(255,91,165)" />
<polygon points="150,315 149,308 142,309 143,316" style="fill:rgb(255,91,165)" />
<polygon points="351,316 351,308 343,308 343,316" style="fill:rgb(255,91,165)" />
<polygon points="428,322 430,316 424,314 422,320" style="fill:rgb(255,91,165)" />
<polygon points="498,322 498,314 490,314 490,322" style="fill:rgb(255,91,165)" />
<polygon points="143,323 143,315 135,315 135,323" style="fill:rgb(255,91,165)" />
<polygon points="394,324 394,316 386,316 386,324" style="fill:rgb(255,91,165)" />
<polygon points="498,332 498,324 490,324 490,332" style="fill:rgb(255,91,165)" />
<polygon points="67,333 67,325 59,325 59,333" style="fill:rgb(255,91,165)" />
<polygon points="113,335 112,328 105,329 106,336" style="fill:rgb(255,91,165)" />
<polygon points="498,342 498,334 490,334 490,342" style="fill:rgb(255,91,165)" />
<polygon points="106,344 105,337 98,338 99,345" style="fill:rgb(255,91,165)" />
<polygon points="498,352 498,344 490,344 490,352" style="fill:rgb(255,91,165)" />
<polygon points="71,354 71,346 63,346 63,354" style="fill:rgb(255,91,165)" />
<polygon points="498,362 498,354 490,354 490,362" style="fill:rgb(255,91,165)" />
<polygon points="498,372 498,364 490,364 490,372" style="fill:rgb(255,91,165)" />
<polygon points="499,382 499,374 491,374 491,382" style="fill:rgb(255,91,165)" />
<polygon points="10,387 10,379 2,379 2,387" style="fill:rgb(255,91,165)" />
<polygon points="431,390 431,382 423,382 423,390" style="fill:rgb(255,91,165)" />
<polygon points="54,410 54,402 46,402 46,410" style="fill:rgb(255,91,165)" />
<polygon points="499,442 498,435 491,436 492,443" style="fill:rgb(255,91,165)" />
<polygon points="445,460 445,452 437,452 437,460" style="fill:rgb(255,91,165)" />
<polygon points="10,478 10,470 2,470 2,478" style="fill:rgb(255,91,165)" />
<polygon points="496,510 496,502 488,502 488,510" style="fill:rgb(255,91,165)" />
<polygon points="496,520 496,512 488,512 488,520" style="fill:rgb(255,91,165)" />
<polygon points="41,554 41,546 33,546 33,554" style="fill:rgb(255,91,165)" />
<polygon points="10,555 10,547 2,547 2,555" style="fill:rgb(255,91,165)" />
<polygon points="20,555 20,547 12,547 12,555" style="fill:rgb(255,91,165)" />
<polygon points="30,555 30,547 22,547 22,555" style="fill:rgb(255,91,165)" />
<polygon points="489,594 489,586 481,586 481,594" style="fill:rgb(255,91,165)" />
<polygon points="499,596 499,588 491,588 491,596" style="fill:rgb(255,91,165)" />
<polygon points="450,8 450,2 444,2 444,8" style="fill:rgb(153,87,205)" />
<polygon points="478,8 478,2 472,2 472,8" style="fill:rgb(153,87,205)" />
<polygon points="499,45 499,39 493,39 493,45" style="fill:rgb(153,87,205)" />
<polygon points="499,67 499,61 493,61 493,67" style="fill:rgb(153,87,205)" />
<polygon points="139,78 139,72 133,72 133,78" style="fill:rgb(153,87,205)" />
<polygon points="185,85 185,79 179,79 179,85" style="fill:rgb(153,87,205)" />
<polygon points="411,110 411,104 405,104 405,110" style="fill:rgb(153,87,205)" />
<polygon points="147,167 147,161 141,161 141,167" style="fill:rgb(153,87,205)" />
<polygon points="412,254 412,248 406,248 406,254" style="fill:rgb(153,87,205)" />
<polygon points="100,262 100,256 94,256 94,262" style="fill:rgb(153,87,205)" />
<polygon points="462,312 462,306 456,306 456,312" style="fill:rgb(153,87,205)" />
<polygon points="360,325 360,319 354,319 354,325" style="fill:rgb(153,87,205)" />
<polygon points="8,341 8,335 2,335 2,341" style="fill:rgb(153,87,205)" />
<polygon points="8,350 8,344 2,344 2,350" style="fill:rgb(153,87,205)" />
<polygon points="429,355 429,349 423,349 423,355" style="fill:rgb(153,87,205)" />
<polygon points="8,359 8,353 2,353 2,359" style="fill:rgb(153,87,205)" />
<polygon points="8,368 8,362 2,362 2,368" style="fill:rgb(153,87,205)" />
<polygon points="499,391 499,385 493,385 493,391" style="fill:rgb(153,87,205)" />
<polygon points="499,400 499,394 493,394 493,400" style="fill:rgb(153,87,205)" />
<polygon points="499,409 499,403 493,403 493,409" style="fill:rgb(153,87,205)" />
<polygon points="499,418 499,412 493,412 493,418" style="fill:rgb(153,87,205)" />
<polygon points="53,419 53,413 47,413 47,419" style="fill:rgb(153,87,205)" />
<polygon points="499,427 499,421 493,421 493,427" style="fill:rgb(153,87,205)" />
<polygon points="8,439 8,433 2,433 2,439" style="fill:rgb(153,87,205)" />
<polygon points="499,451 499,445 493,445 493,451" style="fill:rgb(153,87,205)" />
<polygon points="499,460 499,454 493,454 493,460" style="fill:rgb(153,87,205)" />
<polygon points="499,469 499,463 493,463 493,469" style="fill:rgb(153,87,205)" />
<polygon points="499,478 499,472 493,472 493,478" style="fill:rgb(153,87,205)" />
<polygon points="18,479 18,473 12,473 12,479" style="fill:rgb(153,87,205)" />
<polygon points="499,487 499,481 493,481 493,487" style="fill:rgb(153,87,205)" />
<polygon points="499,572 499,566 493,566 493,572" style="fill:rgb(153,87,205)" />
</svg>