<svg xmlns="http://www.w3.org/2000/svg" version="1.1" width="1024" height="768">
<rect width="1024" height="768" style="fill:rgb(255,255,255)"/><polygon points="908,256 908,44 696,44 696,256" style="fill:rgb(8,2,4)" />
<polygon points="796,483 796,271 584,271 584,483" style="fill:rgb(46,6,6)" />
<polygon points="121,202 221,102 121,2 21,102" style="fill:rgb(3,3,3)" />
<polygon points="994,414 994,272 852,272 852,414" style="fill:rgb(11,7,8)" />
<polygon points="911,696 911,554 769,554 769,696" style="fill:rgb(9,4,10)" />
<polygon points="739,724 739,582 597,582 597,724" style="fill:rgb(38,6,11)" />
<polygon points="306,102 306,18 222,18 222,102" style="fill:rgb(2,2,2)" />
<polygon points="552,754 594,680 520,638 478,712" style="fill:rgb(36,4,9)" />
<polygon points="375,68 375,12 319,12 319,68" style="fill:rgb(2,2,2)" />
<polygon points="973,68 973,12 917,12 917,68" style="fill:rgb(8,2,4)" />
<polygon points="983,140 1023,100 983,60 943,100" style="fill:rgb(8,2,4)" />
<polygon points="977,209 977,153 921,153 921,209" style="fill:rgb(9,5,6)" />
<polygon points="68,230 68,174 12,174 12,230" style="fill:rgb(7,3,4)" />
<polygon points="983,629 1023,589 983,549 943,589" style="fill:rgb(5,4,9)" />
<polygon points="980,698 980,642 924,642 924,698" style="fill:rgb(4,3,8)" />
<polygon points="51,51 51,9 9,9 9,51" style="fill:rgb(4,4,4)" />
<polygon points="427,51 427,9 385,9 385,51" style="fill:rgb(2,2,2)" />
<polygon points="479,51 479,9 437,9 437,51" style="fill:rgb(35,5,7)" />
<polygon points="674,51 674,9 632,9 632,51" style="fill:rgb(36,4,9)" />
<polygon points="317,154 317,112 275,112 275,154" style="fill:rgb(2,2,2)" />
<polygon points="1008,252 1008,210 966,210 966,252" style="fill:rgb(7,2,8)" />
<polygon points="553,359 583,329 553,299 523,329" style="fill:rgb(45,5,5)" />
<polygon points="562,411 562,369 520,369 520,411" style="fill:rgb(45,5,5)" />
<polygon points="570,463 570,421 528,421 528,463" style="fill:rgb(47,7,7)" />
<polygon points="848,466 848,424 806,424 806,466" style="fill:rgb(10,6,7)" />
<polygon points="587,635 587,593 545,593 545,635" style="fill:rgb(40,4,4)" />
<polygon points="1011,741 1011,699 969,699 969,741" style="fill:rgb(10,1,4)" />
<polygon points="791,748 791,706 749,706 749,748" style="fill:rgb(8,3,9)" />
<polygon points="843,748 843,706 801,706 801,748" style="fill:rgb(8,2,4)" />
<polygon points="895,748 895,706 853,706 853,748" style="fill:rgb(8,2,4)" />
<polygon points="947,750 947,708 905,708 905,750" style="fill:rgb(3,2,7)" />
<polygon points="248,158 259,117 218,106 207,147" style="fill:rgb(2,2,2)" />
<polygon points="894,470 905,429 864,418 853,459" style="fill:rgb(2,2,2)" />
<polygon points="952,264 963,223 922,212 911,253" style="fill:rgb(2,2,2)" />
<polygon points="839,310 850,269 809,258 798,299" style="fill:rgb(2,2,2)" />
<polygon points="839,364 850,323 809,312 798,353" style="fill:rgb(2,2,2)" />
<polygon points="839,418 850,377 809,366 798,407" style="fill:rgb(10,6,7)" />
<polygon points="1011,467 1022,426 981,415 970,456" style="fill:rgb(10,6,7)" />
<polygon points="580,506 569,465 528,476 539,517" style="fill:rgb(10,6,7)" />
<polygon points="86,34 86,6 58,6 58,34" style="fill:rgb(3,3,3)" />
<polygon points="194,34 194,6 166,6 166,34" style="fill:rgb(7,3,4)" />
<polygon points="709,34 709,6 681,6 681,34" style="fill:rgb(40,4,4)" />
<polygon points="744,34 744,6 716,6 716,34" style="fill:rgb(7,3,4)" />
<polygon points="779,34 779,6 751,6 751,34" style="fill:rgb(6,2,3)" />
<polygon points="814,34 814,6 786,6 786,34" style="fill:rgb(7,3,4)" />
<polygon points="849,34 849,6 821,6 821,34" style="fill:rgb(8,2,4)" />
<polygon points="884,34 884,6 856,6 856,34" style="fill:rgb(7,3,4)" />
<polygon points="1008,34 1008,6 980,6 980,34" style="fill:rgb(8,2,4)" />
<polygon points="34,86 34,58 6,58 6,86" style="fill:rgb(2,2,2)" />
<polygon points="341,103 341,75 313,75 313,103" style="fill:rgb(1,1,1)" />
<polygon points="932,109 952,89 932,69 912,89" style="fill:rgb(8,2,4)" />
<polygon points="943,144 943,116 915,116 915,144" style="fill:rgb(8,2,4)" />
<polygon points="1003,161 1023,141 1003,121 983,141" style="fill:rgb(5,4,9)" />
<polygon points="34,156 34,128 6,128 6,156" style="fill:rgb(3,3,3)" />
<polygon points="689,161 689,133 661,133 661,161" style="fill:rgb(44,4,4)" />
<polygon points="676,196 676,168 648,168 648,196" style="fill:rgb(42,2,2)" />
<polygon points="1012,196 1012,168 984,168 984,196" style="fill:rgb(6,5,10)" />
<polygon points="34,265 34,237 6,237 6,265" style="fill:rgb(9,5,6)" />
<polygon points="940,449 940,421 912,421 912,449" style="fill:rgb(12,7,13)" />
<polygon points="760,574 760,546 732,546 732,574" style="fill:rgb(15,3,3)" />
<polygon points="946,633 946,605 918,605 918,633" style="fill:rgb(7,2,8)" />
<polygon points="1017,652 1017,624 989,624 989,652" style="fill:rgb(1,5,8)" />
<polygon points="1015,687 1015,659 987,659 987,687" style="fill:rgb(1,5,8)" />
<polygon points="599,759 599,731 571,731 571,759" style="fill:rgb(33,3,5)" />
<polygon points="634,759 634,731 606,731 606,759" style="fill:rgb(37,5,8)" />
<polygon points="669,759 669,731 641,731 641,759" style="fill:rgb(39,7,12)" />
<polygon points="704,759 704,731 676,731 676,759" style="fill:rgb(38,6,11)" />
<polygon points="739,759 739,731 711,731 711,759" style="fill:rgb(37,7,9)" />
<polygon points="92,9 94,3 88,1 86,7" style="fill:rgb(3,0,0)" />
<polygon points="101,9 103,3 97,1 95,7" style="fill:rgb(0,0,0)" />
<polygon points="112,9 112,1 104,1 104,9" style="fill:rgb(2,2,2)" />
<polygon points="137,9 139,3 133,1 131,7" style="fill:rgb(2,2,2)" />
<polygon points="146,9 148,3 142,1 140,7" style="fill:rgb(2,2,2)" />
<polygon points="155,9 157,3 151,1 149,7" style="fill:rgb(2,1,6)" />
<polygon points="200,9 202,3 196,1 194,7" style="fill:rgb(3,3,3)" />
<polygon points="209,9 211,3 205,1 203,7" style="fill:rgb(2,2,2)" />
<polygon points="218,9 220,3 214,1 212,7" style="fill:rgb(2,2,2)" />
<polygon points="227,9 229,3 223,1 221,7" style="fill:rgb(4,4,4)" />
<polygon points="236,9 238,3 232,1 230,7" style="fill:rgb(2,2,2)" />
<polygon points="245,9 247,3 241,1 239,7" style="fill:rgb(2,2,2)" />
<polygon points="254,9 256,3 250,1 248,7" style="fill:rgb(2,2,2)" />
<polygon points="263,9 265,3 259,1 257,7" style="fill:rgb(0,0,0)" />
<polygon points="272,9 274,3 268,1 266,7" style="fill:rgb(2,2,2)" />
<polygon points="281,9 283,3 277,1 275,7" style="fill:rgb(1,1,1)" />
<polygon points="290,9 292,3 286,1 284,7" style="fill:rgb(2,2,2)" />
<polygon points="299,9 301,3 295,1 293,7" style="fill:rgb(2,2,2)" />
<polygon points="308,9 310,3 304,1 302,7" style="fill:rgb(2,1,6)" />
<polygon points="319,9 319,1 311,1 311,9" style="fill:rgb(2,1,6)" />
<polygon points="329,9 329,1 321,1 321,9" style="fill:rgb(2,2,2)" />
<polygon points="339,9 339,1 331,1 331,9" style="fill:rgb(1,1,1)" />
<polygon points="349,9 349,1 341,1 341,9" style="fill:rgb(0,0,0)" />
<polygon points="359,9 359,1 351,1 351,9" style="fill:rgb(3,3,3)" />
<polygon points="369,9 369,1 361,1 361,9" style="fill:rgb(2,2,2)" />
<polygon points="379,9 379,1 371,1 371,9" style="fill:rgb(2,2,2)" />
<polygon points="436,9 436,1 428,1 428,9" style="fill:rgb(31,0,5)" />
<polygon points="483,9 485,3 479,1 477,7" style="fill:rgb(35,5,7)" />
<polygon points="492,9 494,3 488,1 486,7" style="fill:rgb(36,6,8)" />
<polygon points="501,9 503,3 497,1 495,7" style="fill:rgb(43,13,15)" />
<polygon points="510,9 512,3 506,1 504,7" style="fill:rgb(30,0,2)" />
<polygon points="519,9 521,3 515,1 513,7" style="fill:rgb(34,2,5)" />
<polygon points="530,9 530,1 522,1 522,9" style="fill:rgb(33,1,4)" />
<polygon points="546,8 545,1 538,2 539,9" style="fill:rgb(33,0,0)" />
<polygon points="558,9 560,3 554,1 552,7" style="fill:rgb(36,4,5)" />
<polygon points="567,9 569,3 563,1 561,7" style="fill:rgb(35,3,8)" />
<polygon points="576,9 578,3 572,1 570,7" style="fill:rgb(33,1,6)" />
<polygon points="585,9 587,3 581,1 579,7" style="fill:rgb(36,6,8)" />
<polygon points="594,9 596,3 590,1 588,7" style="fill:rgb(39,7,12)" />
<polygon points="603,9 605,3 599,1 597,7" style="fill:rgb(40,8,13)" />
<polygon points="612,9 614,3 608,1 606,7" style="fill:rgb(38,6,9)" />
<polygon points="621,9 623,3 617,1 615,7" style="fill:rgb(32,0,3)" />
<polygon points="890,9 892,3 886,1 884,7" style="fill:rgb(15,6,9)" />
<polygon points="899,9 901,3 895,1 893,7" style="fill:rgb(4,4,4)" />
<polygon points="908,9 910,3 904,1 902,7" style="fill:rgb(9,5,6)" />
<polygon points="919,9 919,1 911,1 911,9" style="fill:rgb(7,6,11)" />
<polygon points="929,9 929,1 921,1 921,9" style="fill:rgb(5,4,9)" />
<polygon points="939,9 939,1 931,1 931,9" style="fill:rgb(8,4,5)" />
<polygon points="949,9 949,1 941,1 941,9" style="fill:rgb(5,7,6)" />
<polygon points="959,9 959,1 951,1 951,9" style="fill:rgb(3,5,4)" />
<polygon points="969,9 969,1 961,1 961,9" style="fill:rgb(3,2,7)" />
<polygon points="1014,9 1016,3 1010,1 1008,7" style="fill:rgb(3,2,7)" />
<polygon points="979,10 979,2 971,2 971,10" style="fill:rgb(5,4,9)" />
<polygon points="7,11 9,5 3,3 1,9" style="fill:rgb(3,3,3)" />
<polygon points="632,10 631,3 624,4 625,11" style="fill:rgb(37,5,10)" />
<polygon points="161,15 163,9 157,7 155,13" style="fill:rgb(4,3,8)" />
<polygon points="1022,14 1021,7 1014,8 1015,15" style="fill:rgb(4,3,8)" />
<polygon points="95,17 97,11 91,9 89,15" style="fill:rgb(9,5,6)" />
<polygon points="151,16 150,9 143,10 144,17" style="fill:rgb(2,1,6)" />
<polygon points="203,17 205,11 199,9 197,15" style="fill:rgb(2,2,2)" />
<polygon points="212,17 214,11 208,9 206,15" style="fill:rgb(4,4,4)" />
<polygon points="495,17 497,11 491,9 489,15" style="fill:rgb(31,1,3)" />
<polygon points="504,17 506,11 500,9 498,15" style="fill:rgb(37,7,9)" />
<polygon points="588,17 590,11 584,9 582,15" style="fill:rgb(37,7,9)" />
<polygon points="597,17 599,11 593,9 591,15" style="fill:rgb(33,1,6)" />
<polygon points="606,17 608,11 602,9 600,15" style="fill:rgb(35,3,8)" />
<polygon points="615,17 617,11 611,9 609,15" style="fill:rgb(38,6,9)" />
<polygon points="893,17 895,11 889,9 887,15" style="fill:rgb(7,3,4)" />
<polygon points="902,17 904,11 898,9 896,15" style="fill:rgb(10,1,4)" />
<polygon points="487,18 489,12 483,10 481,16" style="fill:rgb(39,9,11)" />
<polygon points="315,19 315,11 307,11 307,19" style="fill:rgb(2,1,6)" />
<polygon points="911,19 913,13 907,11 905,17" style="fill:rgb(7,3,4)" />
<polygon points="624,20 626,14 620,12 618,18" style="fill:rgb(36,4,7)" />
<polygon points="157,22 156,15 149,16 150,23" style="fill:rgb(2,2,2)" />
<polygon points="218,23 220,17 214,15 212,21" style="fill:rgb(3,3,3)" />
<polygon points="511,23 510,16 503,17 504,24" style="fill:rgb(35,4,9)" />
<polygon points="1018,24 1018,16 1010,16 1010,24" style="fill:rgb(8,2,6)" />
<polygon points="206,25 208,19 202,17 200,23" style="fill:rgb(3,3,3)" />
<polygon points="500,24 499,17 492,18 493,25" style="fill:rgb(40,10,12)" />
<polygon points="600,25 602,19 596,17 594,23" style="fill:rgb(42,7,13)" />
<polygon points="609,25 611,19 605,17 603,23" style="fill:rgb(33,1,6)" />
<polygon points="896,25 898,19 892,17 890,23" style="fill:rgb(7,3,4)" />
<polygon points="96,26 96,18 88,18 88,26" style="fill:rgb(9,5,6)" />
<polygon points="487,27 489,21 483,19 481,25" style="fill:rgb(37,7,9)" />
<polygon points="905,27 907,21 901,19 899,25" style="fill:rgb(7,3,4)" />
<polygon points="164,27 163,20 156,21 157,28" style="fill:rgb(5,5,5)" />
<polygon points="618,28 620,22 614,20 612,26" style="fill:rgb(34,2,7)" />
<polygon points="629,28 629,20 621,20 621,28" style="fill:rgb(37,5,10)" />
<polygon points="316,29 316,21 308,21 308,29" style="fill:rgb(3,2,7)" />
<polygon points="212,31 214,25 208,23 206,29" style="fill:rgb(1,1,1)" />
<polygon points="915,31 914,24 907,25 908,32" style="fill:rgb(7,3,4)" />
<polygon points="202,34 204,28 198,26 196,32" style="fill:rgb(4,4,4)" />
<polygon points="494,33 493,26 486,27 487,34" style="fill:rgb(39,9,11)" />
<polygon points="608,34 608,26 600,26 600,34" style="fill:rgb(40,5,11)" />
<polygon points="892,34 894,28 888,26 886,32" style="fill:rgb(7,3,4)" />
<polygon points="1016,34 1018,28 1012,26 1010,32" style="fill:rgb(10,1,4)" />
<polygon points="900,36 902,30 896,28 894,34" style="fill:rgb(7,3,4)" />
<polygon points="618,37 618,29 610,29 610,37" style="fill:rgb(37,7,5)" />
<polygon points="217,38 219,32 213,30 211,36" style="fill:rgb(1,1,1)" />
<polygon points="628,38 628,30 620,30 620,38" style="fill:rgb(36,4,9)" />
<polygon points="316,39 316,31 308,31 308,39" style="fill:rgb(4,4,4)" />
<polygon points="210,39 209,32 202,33 203,40" style="fill:rgb(5,3,4)" />
<polygon points="909,41 909,33 901,33 901,41" style="fill:rgb(4,4,6)" />
<polygon points="1021,41 1020,34 1013,35 1014,42" style="fill:rgb(7,3,2)" />
<polygon points="198,43 200,37 194,35 192,41" style="fill:rgb(9,3,5)" />
<polygon points="489,43 489,35 481,35 481,43" style="fill:rgb(32,1,6)" />
<polygon points="59,44 61,38 55,36 53,42" style="fill:rgb(8,4,5)" />
<polygon points="68,44 70,38 64,36 62,42" style="fill:rgb(7,3,4)" />
<polygon points="172,44 174,38 168,36 166,42" style="fill:rgb(7,3,4)" />
<polygon points="181,44 183,38 177,36 175,42" style="fill:rgb(7,3,4)" />
<polygon points="190,44 192,38 186,36 184,42" style="fill:rgb(9,5,6)" />
<polygon points="682,44 684,38 678,36 676,42" style="fill:rgb(38,6,9)" />
<polygon points="693,44 693,36 685,36 685,44" style="fill:rgb(42,6,6)" />
<polygon points="981,44 983,38 977,36 975,42" style="fill:rgb(9,5,6)" />
<polygon points="990,44 992,38 986,36 984,42" style="fill:rgb(7,3,4)" />
<polygon points="999,44 1001,38 995,36 993,42" style="fill:rgb(7,3,4)" />
<polygon points="1008,44 1010,38 1004,36 1002,42" style="fill:rgb(10,1,4)" />
<polygon points="214,47 216,41 210,39 208,45" style="fill:rgb(2,2,2)" />
<polygon points="208,48 207,41 200,42 201,49" style="fill:rgb(4,2,3)" />
<polygon points="316,49 316,41 308,41 308,49" style="fill:rgb(0,0,0)" />
<polygon points="1022,49 1021,42 1014,43 1015,50" style="fill:rgb(7,2,6)" />
<polygon points="62,52 64,46 58,44 56,50" style="fill:rgb(8,4,5)" />
<polygon points="184,52 186,46 180,44 178,50" style="fill:rgb(9,5,6)" />
<polygon points="193,52 195,46 189,44 187,50" style="fill:rgb(11,7,8)" />
<polygon points="984,52 986,46 980,44 978,50" style="fill:rgb(8,2,4)" />
<polygon points="993,52 995,46 989,44 987,50" style="fill:rgb(8,2,4)" />
<polygon points="1002,52 1004,46 998,44 996,50" style="fill:rgb(7,3,4)" />
<polygon points="1011,52 1013,46 1007,44 1005,50" style="fill:rgb(8,3,9)" />
<polygon points="682,54 684,48 678,46 676,52" style="fill:rgb(35,0,0)" />
<polygon points="691,54 693,48 687,46 685,52" style="fill:rgb(42,6,6)" />
<polygon points="219,54 218,47 211,48 212,55" style="fill:rgb(5,5,5)" />
<polygon points="209,56 208,49 201,50 202,57" style="fill:rgb(0,0,0)" />
<polygon points="434,57 436,51 430,49 428,55" style="fill:rgb(31,2,4)" />
<polygon points="200,58 199,51 192,52 193,59" style="fill:rgb(4,4,4)" />
<polygon points="316,59 316,51 308,51 308,59" style="fill:rgb(2,2,2)" />
<polygon points="1016,59 1018,53 1012,51 1010,57" style="fill:rgb(4,3,8)" />
<polygon points="57,59 56,52 49,53 50,60" style="fill:rgb(5,1,2)" />
<polygon points="996,60 998,54 992,52 990,58" style="fill:rgb(7,3,4)" />
<polygon points="1005,60 1007,54 1001,52 999,58" style="fill:rgb(7,3,4)" />
<polygon points="40,61 42,55 36,53 34,59" style="fill:rgb(3,3,3)" />
<polygon points="191,61 191,53 183,53 183,61" style="fill:rgb(5,5,5)" />
<polygon points="383,61 385,55 379,53 377,59" style="fill:rgb(0,0,0)" />
<polygon points="392,61 394,55 388,53 386,59" style="fill:rgb(2,2,2)" />
<polygon points="403,61 403,53 395,53 395,61" style="fill:rgb(2,2,2)" />
<polygon points="413,61 413,53 405,53 405,61" style="fill:rgb(2,2,2)" />
<polygon points="421,61 423,55 417,53 415,59" style="fill:rgb(8,2,2)" />
<polygon points="443,61 445,55 439,53 437,59" style="fill:rgb(37,7,9)" />
<polygon points="452,61 454,55 448,53 446,59" style="fill:rgb(31,1,3)" />
<polygon points="461,61 463,55 457,53 455,59" style="fill:rgb(38,8,10)" />
<polygon points="472,61 472,53 464,53 464,61" style="fill:rgb(41,9,12)" />
<polygon points="639,61 639,53 631,53 631,61" style="fill:rgb(30,0,2)" />
<polygon points="647,61 649,55 643,53 641,59" style="fill:rgb(47,11,11)" />
<polygon points="656,61 658,55 652,53 650,59" style="fill:rgb(39,3,3)" />
<polygon points="665,61 667,55 661,53 659,59" style="fill:rgb(38,6,11)" />
<polygon points="674,62 676,56 670,54 668,60" style="fill:rgb(41,5,5)" />
<polygon points="685,62 687,56 681,54 679,60" style="fill:rgb(42,6,6)" />
<polygon points="220,62 219,55 212,56 213,63" style="fill:rgb(2,2,2)" />
<polygon points="210,64 209,57 202,58 203,65" style="fill:rgb(2,2,2)" />
<polygon points="47,66 49,60 43,58 41,64" style="fill:rgb(3,3,3)" />
<polygon points="431,65 430,58 423,59 424,66" style="fill:rgb(30,4,5)" />
<polygon points="201,66 200,59 193,60 194,67" style="fill:rgb(2,2,2)" />
<polygon points="1010,67 1012,61 1006,59 1004,65" style="fill:rgb(7,3,4)" />
<polygon points="1021,67 1021,59 1013,59 1013,67" style="fill:rgb(4,3,8)" />
<polygon points="316,69 316,61 308,61 308,69" style="fill:rgb(2,2,2)" />
<polygon points="388,69 388,61 380,61 380,69" style="fill:rgb(3,3,3)" />
<polygon points="448,68 447,61 440,62 441,69" style="fill:rgb(32,4,3)" />
<polygon points="457,69 457,61 449,61 449,69" style="fill:rgb(28,0,0)" />
<polygon points="659,69 661,63 655,61 653,67" style="fill:rgb(32,0,5)" />
<polygon points="690,69 692,63 686,61 684,67" style="fill:rgb(43,7,7)" />
<polygon points="1003,69 1003,61 995,61 995,69" style="fill:rgb(7,3,4)" />
<polygon points="668,70 670,64 664,62 662,68" style="fill:rgb(32,0,5)" />
<polygon points="677,70 679,64 673,62 671,68" style="fill:rgb(42,6,6)" />
<polygon points="438,70 437,63 430,64 431,71" style="fill:rgb(33,3,3)" />
<polygon points="214,72 216,66 210,64 208,70" style="fill:rgb(6,6,6)" />
<polygon points="206,74 206,66 198,66 198,74" style="fill:rgb(3,3,3)" />
<polygon points="44,75 44,67 36,67 36,75" style="fill:rgb(2,2,2)" />
<polygon points="683,77 685,71 679,69 677,75" style="fill:rgb(41,5,5)" />
<polygon points="1010,77 1012,71 1006,69 1004,75" style="fill:rgb(7,3,4)" />
<polygon points="1019,77 1021,71 1015,69 1013,75" style="fill:rgb(2,1,6)" />
<polygon points="347,78 349,72 343,70 341,76" style="fill:rgb(1,1,1)" />
<polygon points="356,78 358,72 352,70 350,76" style="fill:rgb(4,4,4)" />
<polygon points="365,78 367,72 361,70 359,76" style="fill:rgb(3,3,3)" />
<polygon points="374,78 376,72 370,70 368,76" style="fill:rgb(6,6,6)" />
<polygon points="673,77 672,70 665,71 666,78" style="fill:rgb(33,1,6)" />
<polygon points="692,78 694,72 688,70 686,76" style="fill:rgb(41,5,5)" />
<polygon points="918,78 918,70 910,70 910,78" style="fill:rgb(8,2,4)" />
<polygon points="950,78 952,72 946,70 944,76" style="fill:rgb(8,2,4)" />
<polygon points="961,78 961,70 953,70 953,78" style="fill:rgb(8,2,4)" />
<polygon points="455,79 455,71 447,71 447,79" style="fill:rgb(33,3,1)" />
<polygon points="664,78 663,71 656,72 657,79" style="fill:rgb(39,7,12)" />
<polygon points="219,79 218,72 211,73 212,80" style="fill:rgb(2,2,2)" />
<polygon points="384,82 383,75 376,76 377,83" style="fill:rgb(0,0,0)" />
<polygon points="677,85 679,79 673,77 671,83" style="fill:rgb(43,9,8)" />
<polygon points="350,86 352,80 346,78 344,84" style="fill:rgb(0,0,0)" />
<polygon points="359,86 361,80 355,78 353,84" style="fill:rgb(4,4,4)" />
<polygon points="368,86 370,80 364,78 362,84" style="fill:rgb(4,4,4)" />
<polygon points="686,86 688,80 682,78 680,84" style="fill:rgb(44,2,4)" />
<polygon points="1020,86 1020,78 1012,78 1012,86" style="fill:rgb(4,3,8)" />
<polygon points="669,87 671,81 665,79 663,85" style="fill:rgb(35,5,5)" />
<polygon points="220,88 220,80 212,80 212,88" style="fill:rgb(0,0,0)" />
<polygon points="375,92 377,86 371,84 369,90" style="fill:rgb(3,3,3)" />
<polygon points="384,93 386,87 380,85 378,91" style="fill:rgb(2,2,2)" />
<polygon points="691,93 693,87 687,85 685,91" style="fill:rgb(43,3,3)" />
<polygon points="353,94 355,88 349,86 347,92" style="fill:rgb(2,2,2)" />
<polygon points="362,94 364,88 358,86 356,92" style="fill:rgb(0,0,0)" />
<polygon points="676,93 675,86 668,87 669,94" style="fill:rgb(32,2,0)" />
<polygon points="683,95 685,89 679,87 677,93" style="fill:rgb(46,7,8)" />
<polygon points="7,96 9,90 3,88 1,94" style="fill:rgb(0,0,0)" />
<polygon points="16,96 18,90 12,88 10,94" style="fill:rgb(1,1,1)" />
<polygon points="358,102 358,94 350,94 350,102" style="fill:rgb(3,3,3)" />
<polygon points="688,102 690,96 684,94 682,100" style="fill:rgb(40,4,4)" />
<polygon points="368,103 368,95 360,95 360,103" style="fill:rgb(3,3,3)" />
<polygon points="676,103 678,97 672,95 670,101" style="fill:rgb(38,2,2)" />
<polygon points="10,104 12,98 6,96 4,102" style="fill:rgb(3,3,3)" />
<polygon points="20,104 22,98 16,96 14,102" style="fill:rgb(1,1,1)" />
<polygon points="916,106 918,100 912,98 910,104" style="fill:rgb(8,2,4)" />
<polygon points="682,110 684,104 678,102 676,108" style="fill:rgb(40,4,4)" />
<polygon points="691,110 693,104 687,102 685,108" style="fill:rgb(44,4,4)" />
<polygon points="13,112 15,106 9,104 7,110" style="fill:rgb(1,1,1)" />
<polygon points="254,112 254,104 246,104 246,112" style="fill:rgb(0,0,0)" />
<polygon points="262,112 264,106 258,104 256,110" style="fill:rgb(4,4,4)" />
<polygon points="273,112 273,104 265,104 265,112" style="fill:rgb(2,2,2)" />
<polygon points="326,113 326,105 318,105 318,113" style="fill:rgb(2,2,2)" />
<polygon points="925,113 925,105 917,105 917,113" style="fill:rgb(8,2,4)" />
<polygon points="945,112 944,105 937,106 938,113" style="fill:rgb(8,2,4)" />
<polygon points="1020,115 1022,109 1016,107 1014,113" style="fill:rgb(3,2,7)" />
<polygon points="22,116 24,110 18,108 16,114" style="fill:rgb(3,3,3)" />
<polygon points="674,118 676,112 670,110 668,116" style="fill:rgb(40,4,4)" />
<polygon points="685,118 687,112 681,110 679,116" style="fill:rgb(40,4,4)" />
<polygon points="949,119 951,113 945,111 943,117" style="fill:rgb(6,2,3)" />
<polygon points="7,120 9,114 3,112 1,118" style="fill:rgb(2,2,2)" />
<polygon points="267,122 269,116 263,114 261,120" style="fill:rgb(2,2,2)" />
<polygon points="31,122 30,115 23,116 24,123" style="fill:rgb(5,5,5)" />
<polygon points="327,123 327,115 319,115 319,123" style="fill:rgb(0,0,0)" />
<polygon points="17,124 17,116 9,116 9,124" style="fill:rgb(2,2,2)" />
<polygon points="211,124 213,118 207,116 205,122" style="fill:rgb(3,3,3)" />
<polygon points="1017,124 1017,116 1009,116 1009,124" style="fill:rgb(5,4,9)" />
<polygon points="690,125 692,119 686,117 684,123" style="fill:rgb(45,5,5)" />
<polygon points="668,126 670,120 664,118 662,124" style="fill:rgb(38,0,0)" />
<polygon points="679,126 679,118 671,118 671,126" style="fill:rgb(41,5,5)" />
<polygon points="958,125 957,118 950,119 951,126" style="fill:rgb(3,0,0)" />
<polygon points="272,129 271,122 264,123 265,130" style="fill:rgb(1,1,1)" />
<polygon points="203,132 205,126 199,124 197,130" style="fill:rgb(10,6,7)" />
<polygon points="962,132 964,126 958,124 956,130" style="fill:rgb(2,1,6)" />
<polygon points="327,133 327,125 319,125 319,133" style="fill:rgb(1,0,0)" />
<polygon points="951,135 953,129 947,127 945,133" style="fill:rgb(4,3,8)" />
<polygon points="42,136 44,130 38,128 36,134" style="fill:rgb(2,2,2)" />
<polygon points="263,137 265,131 259,129 257,135" style="fill:rgb(6,2,3)" />
<polygon points="971,138 970,131 963,132 964,139" style="fill:rgb(6,5,10)" />
<polygon points="195,140 197,134 191,132 189,138" style="fill:rgb(8,4,5)" />
<polygon points="206,140 208,134 202,132 200,138" style="fill:rgb(7,3,4)" />
<polygon points="960,140 959,133 952,134 953,141" style="fill:rgb(3,2,7)" />
<polygon points="271,142 273,136 267,134 265,140" style="fill:rgb(9,5,6)" />
<polygon points="51,142 50,135 43,136 44,143" style="fill:rgb(5,5,5)" />
<polygon points="327,144 327,136 319,136 319,144" style="fill:rgb(8,2,2)" />
<polygon points="977,144 976,137 969,138 970,145" style="fill:rgb(0,0,4)" />
<polygon points="261,146 263,140 257,138 255,144" style="fill:rgb(7,3,4)" />
<polygon points="187,148 189,142 183,140 181,146" style="fill:rgb(0,0,0)" />
<polygon points="198,148 200,142 194,140 192,146" style="fill:rgb(9,5,6)" />
<polygon points="953,147 952,140 945,141 946,148" style="fill:rgb(7,2,8)" />
<polygon points="966,148 966,140 958,140 958,148" style="fill:rgb(4,3,9)" />
<polygon points="55,149 57,143 51,141 49,147" style="fill:rgb(2,2,2)" />
<polygon points="42,150 44,144 38,142 36,148" style="fill:rgb(0,0,0)" />
<polygon points="269,151 271,145 265,143 263,149" style="fill:rgb(6,4,5)" />
<polygon points="982,152 982,144 974,144 974,152" style="fill:rgb(3,2,7)" />
<polygon points="207,153 206,146 199,147 200,154" style="fill:rgb(8,4,5)" />
<polygon points="918,154 918,146 910,146 910,154" style="fill:rgb(9,5,6)" />
<polygon points="259,155 261,149 255,147 253,153" style="fill:rgb(9,3,5)" />
<polygon points="327,155 327,147 319,147 319,155" style="fill:rgb(7,3,2)" />
<polygon points="64,155 63,148 56,149 57,156" style="fill:rgb(2,2,2)" />
<polygon points="179,156 181,150 175,148 173,154" style="fill:rgb(7,3,4)" />
<polygon points="190,156 192,150 186,148 184,154" style="fill:rgb(8,4,5)" />
<polygon points="1020,156 1022,150 1016,148 1014,154" style="fill:rgb(4,3,8)" />
<polygon points="48,157 50,151 44,149 42,155" style="fill:rgb(4,4,4)" />
<polygon points="215,159 215,151 207,151 207,159" style="fill:rgb(8,4,5)" />
<polygon points="269,160 269,152 261,152 261,160" style="fill:rgb(10,4,6)" />
<polygon points="992,160 991,153 984,154 985,161" style="fill:rgb(6,5,10)" />
<polygon points="68,162 70,156 64,154 62,160" style="fill:rgb(3,3,3)" />
<polygon points="40,163 42,157 36,155 34,161" style="fill:rgb(3,3,3)" />
<polygon points="54,163 56,157 50,155 48,161" style="fill:rgb(8,8,8)" />
<polygon points="174,163 173,156 166,157 167,164" style="fill:rgb(5,5,3)" />
<polygon points="918,164 918,156 910,156 910,164" style="fill:rgb(10,6,7)" />
<polygon points="1016,165 1016,157 1008,157 1008,165" style="fill:rgb(0,0,4)" />
<polygon points="7,166 9,160 3,158 1,164" style="fill:rgb(2,2,2)" />
<polygon points="16,166 18,160 12,158 10,164" style="fill:rgb(3,3,3)" />
<polygon points="27,166 27,158 19,158 19,166" style="fill:rgb(7,3,4)" />
<polygon points="77,168 76,161 69,162 70,169" style="fill:rgb(5,1,2)" />
<polygon points="63,170 63,162 55,162 55,170" style="fill:rgb(6,2,3)" />
<polygon points="45,171 45,163 37,163 37,171" style="fill:rgb(7,3,4)" />
<polygon points="682,171 684,165 678,163 676,169" style="fill:rgb(44,4,4)" />
<polygon points="691,171 693,165 687,163 685,169" style="fill:rgb(48,8,8)" />
<polygon points="12,173 11,166 4,167 5,174" style="fill:rgb(4,4,4)" />
<polygon points="918,174 918,166 910,166 910,174" style="fill:rgb(11,7,8)" />
<polygon points="81,175 83,169 77,167 75,173" style="fill:rgb(6,2,3)" />
<polygon points="1022,175 1022,167 1014,167 1014,175" style="fill:rgb(4,3,8)" />
<polygon points="685,179 687,173 681,171 679,177" style="fill:rgb(40,0,0)" />
<polygon points="90,181 89,174 82,175 83,182" style="fill:rgb(7,3,4)" />
<polygon points="9,183 9,175 1,175 1,183" style="fill:rgb(2,2,2)" />
<polygon points="78,183 77,176 70,177 71,184" style="fill:rgb(7,3,4)" />
<polygon points="918,184 918,176 910,176 910,184" style="fill:rgb(11,7,8)" />
<polygon points="1022,185 1022,177 1014,177 1014,185" style="fill:rgb(1,0,5)" />
<polygon points="690,186 692,180 686,178 684,184" style="fill:rgb(45,5,5)" />
<polygon points="94,188 96,182 90,180 88,186" style="fill:rgb(7,3,4)" />
<polygon points="81,191 83,185 77,183 75,189" style="fill:rgb(6,2,3)" />
<polygon points="9,193 9,185 1,185 1,193" style="fill:rgb(5,5,5)" />
<polygon points="684,194 686,188 680,186 678,192" style="fill:rgb(43,3,3)" />
<polygon points="918,194 918,186 910,186 910,194" style="fill:rgb(10,6,7)" />
<polygon points="103,194 102,187 95,188 96,195" style="fill:rgb(7,3,4)" />
<polygon points="1022,195 1022,187 1014,187 1014,195" style="fill:rgb(4,3,8)" />
<polygon points="91,196 90,189 83,190 84,197" style="fill:rgb(9,5,6)" />
<polygon points="692,199 694,193 688,191 686,197" style="fill:rgb(49,9,9)" />
<polygon points="76,200 78,194 72,192 70,198" style="fill:rgb(7,3,4)" />
<polygon points="107,201 109,195 103,193 101,199" style="fill:rgb(9,5,6)" />
<polygon points="9,203 9,195 1,195 1,203" style="fill:rgb(8,4,5)" />
<polygon points="682,203 684,197 678,195 676,201" style="fill:rgb(45,5,5)" />
<polygon points="94,204 96,198 90,196 88,202" style="fill:rgb(14,5,8)" />
<polygon points="918,204 918,196 910,196 910,204" style="fill:rgb(15,3,7)" />
<polygon points="1016,205 1018,199 1012,197 1010,203" style="fill:rgb(6,5,10)" />
<polygon points="82,206 84,200 78,198 76,204" style="fill:rgb(3,0,0)" />
<polygon points="656,206 656,198 648,198 648,206" style="fill:rgb(49,10,11)" />
<polygon points="664,206 666,200 660,198 658,204" style="fill:rgb(43,3,3)" />
<polygon points="673,206 675,200 669,198 667,204" style="fill:rgb(43,3,3)" />
<polygon points="987,206 987,198 979,198 979,206" style="fill:rgb(4,3,8)" />
<polygon points="997,206 997,198 989,198 989,206" style="fill:rgb(5,4,9)" />
<polygon points="1007,206 1007,198 999,198 999,206" style="fill:rgb(4,3,8)" />
<polygon points="690,208 692,202 686,200 684,206" style="fill:rgb(42,2,2)" />
<polygon points="104,209 103,202 96,203 97,210" style="fill:rgb(8,4,5)" />
<polygon points="88,212 90,206 84,204 82,210" style="fill:rgb(12,0,0)" />
<polygon points="681,211 680,204 673,205 674,212" style="fill:rgb(48,8,8)" />
<polygon points="9,213 9,205 1,205 1,213" style="fill:rgb(7,3,4)" />
<polygon points="1021,212 1020,205 1013,206 1014,213" style="fill:rgb(5,4,9)" />
<polygon points="76,214 78,208 72,206 70,212" style="fill:rgb(10,4,6)" />
<polygon points="918,214 918,206 910,206 910,214" style="fill:rgb(14,2,6)" />
<polygon points="686,217 688,211 682,209 680,215" style="fill:rgb(44,2,4)" />
<polygon points="96,217 95,210 88,211 89,218" style="fill:rgb(20,8,8)" />
<polygon points="962,219 962,211 954,211 954,219" style="fill:rgb(13,9,10)" />
<polygon points="82,220 84,214 78,212 76,218" style="fill:rgb(14,2,2)" />
<polygon points="1022,220 1021,213 1014,214 1015,221" style="fill:rgb(6,5,10)" />
<polygon points="9,223 9,215 1,215 1,223" style="fill:rgb(8,4,5)" />
<polygon points="692,223 694,217 688,215 686,221" style="fill:rgb(42,8,7)" />
<polygon points="918,224 918,216 910,216 910,224" style="fill:rgb(15,3,7)" />
<polygon points="90,226 89,219 82,220 83,227" style="fill:rgb(14,2,2)" />
<polygon points="78,228 78,220 70,220 70,228" style="fill:rgb(11,5,7)" />
<polygon points="1018,230 1018,222 1010,222 1010,230" style="fill:rgb(8,3,9)" />
<polygon points="685,231 687,225 681,223 679,229" style="fill:rgb(45,3,5)" />
<polygon points="9,233 9,225 1,225 1,233" style="fill:rgb(6,2,3)" />
<polygon points="77,238 77,230 69,230 69,238" style="fill:rgb(13,3,2)" />
<polygon points="690,238 692,232 686,230 684,236" style="fill:rgb(46,6,6)" />
<polygon points="40,240 42,234 36,232 34,238" style="fill:rgb(9,5,6)" />
<polygon points="49,240 51,234 45,232 43,238" style="fill:rgb(8,4,5)" />
<polygon points="60,240 60,232 52,232 52,240" style="fill:rgb(16,4,8)" />
<polygon points="1018,240 1018,232 1010,232 1010,240" style="fill:rgb(8,3,9)" />
<polygon points="620,245 622,239 616,237 614,243" style="fill:rgb(23,4,6)" />
<polygon points="654,246 656,240 650,238 648,244" style="fill:rgb(46,6,6)" />
<polygon points="681,246 683,240 677,238 675,244" style="fill:rgb(41,1,1)" />
<polygon points="666,247 668,241 662,239 660,245" style="fill:rgb(43,3,3)" />
<polygon points="690,247 692,241 686,239 684,245" style="fill:rgb(51,11,9)" />
<polygon points="43,248 45,242 39,240 37,246" style="fill:rgb(11,3,1)" />
<polygon points="628,249 630,243 624,241 622,247" style="fill:rgb(27,0,0)" />
<polygon points="637,249 639,243 633,241 631,247" style="fill:rgb(42,2,3)" />
<polygon points="54,250 54,242 46,242 46,250" style="fill:rgb(18,4,4)" />
<polygon points="646,250 648,244 642,242 640,248" style="fill:rgb(45,5,5)" />
<polygon points="1018,250 1018,242 1010,242 1010,250" style="fill:rgb(6,5,10)" />
<polygon points="673,252 675,246 669,244 667,250" style="fill:rgb(43,3,3)" />
<polygon points="616,254 618,248 612,246 610,252" style="fill:rgb(9,1,0)" />
<polygon points="657,254 659,248 653,246 651,252" style="fill:rgb(47,7,7)" />
<polygon points="682,255 684,249 678,247 676,253" style="fill:rgb(48,8,8)" />
<polygon points="691,256 693,250 687,248 685,254" style="fill:rgb(47,7,5)" />
<polygon points="42,257 44,251 38,249 36,255" style="fill:rgb(12,4,2)" />
<polygon points="631,257 633,251 627,249 625,255" style="fill:rgb(33,3,1)" />
<polygon points="626,257 625,250 618,251 619,258" style="fill:rgb(24,5,7)" />
<polygon points="640,258 642,252 636,250 634,256" style="fill:rgb(54,14,15)" />
<polygon points="649,258 651,252 645,250 643,256" style="fill:rgb(45,5,5)" />
<polygon points="665,258 667,252 661,250 659,256" style="fill:rgb(42,2,2)" />
<polygon points="963,258 965,252 959,250 957,256" style="fill:rgb(10,5,11)" />
<polygon points="1013,260 1015,254 1009,252 1007,258" style="fill:rgb(4,3,8)" />
<polygon points="674,261 676,255 670,253 668,259" style="fill:rgb(46,6,6)" />
<polygon points="607,262 609,256 603,254 601,260" style="fill:rgb(28,6,8)" />
<polygon points="972,262 974,256 968,254 966,260" style="fill:rgb(7,2,8)" />
<polygon points="981,262 983,256 977,254 975,260" style="fill:rgb(12,7,13)" />
<polygon points="990,262 992,256 986,254 984,260" style="fill:rgb(9,4,10)" />
<polygon points="999,262 1001,256 995,254 993,260" style="fill:rgb(8,7,13)" />
<polygon points="616,264 618,258 612,256 610,262" style="fill:rgb(22,2,4)" />
<polygon points="659,263 658,256 651,257 652,264" style="fill:rgb(45,5,5)" />
<polygon points="683,264 685,258 679,256 677,262" style="fill:rgb(46,6,6)" />
<polygon points="913,264 915,258 909,256 907,262" style="fill:rgb(16,4,8)" />
<polygon points="593,265 593,257 585,257 585,265" style="fill:rgb(31,12,0)" />
<polygon points="694,265 694,257 686,257 686,265" style="fill:rgb(47,7,5)" />
<polygon points="627,266 627,258 619,258 619,266" style="fill:rgb(46,6,6)" />
<polygon points="645,266 645,258 637,258 637,266" style="fill:rgb(47,7,7)" />
<polygon points="704,266 704,258 696,258 696,266" style="fill:rgb(48,8,6)" />
<polygon points="714,266 714,258 706,258 706,266" style="fill:rgb(46,6,4)" />
<polygon points="724,266 724,258 716,258 716,266" style="fill:rgb(41,1,0)" />
<polygon points="734,266 734,258 726,258 726,266" style="fill:rgb(43,7,7)" />
<polygon points="744,266 744,258 736,258 736,266" style="fill:rgb(32,8,8)" />
<polygon points="754,266 754,258 746,258 746,266" style="fill:rgb(18,2,3)" />
<polygon points="764,266 764,258 756,258 756,266" style="fill:rgb(13,1,1)" />
<polygon points="774,266 774,258 766,258 766,266" style="fill:rgb(17,3,3)" />
<polygon points="784,266 784,258 776,258 776,266" style="fill:rgb(17,3,3)" />
<polygon points="794,266 794,258 786,258 786,266" style="fill:rgb(18,4,4)" />
<polygon points="804,266 804,258 796,258 796,266" style="fill:rgb(20,6,6)" />
<polygon points="851,266 853,260 847,258 845,264" style="fill:rgb(19,7,11)" />
<polygon points="862,266 862,258 854,258 854,266" style="fill:rgb(13,1,5)" />
<polygon points="872,266 872,258 864,258 864,266" style="fill:rgb(12,1,5)" />
<polygon points="882,266 882,258 874,258 874,266" style="fill:rgb(15,3,7)" />
<polygon points="892,266 892,258 884,258 884,266" style="fill:rgb(13,1,5)" />
<polygon points="902,266 902,258 894,258 894,266" style="fill:rgb(20,8,12)" />
<polygon points="924,266 924,258 916,258 916,266" style="fill:rgb(16,4,8)" />
<polygon points="1019,266 1021,260 1015,258 1013,264" style="fill:rgb(7,2,8)" />
<polygon points="668,267 668,259 660,259 660,267" style="fill:rgb(44,4,4)" />
<polygon points="963,267 963,259 955,259 955,267" style="fill:rgb(3,0,4)" />
<polygon points="1008,267 1007,260 1000,261 1001,268" style="fill:rgb(7,6,12)" />
<polygon points="934,269 934,261 926,261 926,269" style="fill:rgb(17,5,9)" />
<polygon points="977,270 977,262 969,262 969,270" style="fill:rgb(5,0,6)" />
<polygon points="993,270 995,264 989,262 987,268" style="fill:rgb(6,1,7)" />
<polygon points="1012,274 1014,268 1008,266 1006,272" style="fill:rgb(8,3,9)" />
<polygon points="7,275 9,269 3,267 1,273" style="fill:rgb(10,6,7)" />
<polygon points="16,275 18,269 12,267 10,273" style="fill:rgb(9,4,1)" />
<polygon points="27,275 27,267 19,267 19,275" style="fill:rgb(15,5,4)" />
<polygon points="1002,277 1004,271 998,269 996,275" style="fill:rgb(3,2,7)" />
<polygon points="1020,279 1022,273 1016,271 1014,277" style="fill:rgb(2,1,6)" />
<polygon points="12,282 11,275 4,276 5,283" style="fill:rgb(15,7,5)" />
<polygon points="1008,283 1010,277 1004,275 1002,281" style="fill:rgb(0,0,4)" />
<polygon points="21,285 21,277 13,277 13,285" style="fill:rgb(23,9,9)" />
<polygon points="1015,288 1017,282 1011,280 1009,286" style="fill:rgb(5,4,9)" />
<polygon points="580,290 582,284 576,282 574,288" style="fill:rgb(39,0,0)" />
<polygon points="1002,291 1004,285 998,283 996,289" style="fill:rgb(0,0,4)" />
<polygon points="570,294 572,288 566,286 564,292" style="fill:rgb(39,3,3)" />
<polygon points="1020,295 1022,289 1016,287 1014,293" style="fill:rgb(4,3,8)" />
<polygon points="1012,296 1011,289 1004,290 1005,297" style="fill:rgb(4,3,8)" />
<polygon points="576,299 578,293 572,291 570,297" style="fill:rgb(41,2,3)" />
<polygon points="1002,301 1004,295 998,293 996,299" style="fill:rgb(3,2,7)" />
<polygon points="566,303 568,297 562,295 560,301" style="fill:rgb(49,10,11)" />
<polygon points="1019,303 1018,296 1011,297 1012,304" style="fill:rgb(5,4,9)" />
<polygon points="581,306 580,299 573,300 574,307" style="fill:rgb(43,3,3)" />
<polygon points="1007,308 1009,302 1003,300 1001,306" style="fill:rgb(8,7,12)" />
<polygon points="806,311 806,303 798,303 798,311" style="fill:rgb(15,5,4)" />
<polygon points="848,312 850,306 844,304 842,310" style="fill:rgb(15,4,8)" />
<polygon points="1018,312 1020,306 1014,304 1012,310" style="fill:rgb(2,1,6)" />
<polygon points="582,315 582,307 574,307 574,315" style="fill:rgb(45,5,5)" />
<polygon points="1010,316 1012,310 1006,308 1004,314" style="fill:rgb(5,4,9)" />
<polygon points="1002,317 1004,311 998,309 996,315" style="fill:rgb(3,2,7)" />
<polygon points="527,319 529,313 523,311 521,317" style="fill:rgb(38,0,0)" />
<polygon points="806,321 806,313 798,313 798,321" style="fill:rgb(13,3,2)" />
<polygon points="1018,321 1020,315 1014,313 1012,319" style="fill:rgb(4,3,8)" />
<polygon points="516,325 518,319 512,317 510,323" style="fill:rgb(46,6,6)" />
<polygon points="1005,325 1007,319 1001,317 999,323" style="fill:rgb(10,5,11)" />
<polygon points="1013,330 1015,324 1009,322 1007,328" style="fill:rgb(8,3,9)" />
<polygon points="523,331 522,324 515,325 516,332" style="fill:rgb(48,8,8)" />
<polygon points="1002,334 1004,328 998,326 996,332" style="fill:rgb(7,2,8)" />
<polygon points="512,335 512,327 504,327 504,335" style="fill:rgb(29,0,0)" />
<polygon points="1019,336 1021,330 1015,328 1013,334" style="fill:rgb(11,6,12)" />
<polygon points="1009,339 1011,333 1005,331 1003,337" style="fill:rgb(9,4,10)" />
<polygon points="520,341 522,335 516,333 514,339" style="fill:rgb(42,6,6)" />
<polygon points="580,344 582,338 576,336 574,342" style="fill:rgb(48,8,8)" />
<polygon points="1015,345 1017,339 1011,337 1009,343" style="fill:rgb(8,7,12)" />
<polygon points="527,346 529,340 523,338 521,344" style="fill:rgb(41,5,5)" />
<polygon points="1002,347 1004,341 998,339 996,345" style="fill:rgb(5,4,9)" />
<polygon points="519,350 521,344 515,342 513,348" style="fill:rgb(37,1,1)" />
<polygon points="572,352 574,346 568,344 566,350" style="fill:rgb(50,10,10)" />
<polygon points="1020,352 1022,346 1016,344 1014,350" style="fill:rgb(2,1,6)" />
<polygon points="536,352 535,345 528,346 529,353" style="fill:rgb(49,9,9)" />
<polygon points="1008,353 1010,347 1004,345 1002,351" style="fill:rgb(4,3,8)" />
<polygon points="525,357 527,351 521,349 519,355" style="fill:rgb(40,0,0)" />
<polygon points="580,357 582,351 576,349 574,355" style="fill:rgb(61,21,21)" />
<polygon points="519,358 518,351 511,352 512,359" style="fill:rgb(43,3,3)" />
<polygon points="540,359 542,353 536,351 534,357" style="fill:rgb(51,15,15)" />
<polygon points="564,360 566,354 560,352 558,358" style="fill:rgb(45,5,5)" />
<polygon points="1014,360 1016,354 1010,352 1008,358" style="fill:rgb(8,6,11)" />
<polygon points="1002,361 1004,355 998,353 996,359" style="fill:rgb(6,5,11)" />
<polygon points="533,363 532,356 525,357 526,364" style="fill:rgb(42,6,6)" />
<polygon points="572,365 574,359 568,357 566,363" style="fill:rgb(50,10,10)" />
<polygon points="806,365 806,357 798,357 798,365" style="fill:rgb(10,6,7)" />
<polygon points="525,366 525,358 517,358 517,366" style="fill:rgb(45,5,5)" />
<polygon points="549,366 549,358 541,358 541,366" style="fill:rgb(43,3,3)" />
<polygon points="848,366 850,360 844,358 842,364" style="fill:rgb(9,3,5)" />
<polygon points="1019,367 1021,361 1015,359 1013,365" style="fill:rgb(1,2,6)" />
<polygon points="1010,367 1009,360 1002,361 1003,368" style="fill:rgb(3,2,8)" />
<polygon points="580,370 582,364 576,362 574,368" style="fill:rgb(45,5,5)" />
<polygon points="570,374 572,368 566,366 564,372" style="fill:rgb(50,10,10)" />
<polygon points="806,375 806,367 798,367 798,375" style="fill:rgb(9,5,6)" />
<polygon points="1013,375 1015,369 1009,367 1007,373" style="fill:rgb(11,10,18)" />
<polygon points="1004,376 1003,369 996,370 997,377" style="fill:rgb(4,3,8)" />
<polygon points="578,379 580,373 574,371 572,377" style="fill:rgb(44,4,4)" />
<polygon points="1018,382 1020,376 1014,374 1012,380" style="fill:rgb(8,8,10)" />
<polygon points="516,383 518,377 512,375 510,381" style="fill:rgb(41,2,3)" />
<polygon points="570,383 572,377 566,375 564,381" style="fill:rgb(47,7,7)" />
<polygon points="1009,383 1008,376 1001,377 1002,384" style="fill:rgb(6,5,10)" />
<polygon points="578,388 580,382 574,380 572,386" style="fill:rgb(46,6,6)" />
<polygon points="1012,391 1014,385 1008,383 1006,389" style="fill:rgb(14,9,15)" />
<polygon points="570,392 572,386 566,384 564,390" style="fill:rgb(47,7,7)" />
<polygon points="1002,393 1004,387 998,385 996,391" style="fill:rgb(7,2,8)" />
<polygon points="1020,395 1022,389 1016,387 1014,393" style="fill:rgb(7,2,8)" />
<polygon points="578,397 580,391 574,389 572,395" style="fill:rgb(46,6,6)" />
<polygon points="1006,400 1008,394 1002,392 1000,398" style="fill:rgb(8,3,9)" />
<polygon points="570,401 572,395 566,393 564,399" style="fill:rgb(43,3,3)" />
<polygon points="1014,403 1016,397 1010,395 1008,401" style="fill:rgb(9,4,10)" />
<polygon points="578,406 580,400 574,398 572,404" style="fill:rgb(42,2,2)" />
<polygon points="1002,409 1004,403 998,401 996,407" style="fill:rgb(4,3,9)" />
<polygon points="570,410 572,404 566,402 564,408" style="fill:rgb(48,8,9)" />
<polygon points="1019,410 1021,404 1015,402 1013,408" style="fill:rgb(4,3,8)" />
<polygon points="1010,412 1012,406 1006,404 1004,410" style="fill:rgb(0,0,4)" />
<polygon points="517,413 519,407 513,405 511,411" style="fill:rgb(26,2,0)" />
<polygon points="578,415 580,409 574,407 572,413" style="fill:rgb(45,5,5)" />
<polygon points="849,416 851,410 845,408 843,414" style="fill:rgb(8,6,7)" />
<polygon points="571,419 571,411 563,411 563,419" style="fill:rgb(42,6,6)" />
<polygon points="806,419 806,411 798,411 798,419" style="fill:rgb(10,6,7)" />
<polygon points="1019,419 1019,411 1011,411 1011,419" style="fill:rgb(5,4,9)" />
<polygon points="520,421 522,415 516,413 514,419" style="fill:rgb(36,0,0)" />
<polygon points="816,422 816,414 808,414 808,422" style="fill:rgb(11,5,7)" />
<polygon points="579,424 581,418 575,416 573,422" style="fill:rgb(43,7,7)" />
<polygon points="857,424 857,416 849,416 849,424" style="fill:rgb(7,2,8)" />
<polygon points="900,424 900,416 892,416 892,424" style="fill:rgb(11,6,12)" />
<polygon points="910,424 910,416 902,416 902,424" style="fill:rgb(9,4,10)" />
<polygon points="946,424 948,418 942,416 940,422" style="fill:rgb(10,5,11)" />
<polygon points="955,424 957,418 951,416 949,422" style="fill:rgb(10,5,11)" />
<polygon points="964,424 966,418 960,416 958,422" style="fill:rgb(8,3,9)" />
<polygon points="975,424 975,416 967,416 967,424" style="fill:rgb(6,5,10)" />
<polygon points="525,429 525,421 517,421 517,429" style="fill:rgb(46,4,5)" />
<polygon points="949,432 951,426 945,424 943,430" style="fill:rgb(8,3,9)" />
<polygon points="958,432 960,426 954,424 952,430" style="fill:rgb(10,5,11)" />
<polygon points="580,433 580,425 572,425 572,433" style="fill:rgb(38,2,2)" />
<polygon points="858,434 858,426 850,426 850,434" style="fill:rgb(11,6,12)" />
<polygon points="967,434 969,428 963,426 961,432" style="fill:rgb(8,3,9)" />
<polygon points="952,440 954,434 948,432 946,438" style="fill:rgb(7,2,8)" />
<polygon points="961,442 963,436 957,434 955,440" style="fill:rgb(10,5,11)" />
<polygon points="972,442 972,434 964,434 964,442" style="fill:rgb(8,3,9)" />
<polygon points="580,443 580,435 572,435 572,443" style="fill:rgb(41,5,5)" />
<polygon points="909,449 911,443 905,441 903,447" style="fill:rgb(14,10,11)" />
<polygon points="948,449 950,443 944,441 942,447" style="fill:rgb(8,3,9)" />
<polygon points="956,451 958,445 952,443 950,449" style="fill:rgb(11,6,12)" />
<polygon points="965,452 967,446 961,444 959,450" style="fill:rgb(10,5,11)" />
<polygon points="580,453 580,445 572,445 572,453" style="fill:rgb(43,7,7)" />
<polygon points="907,458 909,452 903,450 901,456" style="fill:rgb(15,4,8)" />
<polygon points="944,458 946,452 940,450 938,456" style="fill:rgb(10,5,11)" />
<polygon points="526,458 525,451 518,452 519,459" style="fill:rgb(50,9,13)" />
<polygon points="918,459 918,451 910,451 910,459" style="fill:rgb(9,2,9)" />
<polygon points="928,459 928,451 920,451 920,459" style="fill:rgb(12,5,12)" />
<polygon points="938,459 938,451 930,451 930,459" style="fill:rgb(9,4,10)" />
<polygon points="955,460 955,452 947,452 947,460" style="fill:rgb(11,6,12)" />
<polygon points="965,461 965,453 957,453 957,461" style="fill:rgb(10,5,11)" />
<polygon points="580,463 580,455 572,455 572,463" style="fill:rgb(50,10,11)" />
<polygon points="525,467 527,461 521,459 519,465" style="fill:rgb(49,4,9)" />
<polygon points="1020,469 1022,463 1016,461 1014,467" style="fill:rgb(4,3,8)" />
<polygon points="856,470 858,464 852,462 850,468" style="fill:rgb(7,3,4)" />
<polygon points="580,473 580,465 572,465 572,473" style="fill:rgb(51,11,11)" />
<polygon points="865,473 867,467 861,465 859,471" style="fill:rgb(8,2,4)" />
<polygon points="806,476 806,468 798,468 798,476" style="fill:rgb(10,6,7)" />
<polygon points="814,476 816,470 810,468 808,474" style="fill:rgb(10,6,7)" />
<polygon points="823,476 825,470 819,468 817,474" style="fill:rgb(13,9,10)" />
<polygon points="834,476 834,468 826,468 826,476" style="fill:rgb(11,7,8)" />
<polygon points="844,476 844,468 836,468 836,476" style="fill:rgb(11,7,8)" />
<polygon points="875,477 875,469 867,469 867,477" style="fill:rgb(3,1,2)" />
<polygon points="854,479 854,471 846,471 846,479" style="fill:rgb(13,4,7)" />
<polygon points="582,483 582,475 574,475 574,483" style="fill:rgb(45,5,5)" />
<polygon points="583,493 585,487 579,485 577,491" style="fill:rgb(51,11,11)" />
<polygon points="592,493 594,487 588,485 586,491" style="fill:rgb(38,0,0)" />
<polygon points="601,493 603,487 597,485 595,491" style="fill:rgb(47,7,7)" />
<polygon points="610,493 612,487 606,485 604,491" style="fill:rgb(51,11,11)" />
<polygon points="619,493 621,487 615,485 613,491" style="fill:rgb(44,4,4)" />
<polygon points="628,493 630,487 624,485 622,491" style="fill:rgb(47,7,7)" />
<polygon points="637,493 639,487 633,485 631,491" style="fill:rgb(44,4,4)" />
<polygon points="646,493 648,487 642,485 640,491" style="fill:rgb(42,2,2)" />
<polygon points="655,493 657,487 651,485 649,491" style="fill:rgb(44,4,4)" />
<polygon points="664,493 666,487 660,485 658,491" style="fill:rgb(42,2,2)" />
<polygon points="673,493 675,487 669,485 667,491" style="fill:rgb(40,4,4)" />
<polygon points="684,493 684,485 676,485 676,493" style="fill:rgb(45,9,9)" />
<polygon points="694,493 694,485 686,485 686,493" style="fill:rgb(50,10,10)" />
<polygon points="704,493 704,485 696,485 696,493" style="fill:rgb(45,5,5)" />
<polygon points="714,493 714,485 706,485 706,493" style="fill:rgb(46,6,6)" />
<polygon points="724,493 724,485 716,485 716,493" style="fill:rgb(48,8,8)" />
<polygon points="734,493 734,485 726,485 726,493" style="fill:rgb(51,13,10)" />
<polygon points="586,501 588,495 582,493 580,499" style="fill:rgb(41,1,1)" />
<polygon points="595,501 597,495 591,493 589,499" style="fill:rgb(44,4,2)" />
<polygon points="604,501 606,495 600,493 598,499" style="fill:rgb(47,7,5)" />
<polygon points="613,501 615,495 609,493 607,499" style="fill:rgb(52,12,12)" />
<polygon points="622,501 624,495 618,493 616,499" style="fill:rgb(48,8,9)" />
<polygon points="633,501 633,493 625,493 625,501" style="fill:rgb(48,8,8)" />
<polygon points="651,500 650,493 643,494 644,501" style="fill:rgb(39,8,6)" />
<polygon points="660,501 660,493 652,493 652,501" style="fill:rgb(47,7,7)" />
<polygon points="522,501 521,494 514,495 515,502" style="fill:rgb(44,10,9)" />
<polygon points="670,502 670,494 662,494 662,502" style="fill:rgb(50,10,10)" />
<polygon points="529,503 531,497 525,495 523,501" style="fill:rgb(45,5,5)" />
<polygon points="643,503 643,495 635,495 635,503" style="fill:rgb(52,14,13)" />
<polygon points="514,504 514,496 506,496 506,504" style="fill:rgb(55,27,23)" />
<polygon points="591,509 591,501 583,501 583,509" style="fill:rgb(53,14,17)" />
<polygon points="609,509 609,501 601,501 601,509" style="fill:rgb(42,2,0)" />
<polygon points="619,510 619,502 611,502 611,510" style="fill:rgb(27,0,0)" />
<polygon points="528,511 527,504 520,505 521,512" style="fill:rgb(38,0,0)" />
<polygon points="536,515 535,508 528,509 529,516" style="fill:rgb(46,6,6)" />
<polygon points="882,527 884,521 878,519 876,525" style="fill:rgb(25,0,6)" />
<polygon points="895,527 897,521 891,519 889,525" style="fill:rgb(4,0,0)" />
<polygon points="904,532 906,526 900,524 898,530" style="fill:rgb(20,0,0)" />
<polygon points="868,533 870,527 864,525 862,531" style="fill:rgb(8,4,5)" />
<polygon points="842,534 844,528 838,526 836,532" style="fill:rgb(17,5,7)" />
<polygon points="853,534 855,528 849,526 847,532" style="fill:rgb(13,9,10)" />
<polygon points="827,535 829,529 823,527 821,533" style="fill:rgb(17,1,1)" />
<polygon points="885,535 887,529 881,527 879,533" style="fill:rgb(15,4,8)" />
<polygon points="879,535 878,528 871,529 872,536" style="fill:rgb(9,5,6)" />
<polygon points="894,536 896,530 890,528 888,534" style="fill:rgb(10,1,4)" />
<polygon points="914,535 913,528 906,529 907,536" style="fill:rgb(25,10,15)" />
<polygon points="793,541 795,535 789,533 787,539" style="fill:rgb(50,17,26)" />
<polygon points="808,541 810,535 804,533 802,539" style="fill:rgb(15,0,4)" />
<polygon points="860,541 862,535 856,533 854,539" style="fill:rgb(12,8,9)" />
<polygon points="902,541 904,535 898,533 896,539" style="fill:rgb(8,4,5)" />
<polygon points="788,541 787,534 780,535 781,542" style="fill:rgb(20,0,1)" />
<polygon points="801,542 803,536 797,534 795,540" style="fill:rgb(14,0,4)" />
<polygon points="834,542 836,536 830,534 828,540" style="fill:rgb(9,9,9)" />
<polygon points="845,542 847,536 841,534 839,540" style="fill:rgb(11,5,9)" />
<polygon points="869,542 871,536 865,534 863,540" style="fill:rgb(10,6,7)" />
<polygon points="819,543 821,537 815,535 813,541" style="fill:rgb(16,10,10)" />
<polygon points="776,543 775,536 768,537 769,544" style="fill:rgb(111,95,98)" />
<polygon points="878,544 880,538 874,536 872,542" style="fill:rgb(9,5,6)" />
<polygon points="887,544 889,538 883,536 881,542" style="fill:rgb(4,0,0)" />
<polygon points="911,545 910,538 903,539 904,546" style="fill:rgb(18,9,12)" />
<polygon points="766,548 768,542 762,540 760,546" style="fill:rgb(15,3,3)" />
<polygon points="853,547 852,540 845,541 846,548" style="fill:rgb(11,6,12)" />
<polygon points="813,548 812,541 805,542 806,549" style="fill:rgb(11,5,7)" />
<polygon points="897,549 897,541 889,541 889,549" style="fill:rgb(10,5,11)" />
<polygon points="728,550 730,544 724,542 722,548" style="fill:rgb(42,2,2)" />
<polygon points="789,550 789,542 781,542 781,550" style="fill:rgb(13,9,10)" />
<polygon points="828,550 828,542 820,542 820,550" style="fill:rgb(12,7,11)" />
<polygon points="839,550 839,542 831,542 831,550" style="fill:rgb(9,4,10)" />
<polygon points="862,550 862,542 854,542 854,550" style="fill:rgb(15,10,16)" />
<polygon points="799,551 799,543 791,543 791,551" style="fill:rgb(11,7,8)" />
<polygon points="777,552 777,544 769,544 769,552" style="fill:rgb(18,6,10)" />
<polygon points="872,552 872,544 864,544 864,552" style="fill:rgb(8,3,9)" />
<polygon points="883,552 883,544 875,544 875,552" style="fill:rgb(7,2,8)" />
<polygon points="917,551 916,544 909,545 910,552" style="fill:rgb(13,6,13)" />
<polygon points="1009,555 1011,549 1005,547 1003,553" style="fill:rgb(1,0,4)" />
<polygon points="690,557 692,551 686,549 684,555" style="fill:rgb(47,7,5)" />
<polygon points="705,557 707,551 701,549 699,555" style="fill:rgb(39,4,2)" />
<polygon points="1020,557 1022,551 1016,549 1014,555" style="fill:rgb(3,3,5)" />
<polygon points="678,558 680,552 674,550 672,556" style="fill:rgb(43,2,6)" />
<polygon points="721,558 723,552 717,550 715,556" style="fill:rgb(50,9,13)" />
<polygon points="922,558 924,552 918,550 916,556" style="fill:rgb(8,1,8)" />
<polygon points="932,559 934,553 928,551 926,557" style="fill:rgb(64,51,58)" />
<polygon points="672,559 671,552 664,553 665,560" style="fill:rgb(41,7,8)" />
<polygon points="713,560 715,554 709,552 707,558" style="fill:rgb(47,5,7)" />
<polygon points="628,563 630,557 624,555 622,561" style="fill:rgb(129,89,87)" />
<polygon points="696,563 698,557 692,555 690,561" style="fill:rgb(42,7,5)" />
<polygon points="1014,562 1013,555 1006,556 1007,563" style="fill:rgb(7,6,11)" />
<polygon points="637,564 639,558 633,556 631,562" style="fill:rgb(142,109,104)" />
<polygon points="659,565 661,559 655,557 653,563" style="fill:rgb(50,9,13)" />
<polygon points="686,564 685,557 678,558 679,565" style="fill:rgb(39,3,3)" />
<polygon points="726,565 728,559 722,557 720,563" style="fill:rgb(48,8,8)" />
<polygon points="616,566 618,560 612,558 610,564" style="fill:rgb(240,220,213)" />
<polygon points="651,565 650,558 643,559 644,566" style="fill:rgb(48,9,10)" />
<polygon points="705,566 707,560 701,558 699,564" style="fill:rgb(49,9,9)" />
<polygon points="938,566 940,560 934,558 932,564" style="fill:rgb(3,0,4)" />
<polygon points="948,566 950,560 944,558 942,564" style="fill:rgb(10,5,11)" />
<polygon points="958,566 960,560 954,558 952,564" style="fill:rgb(11,6,12)" />
<polygon points="678,566 677,559 670,560 671,567" style="fill:rgb(36,0,0)" />
<polygon points="720,566 719,559 712,560 713,567" style="fill:rgb(49,9,9)" />
<polygon points="919,567 921,561 915,559 913,565" style="fill:rgb(14,9,15)" />
<polygon points="928,568 930,562 924,560 922,566" style="fill:rgb(12,7,13)" />
<polygon points="669,568 668,561 661,562 662,569" style="fill:rgb(49,9,10)" />
<polygon points="1019,570 1019,562 1011,562 1011,570" style="fill:rgb(6,5,10)" />
<polygon points="690,571 692,565 686,563 684,569" style="fill:rgb(41,5,5)" />
<polygon points="623,572 625,566 619,564 617,570" style="fill:rgb(88,22,24)" />
<polygon points="640,572 642,566 636,564 634,570" style="fill:rgb(41,6,4)" />
<polygon points="599,573 601,567 595,565 593,571" style="fill:rgb(22,2,4)" />
<polygon points="634,572 633,565 626,566 627,573" style="fill:rgb(55,10,7)" />
<polygon points="585,574 587,568 581,566 579,572" style="fill:rgb(26,0,3)" />
<polygon points="612,573 611,566 604,567 605,574" style="fill:rgb(34,7,12)" />
<polygon points="650,574 652,568 646,566 644,572" style="fill:rgb(44,8,8)" />
<polygon points="683,573 682,566 675,567 676,574" style="fill:rgb(48,12,12)" />
<polygon points="699,574 701,568 695,566 693,572" style="fill:rgb(46,6,6)" />
<polygon points="708,574 710,568 704,566 702,572" style="fill:rgb(50,10,10)" />
<polygon points="726,573 725,566 718,567 719,574" style="fill:rgb(50,10,10)" />
<polygon points="941,574 943,568 937,566 935,572" style="fill:rgb(9,10,14)" />
<polygon points="953,574 953,566 945,566 945,574" style="fill:rgb(10,5,11)" />
<polygon points="580,574 579,567 572,568 573,575" style="fill:rgb(30,0,0)" />
<polygon points="659,575 661,569 655,567 653,573" style="fill:rgb(50,6,7)" />
<polygon points="932,575 934,569 928,567 926,573" style="fill:rgb(6,5,10)" />
<polygon points="674,575 673,568 666,569 667,576" style="fill:rgb(39,4,2)" />
<polygon points="919,576 921,570 915,568 913,574" style="fill:rgb(8,3,9)" />
<polygon points="718,578 718,570 710,570 710,578" style="fill:rgb(48,8,8)" />
<polygon points="561,580 563,574 557,572 555,578" style="fill:rgb(39,11,8)" />
<polygon points="691,580 691,572 683,572 683,580" style="fill:rgb(40,4,4)" />
<polygon points="569,581 571,575 565,573 563,579" style="fill:rgb(41,17,17)" />
<polygon points="594,580 593,573 586,574 587,581" style="fill:rgb(18,6,6)" />
<polygon points="554,581 553,574 546,575 547,582" style="fill:rgb(41,7,8)" />
<polygon points="765,582 767,576 761,574 759,580" style="fill:rgb(13,4,7)" />
<polygon points="579,583 581,577 575,575 573,581" style="fill:rgb(47,15,16)" />
<polygon points="925,583 927,577 921,575 919,581" style="fill:rgb(9,5,6)" />
<polygon points="935,583 937,577 931,575 929,581" style="fill:rgb(11,6,12)" />
<polygon points="745,584 747,578 741,576 739,582" style="fill:rgb(31,1,1)" />
<polygon points="754,584 756,578 750,576 748,582" style="fill:rgb(27,2,5)" />
<polygon points="946,584 946,576 938,576 938,584" style="fill:rgb(7,2,8)" />
<polygon points="560,589 560,581 552,581 552,589" style="fill:rgb(55,7,7)" />
<polygon points="595,588 594,581 587,582 588,589" style="fill:rgb(21,3,3)" />
<polygon points="570,590 570,582 562,582 562,590" style="fill:rgb(41,0,0)" />
<polygon points="584,591 584,583 576,583 576,591" style="fill:rgb(36,0,0)" />
<polygon points="761,591 763,585 757,583 755,589" style="fill:rgb(15,3,7)" />
<polygon points="919,591 921,585 915,583 913,589" style="fill:rgb(8,4,5)" />
<polygon points="928,591 930,585 924,583 922,589" style="fill:rgb(11,7,8)" />
<polygon points="748,592 750,586 744,584 742,590" style="fill:rgb(32,3,5)" />
<polygon points="939,593 938,586 931,587 932,594" style="fill:rgb(8,3,9)" />
<polygon points="754,599 756,593 750,591 748,597" style="fill:rgb(23,12,16)" />
<polygon points="764,599 766,593 760,591 758,597" style="fill:rgb(6,2,3)" />
<polygon points="924,599 924,591 916,591 916,599" style="fill:rgb(7,2,8)" />
<polygon points="944,601 944,593 936,593 936,601" style="fill:rgb(14,9,15)" />
<polygon points="934,603 934,595 926,595 926,603" style="fill:rgb(9,4,10)" />
<polygon points="1020,604 1022,598 1016,596 1014,602" style="fill:rgb(8,7,12)" />
<polygon points="747,607 749,601 743,599 741,605" style="fill:rgb(28,3,7)" />
<polygon points="757,607 759,601 753,599 751,605" style="fill:rgb(12,1,5)" />
<polygon points="765,612 767,606 761,604 759,610" style="fill:rgb(10,6,7)" />
<polygon points="1012,612 1014,606 1008,604 1006,610" style="fill:rgb(6,5,10)" />
<polygon points="954,613 956,607 950,605 948,611" style="fill:rgb(5,4,10)" />
<polygon points="750,615 752,609 746,607 744,613" style="fill:rgb(29,4,7)" />
<polygon points="1022,616 1021,609 1014,610 1015,617" style="fill:rgb(7,6,11)" />
<polygon points="758,620 760,614 754,612 752,618" style="fill:rgb(15,3,7)" />
<polygon points="963,619 962,612 955,613 956,620" style="fill:rgb(8,7,13)" />
<polygon points="1008,621 1008,613 1000,613 1000,621" style="fill:rgb(5,4,9)" />
<polygon points="747,624 749,618 743,616 741,622" style="fill:rgb(33,7,8)" />
<polygon points="543,625 542,618 535,619 536,626" style="fill:rgb(43,7,7)" />
<polygon points="967,626 969,620 963,618 961,624" style="fill:rgb(6,5,13)" />
<polygon points="763,627 765,621 759,619 757,625" style="fill:rgb(10,4,6)" />
<polygon points="954,627 956,621 950,619 948,625" style="fill:rgb(6,5,11)" />
<polygon points="756,628 755,621 748,622 749,629" style="fill:rgb(22,5,11)" />
<polygon points="533,632 535,626 529,624 527,630" style="fill:rgb(46,10,10)" />
<polygon points="976,632 975,625 968,626 969,633" style="fill:rgb(3,2,7)" />
<polygon points="962,633 961,626 954,627 955,634" style="fill:rgb(2,1,6)" />
<polygon points="542,635 544,629 538,627 536,633" style="fill:rgb(45,9,9)" />
<polygon points="747,636 749,630 743,628 741,634" style="fill:rgb(25,0,0)" />
<polygon points="760,636 762,630 756,628 754,634" style="fill:rgb(14,5,8)" />
<polygon points="984,639 984,631 976,631 976,639" style="fill:rgb(3,4,8)" />
<polygon points="593,642 595,636 589,634 587,640" style="fill:rgb(39,7,12)" />
<polygon points="765,643 767,637 761,635 759,641" style="fill:rgb(10,4,8)" />
<polygon points="921,643 921,635 913,635 913,643" style="fill:rgb(8,3,9)" />
<polygon points="541,644 543,638 537,636 535,642" style="fill:rgb(45,9,9)" />
<polygon points="750,644 752,638 746,636 744,642" style="fill:rgb(35,13,16)" />
<polygon points="550,645 552,639 546,637 544,643" style="fill:rgb(39,3,3)" />
<polygon points="559,645 561,639 555,637 553,643" style="fill:rgb(45,9,9)" />
<polygon points="568,645 570,639 564,637 562,643" style="fill:rgb(56,16,16)" />
<polygon points="577,645 579,639 573,637 571,643" style="fill:rgb(66,18,16)" />
<polygon points="585,648 587,642 581,640 579,646" style="fill:rgb(46,0,0)" />
<polygon points="757,649 759,643 753,641 751,647" style="fill:rgb(16,6,7)" />
<polygon points="562,653 564,647 558,645 556,651" style="fill:rgb(44,8,8)" />
<polygon points="571,653 573,647 567,645 565,651" style="fill:rgb(55,11,8)" />
<polygon points="593,653 595,647 589,645 587,651" style="fill:rgb(46,4,6)" />
<polygon points="747,653 749,647 743,645 741,651" style="fill:rgb(31,4,11)" />
<polygon points="921,653 921,645 913,645 913,653" style="fill:rgb(8,3,9)" />
<polygon points="765,654 767,648 761,646 759,652" style="fill:rgb(7,2,6)" />
<polygon points="580,657 582,651 576,649 574,655" style="fill:rgb(61,13,11)" />
<polygon points="755,658 757,652 751,650 749,656" style="fill:rgb(16,2,2)" />
<polygon points="590,661 589,654 582,655 583,662" style="fill:rgb(39,0,0)" />
<polygon points="747,662 749,656 743,654 741,660" style="fill:rgb(29,4,8)" />
<polygon points="763,663 765,657 759,655 757,661" style="fill:rgb(10,5,9)" />
<polygon points="921,663 921,655 913,655 913,663" style="fill:rgb(6,5,10)" />
<polygon points="502,664 504,658 498,656 496,662" style="fill:rgb(88,36,25)" />
<polygon points="581,666 581,658 573,658 573,666" style="fill:rgb(59,9,8)" />
<polygon points="755,667 757,661 751,659 749,665" style="fill:rgb(22,3,5)" />
<polygon points="494,669 496,663 490,661 488,667" style="fill:rgb(88,27,6)" />
<polygon points="595,668 594,661 587,662 588,669" style="fill:rgb(45,5,5)" />
<polygon points="747,671 749,665 743,663 741,669" style="fill:rgb(33,7,10)" />
<polygon points="763,672 765,666 759,664 757,670" style="fill:rgb(10,4,8)" />
<polygon points="921,673 921,665 913,665 913,673" style="fill:rgb(5,4,9)" />
<polygon points="755,676 757,670 751,668 749,674" style="fill:rgb(13,1,5)" />
<polygon points="495,678 495,670 487,670 487,678" style="fill:rgb(75,22,8)" />
<polygon points="747,680 749,674 743,672 741,678" style="fill:rgb(37,8,10)" />
<polygon points="763,681 765,675 759,673 757,679" style="fill:rgb(8,2,4)" />
<polygon points="921,683 921,675 913,675 913,683" style="fill:rgb(6,5,10)" />
<polygon points="755,685 757,679 751,677 749,683" style="fill:rgb(20,8,12)" />
<polygon points="747,689 749,683 743,681 741,687" style="fill:rgb(31,5,8)" />
<polygon points="763,690 765,684 759,682 757,688" style="fill:rgb(11,2,5)" />
<polygon points="921,693 921,685 913,685 913,693" style="fill:rgb(3,2,7)" />
<polygon points="755,694 757,688 751,686 749,692" style="fill:rgb(16,5,9)" />
<polygon points="1020,695 1022,689 1016,687 1014,693" style="fill:rgb(0,4,7)" />
<polygon points="990,697 990,689 982,689 982,697" style="fill:rgb(2,3,7)" />
<polygon points="1000,697 1000,689 992,689 992,697" style="fill:rgb(1,4,13)" />
<polygon points="1010,697 1010,689 1002,689 1002,697" style="fill:rgb(3,6,13)" />
<polygon points="747,698 749,692 743,690 741,696" style="fill:rgb(30,4,7)" />
<polygon points="768,697 767,690 760,691 761,698" style="fill:rgb(13,9,10)" />
<polygon points="760,702 760,694 752,694 752,702" style="fill:rgb(9,0,3)" />
<polygon points="920,703 920,695 912,695 912,703" style="fill:rgb(3,2,7)" />
<polygon points="593,704 595,698 589,696 587,702" style="fill:rgb(36,4,7)" />
<polygon points="1021,704 1021,696 1013,696 1013,704" style="fill:rgb(2,6,9)" />
<polygon points="800,706 800,698 792,698 792,706" style="fill:rgb(10,6,7)" />
<polygon points="852,706 852,698 844,698 844,706" style="fill:rgb(5,4,9)" />
<polygon points="904,706 904,698 896,698 896,706" style="fill:rgb(0,0,4)" />
<polygon points="473,708 475,702 469,700 467,706" style="fill:rgb(36,8,5)" />
<polygon points="951,708 953,702 947,700 945,706" style="fill:rgb(0,0,4)" />
<polygon points="960,708 962,702 956,700 954,706" style="fill:rgb(4,2,5)" />
<polygon points="455,709 457,703 451,701 449,707" style="fill:rgb(27,0,0)" />
<polygon points="464,710 466,704 460,702 458,708" style="fill:rgb(39,9,11)" />
<polygon points="588,713 590,707 584,705 582,711" style="fill:rgb(39,5,4)" />
<polygon points="1021,714 1021,706 1013,706 1013,714" style="fill:rgb(1,2,6)" />
<polygon points="965,715 967,709 961,707 959,713" style="fill:rgb(8,2,6)" />
<polygon points="472,716 471,709 464,710 465,717" style="fill:rgb(35,5,3)" />
<polygon points="955,717 957,711 951,709 949,715" style="fill:rgb(8,2,6)" />
<polygon points="595,719 594,712 587,713 588,720" style="fill:rgb(38,6,9)" />
<polygon points="582,722 584,716 578,714 576,720" style="fill:rgb(42,6,6)" />
<polygon points="480,724 480,716 472,716 472,724" style="fill:rgb(38,0,0)" />
<polygon points="959,724 961,718 955,716 953,722" style="fill:rgb(10,1,4)" />
<polygon points="1021,724 1021,716 1013,716 1013,724" style="fill:rgb(2,3,7)" />
<polygon points="9,725 9,717 1,717 1,725" style="fill:rgb(48,15,22)" />
<polygon points="596,728 596,720 588,720 588,728" style="fill:rgb(37,5,8)" />
<polygon points="965,730 967,724 961,722 959,728" style="fill:rgb(8,2,6)" />
<polygon points="955,733 957,727 951,725 949,731" style="fill:rgb(7,2,8)" />
<polygon points="1021,734 1021,726 1013,726 1013,734" style="fill:rgb(4,5,9)" />
<polygon points="7,735 9,729 3,727 1,733" style="fill:rgb(48,9,14)" />
<polygon points="961,739 963,733 957,731 955,737" style="fill:rgb(2,0,5)" />
<polygon points="12,742 14,736 8,734 6,740" style="fill:rgb(35,3,6)" />
<polygon points="1019,744 1021,738 1015,736 1013,742" style="fill:rgb(0,0,4)" />
<polygon points="955,747 957,741 951,739 949,745" style="fill:rgb(1,0,4)" />
<polygon points="964,747 966,741 960,739 958,745" style="fill:rgb(5,3,8)" />
<polygon points="567,749 569,743 563,741 561,747" style="fill:rgb(37,5,10)" />
<polygon points="7,751 9,745 3,743 1,749" style="fill:rgb(45,15,17)" />
<polygon points="526,751 528,745 522,743 520,749" style="fill:rgb(47,17,15)" />
<polygon points="973,751 975,745 969,743 967,749" style="fill:rgb(5,6,10)" />
<polygon points="982,751 984,745 978,743 976,749" style="fill:rgb(3,4,8)" />
<polygon points="991,751 993,745 987,743 985,749" style="fill:rgb(4,5,9)" />
<polygon points="1000,751 1002,745 996,743 994,749" style="fill:rgb(0,1,6)" />
<polygon points="1009,751 1011,745 1005,743 1003,749" style="fill:rgb(2,6,9)" />
<polygon points="1018,753 1020,747 1014,745 1012,751" style="fill:rgb(4,5,9)" />
<polygon points="18,753 17,746 10,747 11,754" style="fill:rgb(31,2,4)" />
<polygon points="798,754 800,748 794,746 792,752" style="fill:rgb(7,2,8)" />
<polygon points="850,754 852,748 846,746 844,752" style="fill:rgb(10,5,11)" />
<polygon points="904,753 903,746 896,747 897,754" style="fill:rgb(6,5,10)" />
<polygon points="958,755 960,749 954,747 952,753" style="fill:rgb(10,0,8)" />
<polygon points="534,756 536,750 530,748 528,754" style="fill:rgb(44,12,15)" />
<polygon points="564,757 563,750 556,751 557,758" style="fill:rgb(37,7,9)" />
<polygon points="747,758 749,752 743,750 741,756" style="fill:rgb(28,6,8)" />
<polygon points="756,758 758,752 752,750 750,756" style="fill:rgb(17,2,5)" />
<polygon points="765,758 767,752 761,750 759,756" style="fill:rgb(8,4,5)" />
<polygon points="774,758 776,752 770,750 768,756" style="fill:rgb(6,2,3)" />
<polygon points="783,758 785,752 779,750 777,756" style="fill:rgb(8,4,5)" />
<polygon points="807,758 809,752 803,750 801,756" style="fill:rgb(12,8,9)" />
<polygon points="816,758 818,752 812,750 810,756" style="fill:rgb(4,0,1)" />
<polygon points="825,758 827,752 821,750 819,756" style="fill:rgb(0,0,4)" />
<polygon points="834,758 836,752 830,750 828,756" style="fill:rgb(0,0,4)" />
<polygon points="859,758 861,752 855,750 853,756" style="fill:rgb(5,4,9)" />
<polygon points="868,758 870,752 864,750 862,756" style="fill:rgb(0,0,4)" />
<polygon points="877,758 879,752 873,750 871,756" style="fill:rgb(11,10,15)" />
<polygon points="886,758 888,752 882,750 880,756" style="fill:rgb(3,4,8)" />
<polygon points="966,759 968,753 962,751 960,757" style="fill:rgb(6,1,5)" />
<polygon points="976,759 978,753 972,751 970,757" style="fill:rgb(6,1,5)" />
<polygon points="985,759 987,753 981,751 979,757" style="fill:rgb(4,4,6)" />
<polygon points="994,759 996,753 990,751 988,757" style="fill:rgb(5,5,7)" />
<polygon points="1003,759 1005,753 999,751 997,757" style="fill:rgb(5,4,9)" />
<polygon points="7,760 9,754 3,752 1,758" style="fill:rgb(38,8,10)" />
<polygon points="542,760 544,754 538,752 536,758" style="fill:rgb(37,5,8)" />
<polygon points="911,760 913,754 907,752 905,758" style="fill:rgb(0,0,2)" />
<polygon points="920,760 922,754 916,752 914,758" style="fill:rgb(8,3,9)" />
<polygon points="929,760 931,754 925,752 923,758" style="fill:rgb(10,1,4)" />
<polygon points="938,760 940,754 934,752 932,758" style="fill:rgb(10,1,2)" />
<polygon points="947,760 949,754 943,752 941,758" style="fill:rgb(7,1,1)" />
<polygon points="895,761 897,755 891,753 889,759" style="fill:rgb(2,3,7)" />
<polygon points="1012,761 1014,755 1008,753 1006,759" style="fill:rgb(2,6,9)" />
<polygon points="793,762 793,754 785,754 785,762" style="fill:rgb(9,5,6)" />
<polygon points="844,762 844,754 836,754 836,762" style="fill:rgb(0,0,4)" />
<polygon points="18,763 18,755 10,755 10,763" style="fill:rgb(37,7,9)" />
<polygon points="957,764 957,756 949,756 949,764" style="fill:rgb(8,2,2)" />
<polygon points="569,765 569,757 561,757 561,765" style="fill:rgb(38,4,3)" />
<polygon points="552,766 552,758 544,758 544,766" style="fill:rgb(33,3,5)" />
<polygon points="752,766 752,758 744,758 744,766" style="fill:rgb(28,8,9)" />
<polygon points="770,766 770,758 762,758 762,766" style="fill:rgb(8,3,7)" />
<polygon points="803,766 803,758 795,758 795,766" style="fill:rgb(9,5,6)" />
<polygon points="821,766 821,758 813,758 813,766" style="fill:rgb(8,7,12)" />
<polygon points="854,766 854,758 846,758 846,766" style="fill:rgb(5,4,9)" />
<polygon points="864,766 864,758 856,758 856,766" style="fill:rgb(5,4,9)" />
<polygon points="882,766 882,758 874,758 874,766" style="fill:rgb(4,3,8)" />
<polygon points="1022,766 1022,758 1014,758 1014,766" style="fill:rgb(2,6,9)" />
</svg>