<svg xmlns="http://www.w3.org/2000/svg" version="1.1" width="502" height="600">
<rect width="502" height="600" style="fill:rgb(255,255,255)"/><polygon points="138,138 138,24 24,24 24,138" style="fill:rgb(210,214,217)" />
<polygon points="138,276 138,162 24,162 24,276" style="fill:rgb(210,214,217)" />
<polygon points="430,69 430,13 374,13 374,69" style="fill:rgb(203,209,212)" />
<polygon points="470,127 470,71 414,71 414,127" style="fill:rgb(203,209,212)" />
<polygon points="444,196 444,140 388,140 388,196" style="fill:rgb(203,209,212)" />
<polygon points="456,266 496,226 456,186 416,226" style="fill:rgb(203,209,212)" />
<polygon points="423,314 423,258 367,258 367,314" style="fill:rgb(203,209,212)" />
<polygon points="69,345 69,289 13,289 13,345" style="fill:rgb(203,209,212)" />
<polygon points="488,371 488,315 432,315 432,371" style="fill:rgb(203,209,212)" />
<polygon points="490,437 490,381 434,381 434,437" style="fill:rgb(203,209,212)" />
<polygon points="482,52 482,10 440,10 440,52" style="fill:rgb(134,143,152)" />
<polygon points="190,278 190,236 148,236 148,278" style="fill:rgb(134,143,152)" />
<polygon points="121,328 121,286 79,286 79,328" style="fill:rgb(134,143,152)" />
<polygon points="52,397 52,355 10,355 10,397" style="fill:rgb(134,143,152)" />
<polygon points="490,489 490,447 448,447 448,489" style="fill:rgb(134,143,152)" />
<polygon points="471,312 501,282 471,252 441,282" style="fill:rgb(134,143,152)" />
<polygon points="486,544 497,503 456,492 445,533" style="fill:rgb(134,143,152)" />
<polygon points="182,44 182,8 146,8 146,44" style="fill:rgb(123,133,138)" />
<polygon points="493,167 493,131 457,131 457,167" style="fill:rgb(123,133,138)" />
<polygon points="410,240 410,204 374,204 374,240" style="fill:rgb(123,133,138)" />
<polygon points="44,441 44,405 8,405 8,441" style="fill:rgb(123,133,138)" />
<polygon points="169,93 187,63 157,45 139,75" style="fill:rgb(123,133,138)" />
<polygon points="395,118 413,88 383,70 365,100" style="fill:rgb(123,133,138)" />
<polygon points="413,363 431,333 401,315 383,345" style="fill:rgb(123,133,138)" />
<polygon points="501,573 483,543 453,561 471,591" style="fill:rgb(123,133,138)" />
<polygon points="34,485 44,451 10,441 0,475" style="fill:rgb(123,133,138)" />
<polygon points="40,594 40,558 4,558 4,594" style="fill:rgb(123,133,138)" />
<polygon points="156,313 156,285 128,285 128,313" style="fill:rgb(41,86,143)" />
<polygon points="35,519 35,491 7,491 7,519" style="fill:rgb(41,86,143)" />
<polygon points="175,220 168,193 141,200 148,227" style="fill:rgb(41,86,143)" />
<polygon points="155,166 169,142 145,128 131,152" style="fill:rgb(41,86,143)" />
<polygon points="29,555 36,528 9,521 2,548" style="fill:rgb(41,86,143)" />
<polygon points="501,78 494,51 467,58 474,85" style="fill:rgb(41,86,143)" />
<polygon points="498,197 498,169 470,169 470,197" style="fill:rgb(41,86,143)" />
<polygon points="499,114 499,86 471,86 471,114" style="fill:rgb(41,86,143)" />
<polygon points="11,14 14,5 5,2 2,11" style="fill:rgb(71,113,165)" />
<polygon points="26,13 26,3 16,3 16,13" style="fill:rgb(71,113,165)" />
<polygon points="39,13 39,3 29,3 29,13" style="fill:rgb(71,113,165)" />
<polygon points="52,13 52,3 42,3 42,13" style="fill:rgb(71,113,165)" />
<polygon points="65,13 65,3 55,3 55,13" style="fill:rgb(71,113,165)" />
<polygon points="78,13 78,3 68,3 68,13" style="fill:rgb(71,113,165)" />
<polygon points="91,13 91,3 81,3 81,13" style="fill:rgb(71,113,165)" />
<polygon points="104,13 104,3 94,3 94,13" style="fill:rgb(71,113,165)" />
<polygon points="117,13 117,3 107,3 107,13" style="fill:rgb(71,113,165)" />
<polygon points="130,13 130,3 120,3 120,13" style="fill:rgb(71,113,165)" />
<polygon points="143,13 143,3 133,3 133,13" style="fill:rgb(71,113,165)" />
<polygon points="195,13 195,3 185,3 185,13" style="fill:rgb(71,113,165)" />
<polygon points="360,13 360,3 350,3 350,13" style="fill:rgb(71,113,165)" />
<polygon points="373,13 373,3 363,3 363,13" style="fill:rgb(71,113,165)" />
<polygon points="493,13 493,3 483,3 483,13" style="fill:rgb(71,113,165)" />
<polygon points="13,26 13,16 3,16 3,26" style="fill:rgb(71,113,165)" />
<polygon points="195,26 195,16 185,16 185,26" style="fill:rgb(71,113,165)" />
<polygon points="368,26 368,16 358,16 358,26" style="fill:rgb(71,113,165)" />
<polygon points="495,26 495,16 485,16 485,26" style="fill:rgb(71,113,165)" />
<polygon points="21,37 19,27 9,29 11,39" style="fill:rgb(71,113,165)" />
<polygon points="495,39 495,29 485,29 485,39" style="fill:rgb(71,113,165)" />
<polygon points="21,49 19,39 9,41 11,51" style="fill:rgb(71,113,165)" />
<polygon points="21,61 19,51 9,53 11,63" style="fill:rgb(71,113,165)" />
<polygon points="443,65 443,55 433,55 433,65" style="fill:rgb(71,113,165)" />
<polygon points="456,65 456,55 446,55 446,65" style="fill:rgb(71,113,165)" />
<polygon points="21,73 19,63 9,65 11,75" style="fill:rgb(71,113,165)" />
<polygon points="21,85 19,75 9,77 11,87" style="fill:rgb(71,113,165)" />
<polygon points="149,97 152,88 143,85 140,94" style="fill:rgb(71,113,165)" />
<polygon points="183,98 186,89 177,86 174,95" style="fill:rgb(71,113,165)" />
<polygon points="21,97 19,87 9,89 11,99" style="fill:rgb(71,113,165)" />
<polygon points="160,103 163,94 154,91 151,100" style="fill:rgb(71,113,165)" />
<polygon points="173,108 173,98 163,98 163,108" style="fill:rgb(71,113,165)" />
<polygon points="21,109 19,99 9,101 11,111" style="fill:rgb(71,113,165)" />
<polygon points="151,113 151,103 141,103 141,113" style="fill:rgb(71,113,165)" />
<polygon points="21,121 19,111 9,113 11,123" style="fill:rgb(71,113,165)" />
<polygon points="409,123 412,114 403,111 400,120" style="fill:rgb(71,113,165)" />
<polygon points="483,127 483,117 473,117 473,127" style="fill:rgb(71,113,165)" />
<polygon points="496,127 496,117 486,117 486,127" style="fill:rgb(71,113,165)" />
<polygon points="21,133 19,123 9,125 11,135" style="fill:rgb(71,113,165)" />
<polygon points="409,135 409,125 399,125 399,135" style="fill:rgb(71,113,165)" />
<polygon points="18,147 21,138 12,135 9,144" style="fill:rgb(71,113,165)" />
<polygon points="33,151 33,141 23,141 23,151" style="fill:rgb(71,113,165)" />
<polygon points="46,151 46,141 36,141 36,151" style="fill:rgb(71,113,165)" />
<polygon points="59,151 59,141 49,141 49,151" style="fill:rgb(71,113,165)" />
<polygon points="72,151 72,141 62,141 62,151" style="fill:rgb(71,113,165)" />
<polygon points="85,151 85,141 75,141 75,151" style="fill:rgb(71,113,165)" />
<polygon points="98,151 98,141 88,141 88,151" style="fill:rgb(71,113,165)" />
<polygon points="111,151 111,141 101,141 101,151" style="fill:rgb(71,113,165)" />
<polygon points="124,151 124,141 114,141 114,151" style="fill:rgb(71,113,165)" />
<polygon points="13,158 13,148 3,148 3,158" style="fill:rgb(71,113,165)" />
<polygon points="385,169 385,159 375,159 375,169" style="fill:rgb(71,113,165)" />
<polygon points="13,171 13,161 3,161 3,171" style="fill:rgb(71,113,165)" />
<polygon points="149,178 152,169 143,166 140,175" style="fill:rgb(71,113,165)" />
<polygon points="457,180 457,170 447,170 447,180" style="fill:rgb(71,113,165)" />
<polygon points="161,183 164,174 155,171 152,180" style="fill:rgb(71,113,165)" />
<polygon points="21,182 19,172 9,174 11,184" style="fill:rgb(71,113,165)" />
<polygon points="383,187 386,178 377,175 374,184" style="fill:rgb(71,113,165)" />
<polygon points="151,191 151,181 141,181 141,191" style="fill:rgb(71,113,165)" />
<polygon points="21,194 19,184 9,186 11,196" style="fill:rgb(71,113,165)" />
<polygon points="378,199 378,189 368,189 368,199" style="fill:rgb(71,113,165)" />
<polygon points="21,206 19,196 9,198 11,208" style="fill:rgb(71,113,165)" />
<polygon points="423,209 423,199 413,199 413,209" style="fill:rgb(71,113,165)" />
<polygon points="495,210 495,200 485,200 485,210" style="fill:rgb(71,113,165)" />
<polygon points="21,218 19,208 9,210 11,220" style="fill:rgb(71,113,165)" />
<polygon points="21,230 19,220 9,222 11,232" style="fill:rgb(71,113,165)" />
<polygon points="182,232 182,222 172,222 172,232" style="fill:rgb(71,113,165)" />
<polygon points="493,244 500,237 493,230 486,237" style="fill:rgb(71,113,165)" />
<polygon points="21,242 19,232 9,234 11,244" style="fill:rgb(71,113,165)" />
<polygon points="424,247 422,237 412,239 414,249" style="fill:rgb(71,113,165)" />
<polygon points="378,253 378,243 368,243 368,253" style="fill:rgb(71,113,165)" />
<polygon points="391,253 391,243 381,243 381,253" style="fill:rgb(71,113,165)" />
<polygon points="404,253 404,243 394,243 394,253" style="fill:rgb(71,113,165)" />
<polygon points="21,254 19,244 9,246 11,256" style="fill:rgb(71,113,165)" />
<polygon points="489,255 489,245 479,245 479,255" style="fill:rgb(71,113,165)" />
<polygon points="431,257 431,247 421,247 421,257" style="fill:rgb(71,113,165)" />
<polygon points="21,266 19,256 9,258 11,268" style="fill:rgb(71,113,165)" />
<polygon points="203,268 203,258 193,258 193,268" style="fill:rgb(71,113,165)" />
<polygon points="445,268 443,258 433,260 435,270" style="fill:rgb(71,113,165)" />
<polygon points="21,278 19,268 9,270 11,280" style="fill:rgb(71,113,165)" />
<polygon points="203,281 203,271 193,271 193,281" style="fill:rgb(71,113,165)" />
<polygon points="436,282 436,272 426,272 426,282" style="fill:rgb(71,113,165)" />
<polygon points="167,292 170,283 161,280 158,289" style="fill:rgb(71,113,165)" />
<polygon points="182,291 182,281 172,281 172,291" style="fill:rgb(71,113,165)" />
<polygon points="195,294 195,284 185,284 185,294" style="fill:rgb(71,113,165)" />
<polygon points="436,295 439,286 430,283 427,292" style="fill:rgb(71,113,165)" />
<polygon points="362,296 365,287 356,284 353,293" style="fill:rgb(71,113,165)" />
<polygon points="493,305 500,298 493,291 486,298" style="fill:rgb(71,113,165)" />
<polygon points="169,304 169,294 159,294 159,304" style="fill:rgb(71,113,165)" />
<polygon points="447,303 445,293 435,295 437,305" style="fill:rgb(71,113,165)" />
<polygon points="355,308 358,299 349,296 346,305" style="fill:rgb(71,113,165)" />
<polygon points="365,316 363,306 353,308 355,318" style="fill:rgb(71,113,165)" />
<polygon points="134,326 134,316 124,316 124,326" style="fill:rgb(71,113,165)" />
<polygon points="369,328 372,319 363,316 360,325" style="fill:rgb(71,113,165)" />
<polygon points="384,327 384,317 374,317 374,327" style="fill:rgb(71,113,165)" />
<polygon points="380,340 380,330 370,330 370,340" style="fill:rgb(71,113,165)" />
<polygon points="80,342 83,333 74,330 71,339" style="fill:rgb(71,113,165)" />
<polygon points="95,341 95,331 85,331 85,341" style="fill:rgb(71,113,165)" />
<polygon points="108,341 108,331 98,331 98,341" style="fill:rgb(71,113,165)" />
<polygon points="80,354 80,344 70,344 70,354" style="fill:rgb(71,113,165)" />
<polygon points="63,358 63,348 53,348 53,358" style="fill:rgb(71,113,165)" />
<polygon points="77,366 75,356 65,358 67,368" style="fill:rgb(71,113,165)" />
<polygon points="427,368 430,359 421,356 418,365" style="fill:rgb(71,113,165)" />
<polygon points="65,375 65,365 55,365 55,375" style="fill:rgb(71,113,165)" />
<polygon points="429,380 429,370 419,370 419,380" style="fill:rgb(71,113,165)" />
<polygon points="446,450 446,440 436,440 436,450" style="fill:rgb(71,113,165)" />
<polygon points="460,550 460,540 450,540 450,550" style="fill:rgb(71,113,165)" />
<polygon points="498,591 498,581 488,581 488,591" style="fill:rgb(71,113,165)" />
<polygon points="205,10 205,2 197,2 197,10" style="fill:rgb(171,149,132)" />
<polygon points="383,10 383,2 375,2 375,10" style="fill:rgb(171,149,132)" />
<polygon points="393,10 393,2 385,2 385,10" style="fill:rgb(171,149,132)" />
<polygon points="403,10 403,2 395,2 395,10" style="fill:rgb(171,149,132)" />
<polygon points="413,10 413,2 405,2 405,10" style="fill:rgb(171,149,132)" />
<polygon points="423,10 423,2 415,2 415,10" style="fill:rgb(171,149,132)" />
<polygon points="433,10 433,2 425,2 425,10" style="fill:rgb(171,149,132)" />
<polygon points="23,23 23,15 15,15 15,23" style="fill:rgb(171,149,132)" />
<polygon points="142,23 142,15 134,15 134,23" style="fill:rgb(171,149,132)" />
<polygon points="370,36 370,28 362,28 362,36" style="fill:rgb(171,149,132)" />
<polygon points="10,45 9,38 2,39 3,46" style="fill:rgb(171,149,132)" />
<polygon points="372,46 372,38 364,38 364,46" style="fill:rgb(171,149,132)" />
<polygon points="492,49 492,41 484,41 484,49" style="fill:rgb(171,149,132)" />
<polygon points="148,54 148,46 140,46 140,54" style="fill:rgb(171,149,132)" />
<polygon points="183,54 183,46 175,46 175,54" style="fill:rgb(171,149,132)" />
<polygon points="10,57 9,50 2,51 3,58" style="fill:rgb(171,149,132)" />
<polygon points="466,62 466,54 458,54 458,62" style="fill:rgb(171,149,132)" />
<polygon points="10,69 9,62 2,63 3,70" style="fill:rgb(171,149,132)" />
<polygon points="374,79 374,71 366,71 366,79" style="fill:rgb(171,149,132)" />
<polygon points="409,79 409,71 401,71 401,79" style="fill:rgb(171,149,132)" />
<polygon points="10,81 9,74 2,75 3,82" style="fill:rgb(171,149,132)" />
<polygon points="10,93 9,86 2,87 3,94" style="fill:rgb(171,149,132)" />
<polygon points="10,105 9,98 2,99 3,106" style="fill:rgb(171,149,132)" />
<polygon points="183,107 183,99 175,99 175,107" style="fill:rgb(171,149,132)" />
<polygon points="161,112 161,104 153,104 153,112" style="fill:rgb(171,149,132)" />
<polygon points="374,116 374,108 366,108 366,116" style="fill:rgb(171,149,132)" />
<polygon points="10,117 9,110 2,111 3,118" style="fill:rgb(171,149,132)" />
<polygon points="148,123 148,115 140,115 140,123" style="fill:rgb(171,149,132)" />
<polygon points="10,129 9,122 2,123 3,130" style="fill:rgb(171,149,132)" />
<polygon points="419,137 419,129 411,129 411,137" style="fill:rgb(171,149,132)" />
<polygon points="429,137 429,129 421,129 421,137" style="fill:rgb(171,149,132)" />
<polygon points="439,137 439,129 431,129 431,137" style="fill:rgb(171,149,132)" />
<polygon points="449,137 449,129 441,129 441,137" style="fill:rgb(171,149,132)" />
<polygon points="10,139 10,131 2,131 2,139" style="fill:rgb(171,149,132)" />
<polygon points="454,147 454,139 446,139 446,147" style="fill:rgb(171,149,132)" />
<polygon points="454,157 454,149 446,149 446,157" style="fill:rgb(171,149,132)" />
<polygon points="130,160 130,152 122,152 122,160" style="fill:rgb(171,149,132)" />
<polygon points="23,161 23,153 15,153 15,161" style="fill:rgb(171,149,132)" />
<polygon points="454,167 454,159 446,159 446,167" style="fill:rgb(171,149,132)" />
<polygon points="467,177 467,169 459,169 459,177" style="fill:rgb(171,149,132)" />
<polygon points="468,187 468,179 460,179 460,187" style="fill:rgb(171,149,132)" />
<polygon points="169,187 168,180 161,181 162,188" style="fill:rgb(171,149,132)" />
<polygon points="10,190 9,183 2,184 3,191" style="fill:rgb(171,149,132)" />
<polygon points="161,193 161,185 153,185 153,193" style="fill:rgb(171,149,132)" />
<polygon points="10,202 9,195 2,196 3,203" style="fill:rgb(171,149,132)" />
<polygon points="433,206 433,198 425,198 425,206" style="fill:rgb(171,149,132)" />
<polygon points="10,214 9,207 2,208 3,215" style="fill:rgb(171,149,132)" />
<polygon points="420,219 420,211 412,211 412,219" style="fill:rgb(171,149,132)" />
<polygon points="10,226 9,219 2,220 3,227" style="fill:rgb(171,149,132)" />
<polygon points="169,232 169,224 161,224 161,232" style="fill:rgb(171,149,132)" />
<polygon points="146,238 148,232 142,230 140,236" style="fill:rgb(171,149,132)" />
<polygon points="10,238 9,231 2,232 3,239" style="fill:rgb(171,149,132)" />
<polygon points="10,250 9,243 2,244 3,251" style="fill:rgb(171,149,132)" />
<polygon points="499,253 499,245 491,245 491,253" style="fill:rgb(171,149,132)" />
<polygon points="10,262 9,255 2,256 3,263" style="fill:rgb(171,149,132)" />
<polygon points="498,263 498,255 490,255 490,263" style="fill:rgb(171,149,132)" />
<polygon points="433,267 433,259 425,259 425,267" style="fill:rgb(171,149,132)" />
<polygon points="10,274 9,267 2,268 3,275" style="fill:rgb(171,149,132)" />
<polygon points="448,276 447,269 440,270 441,277" style="fill:rgb(171,149,132)" />
<polygon points="147,282 147,274 139,274 139,282" style="fill:rgb(171,149,132)" />
<polygon points="8,284 10,278 4,276 2,282" style="fill:rgb(171,149,132)" />
<polygon points="26,286 26,278 18,278 18,286" style="fill:rgb(171,149,132)" />
<polygon points="36,286 36,278 28,278 28,286" style="fill:rgb(171,149,132)" />
<polygon points="46,286 46,278 38,278 38,286" style="fill:rgb(171,149,132)" />
<polygon points="56,286 56,278 48,278 48,286" style="fill:rgb(171,149,132)" />
<polygon points="66,286 66,278 58,278 58,286" style="fill:rgb(171,149,132)" />
<polygon points="76,286 76,278 68,278 68,286" style="fill:rgb(171,149,132)" />
<polygon points="10,293 10,285 2,285 2,293" style="fill:rgb(171,149,132)" />
<polygon points="179,301 179,293 171,293 171,301" style="fill:rgb(171,149,132)" />
<polygon points="10,303 10,295 2,295 2,303" style="fill:rgb(171,149,132)" />
<polygon points="433,304 433,296 425,296 425,304" style="fill:rgb(171,149,132)" />
<polygon points="456,307 455,300 448,301 449,308" style="fill:rgb(171,149,132)" />
<polygon points="488,310 487,303 480,304 481,311" style="fill:rgb(171,149,132)" />
<polygon points="10,313 10,305 2,305 2,313" style="fill:rgb(171,149,132)" />
<polygon points="445,313 445,305 437,305 437,313" style="fill:rgb(171,149,132)" />
<polygon points="497,313 499,307 493,305 491,311" style="fill:rgb(171,149,132)" />
<polygon points="351,316 351,308 343,308 343,316" style="fill:rgb(171,149,132)" />
<polygon points="428,322 430,316 424,314 422,320" style="fill:rgb(171,149,132)" />
<polygon points="498,322 498,314 490,314 490,322" style="fill:rgb(171,149,132)" />
<polygon points="10,323 10,315 2,315 2,323" style="fill:rgb(171,149,132)" />
<polygon points="394,324 394,316 386,316 386,324" style="fill:rgb(171,149,132)" />
<polygon points="498,332 498,324 490,324 490,332" style="fill:rgb(171,149,132)" />
<polygon points="10,333 10,325 2,325 2,333" style="fill:rgb(171,149,132)" />
<polygon points="118,338 118,330 110,330 110,338" style="fill:rgb(171,149,132)" />
<polygon points="498,342 498,334 490,334 490,342" style="fill:rgb(171,149,132)" />
<polygon points="10,343 10,335 2,335 2,343" style="fill:rgb(171,149,132)" />
<polygon points="90,351 90,343 82,343 82,351" style="fill:rgb(171,149,132)" />
<polygon points="498,352 498,344 490,344 490,352" style="fill:rgb(171,149,132)" />
<polygon points="10,353 10,345 2,345 2,353" style="fill:rgb(171,149,132)" />
<polygon points="498,362 498,354 490,354 490,362" style="fill:rgb(171,149,132)" />
<polygon points="498,372 498,364 490,364 490,372" style="fill:rgb(171,149,132)" />
<polygon points="499,382 499,374 491,374 491,382" style="fill:rgb(171,149,132)" />
<polygon points="62,385 62,377 54,377 54,385" style="fill:rgb(171,149,132)" />
<polygon points="431,390 431,382 423,382 423,390" style="fill:rgb(171,149,132)" />
<polygon points="53,407 53,399 45,399 45,407" style="fill:rgb(171,149,132)" />
<polygon points="54,417 54,409 46,409 46,417" style="fill:rgb(171,149,132)" />
<polygon points="499,442 498,435 491,436 492,443" style="fill:rgb(171,149,132)" />
<polygon points="445,460 445,452 437,452 437,460" style="fill:rgb(171,149,132)" />
<polygon points="10,488 10,480 2,480 2,488" style="fill:rgb(171,149,132)" />
<polygon points="499,494 498,487 491,488 492,495" style="fill:rgb(171,149,132)" />
<polygon points="451,499 451,491 443,491 443,499" style="fill:rgb(171,149,132)" />
<polygon points="497,538 499,532 493,530 491,536" style="fill:rgb(171,149,132)" />
<polygon points="497,547 497,539 489,539 489,547" style="fill:rgb(171,149,132)" />
<polygon points="41,552 41,544 33,544 33,552" style="fill:rgb(171,149,132)" />
<polygon points="487,592 486,585 479,586 480,593" style="fill:rgb(171,149,132)" />
<polygon points="33,21 33,15 27,15 27,21" style="fill:rgb(121,96,76)" />
<polygon points="46,21 46,15 40,15 40,21" style="fill:rgb(121,96,76)" />
<polygon points="59,21 59,15 53,15 53,21" style="fill:rgb(121,96,76)" />
<polygon points="72,21 72,15 66,15 66,21" style="fill:rgb(121,96,76)" />
<polygon points="85,21 85,15 79,15 79,21" style="fill:rgb(121,96,76)" />
<polygon points="98,21 98,15 92,15 92,21" style="fill:rgb(121,96,76)" />
<polygon points="111,21 111,15 105,15 105,21" style="fill:rgb(121,96,76)" />
<polygon points="124,21 124,15 118,15 118,21" style="fill:rgb(121,96,76)" />
<polygon points="8,34 8,28 2,28 2,34" style="fill:rgb(121,96,76)" />
<polygon points="185,85 185,79 179,79 179,85" style="fill:rgb(121,96,76)" />
<polygon points="411,110 411,104 405,104 405,110" style="fill:rgb(121,96,76)" />
<polygon points="40,159 40,153 34,153 34,159" style="fill:rgb(121,96,76)" />
<polygon points="53,159 53,153 47,153 47,159" style="fill:rgb(121,96,76)" />
<polygon points="66,159 66,153 60,153 60,159" style="fill:rgb(121,96,76)" />
<polygon points="79,159 79,153 73,153 73,159" style="fill:rgb(121,96,76)" />
<polygon points="92,159 92,153 86,153 86,159" style="fill:rgb(121,96,76)" />
<polygon points="105,159 105,153 99,153 99,159" style="fill:rgb(121,96,76)" />
<polygon points="118,159 118,153 112,153 112,159" style="fill:rgb(121,96,76)" />
<polygon points="8,179 8,173 2,173 2,179" style="fill:rgb(121,96,76)" />
<polygon points="498,219 498,213 492,213 492,219" style="fill:rgb(121,96,76)" />
<polygon points="412,254 412,248 406,248 406,254" style="fill:rgb(121,96,76)" />
<polygon points="125,285 125,279 119,279 119,285" style="fill:rgb(121,96,76)" />
<polygon points="462,312 462,306 456,306 456,312" style="fill:rgb(121,96,76)" />
<polygon points="360,325 360,319 354,319 354,325" style="fill:rgb(121,96,76)" />
<polygon points="429,355 429,349 423,349 423,355" style="fill:rgb(121,96,76)" />
<polygon points="499,391 499,385 493,385 493,391" style="fill:rgb(121,96,76)" />
<polygon points="499,400 499,394 493,394 493,400" style="fill:rgb(121,96,76)" />
<polygon points="499,409 499,403 493,403 493,409" style="fill:rgb(121,96,76)" />
<polygon points="499,418 499,412 493,412 493,418" style="fill:rgb(121,96,76)" />
<polygon points="499,427 499,421 493,421 493,427" style="fill:rgb(121,96,76)" />
<polygon points="499,451 499,445 493,445 493,451" style="fill:rgb(121,96,76)" />
<polygon points="499,460 499,454 493,454 493,460" style="fill:rgb(121,96,76)" />
<polygon points="499,469 499,463 493,463 493,469" style="fill:rgb(121,96,76)" />
<polygon points="499,478 499,472 493,472 493,478" style="fill:rgb(121,96,76)" />
<polygon points="19,488 19,482 13,482 13,488" style="fill:rgb(121,96,76)" />
<polygon points="41,490 41,484 35,484 35,490" style="fill:rgb(121,96,76)" />
<polygon points="490,498 490,492 484,492 484,498" style="fill:rgb(121,96,76)" />
<polygon points="451,508 451,502 445,502 445,508" style="fill:rgb(121,96,76)" />
<polygon points="499,529 499,523 493,523 493,529" style="fill:rgb(121,96,76)" />
<polygon points="469,547 469,541 463,541 463,547" style="fill:rgb(121,96,76)" />
<polygon points="499,556 499,550 493,550 493,556" style="fill:rgb(121,96,76)" />
</svg>