<svg xmlns="http://www.w3.org/2000/svg" version="1.1" width="502" height="600">
<rect width="502" height="600" style="fill:rgb(255,255,255)"/><polygon points="262,68 262,12 206,12 206,68" style="fill:rgb(56,56,56)" />
<polygon points="331,68 331,12 275,12 275,68" style="fill:rgb(99,99,99)" />
<polygon points="256,137 256,81 200,81 200,137" style="fill:rgb(0,0,0)" />
<polygon points="325,137 325,81 269,81 269,137" style="fill:rgb(0,0,0)" />
<polygon points="332,212 372,172 332,132 292,172" style="fill:rgb(254,254,254)" />
<polygon points="236,206 236,150 180,150 180,206" style="fill:rgb(0,0,0)" />
<polygon points="264,275 304,235 264,195 224,235" style="fill:rgb(254,254,254)" />
<polygon points="324,297 364,257 324,217 284,257" style="fill:rgb(254,254,254)" />
<polygon points="219,352 259,312 219,272 179,312" style="fill:rgb(0,0,0)" />
<polygon points="279,374 319,334 279,294 239,334" style="fill:rgb(0,0,0)" />
<polygon points="340,395 380,355 340,315 300,355" style="fill:rgb(254,254,254)" />
<polygon points="146,401 186,361 146,321 106,361" style="fill:rgb(0,0,0)" />
<polygon points="196,433 236,393 196,353 156,393" style="fill:rgb(104,104,104)" />
<polygon points="383,434 423,394 383,354 343,394" style="fill:rgb(128,128,128)" />
<polygon points="256,455 296,415 256,375 216,415" style="fill:rgb(254,254,254)" />
<polygon points="120,456 120,400 64,400 64,456" style="fill:rgb(13,13,13)" />
<polygon points="310,483 350,443 310,403 270,443" style="fill:rgb(0,0,0)" />
<polygon points="396,502 436,462 396,422 356,462" style="fill:rgb(139,139,139)" />
<polygon points="161,514 201,474 161,434 121,474" style="fill:rgb(0,0,0)" />
<polygon points="221,536 261,496 221,456 181,496" style="fill:rgb(0,0,0)" />
<polygon points="111,525 111,469 55,469 55,525" style="fill:rgb(0,0,0)" />
<polygon points="323,551 363,511 323,471 283,511" style="fill:rgb(0,0,0)" />
<polygon points="431,564 431,508 375,508 375,564" style="fill:rgb(0,0,0)" />
<polygon points="180,583 180,527 124,527 124,583" style="fill:rgb(0,0,0)" />
<polygon points="245,593 285,553 245,513 205,553" style="fill:rgb(0,0,0)" />
<polygon points="99,597 114,542 59,527 44,582" style="fill:rgb(0,0,0)" />
<polygon points="374,572 353,535 316,556 337,593" style="fill:rgb(0,0,0)" />
<polygon points="280,192 291,151 250,140 239,181" style="fill:rgb(0,0,0)" />
<polygon points="293,596 318,571 293,546 268,571" style="fill:rgb(251,251,251)" />
<polygon points="222,241 222,213 194,213 194,241" style="fill:rgb(0,0,0)" />
<polygon points="452,593 452,565 424,565 424,593" style="fill:rgb(101,101,101)" />
<polygon points="350,97 364,73 340,59 326,83" style="fill:rgb(117,117,117)" />
<polygon points="93,397 107,373 83,359 69,383" style="fill:rgb(117,117,117)" />
<polygon points="277,509 297,489 277,469 257,489" style="fill:rgb(117,117,117)" />
<polygon points="149,437 156,410 129,403 122,430" style="fill:rgb(0,0,0)" />
<polygon points="200,141 193,114 166,121 173,148" style="fill:rgb(0,0,0)" />
<polygon points="386,151 386,123 358,123 358,151" style="fill:rgb(0,0,0)" />
<polygon points="349,27 349,13 335,13 335,27" style="fill:rgb(114,114,114)" />
<polygon points="349,45 349,31 335,31 335,45" style="fill:rgb(101,101,101)" />
<polygon points="343,112 343,98 329,98 329,112" style="fill:rgb(185,185,185)" />
<polygon points="361,114 361,100 347,100 347,114" style="fill:rgb(178,178,178)" />
<polygon points="353,132 353,118 339,118 339,132" style="fill:rgb(178,178,178)" />
<polygon points="306,155 306,141 292,141 292,155" style="fill:rgb(0,0,0)" />
<polygon points="299,200 299,186 285,186 285,200" style="fill:rgb(249,249,249)" />
<polygon points="353,212 363,202 353,192 343,202" style="fill:rgb(208,208,208)" />
<polygon points="308,217 308,203 294,203 294,217" style="fill:rgb(148,148,148)" />
<polygon points="363,227 363,213 349,213 349,227" style="fill:rgb(251,251,251)" />
<polygon points="218,259 218,245 204,245 204,259" style="fill:rgb(199,199,199)" />
<polygon points="236,268 236,254 222,254 222,268" style="fill:rgb(189,189,189)" />
<polygon points="278,282 288,272 278,262 268,272" style="fill:rgb(192,192,192)" />
<polygon points="253,285 253,271 239,271 239,285" style="fill:rgb(170,170,170)" />
<polygon points="298,292 298,278 284,278 284,292" style="fill:rgb(0,0,0)" />
<polygon points="271,295 271,281 257,281 257,295" style="fill:rgb(190,190,190)" />
<polygon points="340,302 350,292 340,282 330,292" style="fill:rgb(244,244,244)" />
<polygon points="315,309 315,295 301,295 301,309" style="fill:rgb(229,229,229)" />
<polygon points="333,316 333,302 319,302 319,316" style="fill:rgb(246,246,246)" />
<polygon points="178,324 178,310 164,310 164,324" style="fill:rgb(0,0,0)" />
<polygon points="187,341 187,327 173,327 173,341" style="fill:rgb(0,0,0)" />
<polygon points="233,359 243,349 233,339 223,349" style="fill:rgb(175,175,175)" />
<polygon points="252,369 252,355 238,355 238,369" style="fill:rgb(175,175,175)" />
<polygon points="294,380 304,370 294,360 284,370" style="fill:rgb(236,236,236)" />
<polygon points="305,391 315,381 305,371 295,381" style="fill:rgb(254,254,254)" />
<polygon points="119,395 119,381 105,381 105,395" style="fill:rgb(104,104,104)" />
<polygon points="341,413 341,399 327,399 327,413" style="fill:rgb(255,255,255)" />
<polygon points="423,424 423,410 409,410 409,424" style="fill:rgb(133,133,133)" />
<polygon points="171,429 171,415 157,415 157,429" style="fill:rgb(0,0,0)" />
<polygon points="358,430 358,416 344,416 344,430" style="fill:rgb(129,129,129)" />
<polygon points="210,440 220,430 210,420 200,430" style="fill:rgb(125,125,125)" />
<polygon points="367,447 367,433 353,433 353,447" style="fill:rgb(135,135,135)" />
<polygon points="229,450 229,436 215,436 215,450" style="fill:rgb(126,126,126)" />
<polygon points="199,451 199,437 185,437 185,451" style="fill:rgb(128,128,128)" />
<polygon points="346,468 356,458 346,448 336,458" style="fill:rgb(0,0,0)" />
<polygon points="273,467 273,453 259,453 259,467" style="fill:rgb(228,228,228)" />
<polygon points="356,483 356,469 342,469 342,483" style="fill:rgb(0,0,0)" />
<polygon points="429,490 439,480 429,470 419,480" style="fill:rgb(69,69,69)" />
<polygon points="372,500 372,486 358,486 358,500" style="fill:rgb(148,148,148)" />
<polygon points="129,503 129,489 115,489 115,503" style="fill:rgb(93,93,93)" />
<polygon points="138,520 138,506 124,506 124,520" style="fill:rgb(86,86,86)" />
<polygon points="184,520 184,506 170,506 170,520" style="fill:rgb(0,0,0)" />
<polygon points="280,527 280,513 266,513 266,527" style="fill:rgb(226,226,226)" />
<polygon points="371,532 371,518 357,518 357,532" style="fill:rgb(99,99,99)" />
<polygon points="198,537 198,523 184,523 184,537" style="fill:rgb(0,0,0)" />
<polygon points="201,556 211,546 201,536 191,546" style="fill:rgb(0,0,0)" />
<polygon points="198,574 198,560 184,560 184,574" style="fill:rgb(0,0,0)" />
<polygon points="393,582 393,568 379,568 379,582" style="fill:rgb(69,69,69)" />
<polygon points="411,582 411,568 397,568 397,582" style="fill:rgb(0,0,0)" />
<polygon points="209,588 219,578 209,568 199,578" style="fill:rgb(0,0,0)" />
<polygon points="121,593 121,579 107,579 107,593" style="fill:rgb(61,61,61)" />
<polygon points="196,593 196,579 182,579 182,593" style="fill:rgb(0,0,0)" />
<polygon points="324,594 324,580 310,580 310,594" style="fill:rgb(212,212,212)" />
<polygon points="375,594 375,580 361,580 361,594" style="fill:rgb(108,108,108)" />
<polygon points="271,596 271,582 257,582 257,596" style="fill:rgb(53,53,53)" />
<polygon points="273,12 273,2 263,2 263,12" style="fill:rgb(64,64,64)" />
<polygon points="203,42 203,32 193,32 193,42" style="fill:rgb(69,69,69)" />
<polygon points="362,52 360,42 350,44 352,54" style="fill:rgb(118,118,118)" />
<polygon points="201,55 201,45 191,45 191,55" style="fill:rgb(66,66,66)" />
<polygon points="200,68 200,58 190,58 190,68" style="fill:rgb(64,64,64)" />
<polygon points="273,77 273,67 263,67 263,77" style="fill:rgb(42,42,42)" />
<polygon points="164,128 164,118 154,118 154,128" style="fill:rgb(115,115,115)" />
<polygon points="177,162 177,152 167,152 167,162" style="fill:rgb(28,28,28)" />
<polygon points="249,197 249,187 239,187 239,197" style="fill:rgb(170,170,170)" />
<polygon points="321,216 321,206 311,206 311,216" style="fill:rgb(254,254,254)" />
<polygon points="235,219 235,209 225,209 225,219" style="fill:rgb(185,185,185)" />
<polygon points="345,220 345,210 335,210 335,220" style="fill:rgb(251,251,251)" />
<polygon points="362,240 362,230 352,230 352,240" style="fill:rgb(253,253,253)" />
<polygon points="200,348 200,338 190,338 190,348" style="fill:rgb(0,0,0)" />
<polygon points="113,355 111,345 101,347 103,357" style="fill:rgb(75,75,75)" />
<polygon points="223,365 223,355 213,355 213,365" style="fill:rgb(93,93,93)" />
<polygon points="234,373 237,364 228,361 225,370" style="fill:rgb(0,0,0)" />
<polygon points="242,384 242,374 232,374 232,384" style="fill:rgb(250,250,250)" />
<polygon points="285,386 285,376 275,376 275,386" style="fill:rgb(254,254,254)" />
<polygon points="323,394 323,384 313,384 313,394" style="fill:rgb(254,254,254)" />
<polygon points="294,398 294,388 284,388 284,398" style="fill:rgb(254,254,254)" />
<polygon points="184,436 184,426 174,426 174,436" style="fill:rgb(127,127,127)" />
<polygon points="426,437 426,427 416,427 416,437" style="fill:rgb(146,146,146)" />
<polygon points="61,441 61,431 51,431 51,441" style="fill:rgb(64,64,64)" />
<polygon points="133,446 133,436 123,436 123,446" style="fill:rgb(129,129,129)" />
<polygon points="212,453 212,443 202,443 202,453" style="fill:rgb(135,135,135)" />
<polygon points="58,454 58,444 48,444 48,454" style="fill:rgb(73,73,73)" />
<polygon points="242,456 242,446 232,446 232,456" style="fill:rgb(148,148,148)" />
<polygon points="249,468 249,458 239,458 239,468" style="fill:rgb(136,136,136)" />
<polygon points="122,469 122,459 112,459 112,469" style="fill:rgb(142,142,142)" />
<polygon points="260,480 260,470 250,470 250,480" style="fill:rgb(148,148,148)" />
<polygon points="422,496 420,486 410,488 412,498" style="fill:rgb(148,148,148)" />
<polygon points="434,500 441,493 434,486 427,493" style="fill:rgb(56,56,56)" />
<polygon points="265,513 265,503 255,503 255,513" style="fill:rgb(155,155,155)" />
<polygon points="151,519 151,509 141,509 141,519" style="fill:rgb(69,69,69)" />
<polygon points="119,536 119,526 109,526 109,536" style="fill:rgb(136,136,136)" />
<polygon points="294,535 292,525 282,527 284,537" style="fill:rgb(246,246,246)" />
<polygon points="54,538 54,528 44,528 44,538" style="fill:rgb(75,75,75)" />
<polygon points="370,545 370,535 360,535 360,545" style="fill:rgb(118,118,118)" />
<polygon points="444,548 444,538 434,538 434,548" style="fill:rgb(115,115,115)" />
<polygon points="444,561 444,551 434,551 434,561" style="fill:rgb(136,136,136)" />
<polygon points="121,570 121,560 111,560 111,570" style="fill:rgb(59,59,59)" />
<polygon points="228,589 226,579 216,581 218,591" style="fill:rgb(0,0,0)" />
<polygon points="419,593 419,583 409,583 409,593" style="fill:rgb(64,64,64)" />
<polygon points="388,595 388,585 378,585 378,595" style="fill:rgb(42,42,42)" />
<polygon points="401,595 401,585 391,585 391,595" style="fill:rgb(34,34,34)" />
<polygon points="134,596 134,586 124,586 124,596" style="fill:rgb(59,59,59)" />
<polygon points="147,596 147,586 137,586 137,596" style="fill:rgb(90,90,90)" />
<polygon points="160,596 160,586 150,586 150,596" style="fill:rgb(73,73,73)" />
<polygon points="173,596 173,586 163,586 163,596" style="fill:rgb(0,0,0)" />
<polygon points="465,596 465,586 455,586 455,596" style="fill:rgb(143,143,143)" />
<polygon points="342,56 342,48 334,48 334,56" style="fill:rgb(101,101,101)" />
<polygon points="361,63 361,55 353,55 353,63" style="fill:rgb(132,132,132)" />
<polygon points="198,79 198,71 190,71 190,79" style="fill:rgb(64,64,64)" />
<polygon points="336,123 336,115 328,115 328,123" style="fill:rgb(182,182,182)" />
<polygon points="267,136 267,128 259,128 259,136" style="fill:rgb(0,0,0)" />
<polygon points="241,148 241,140 233,140 233,148" style="fill:rgb(0,0,0)" />
<polygon points="177,174 177,166 169,166 169,174" style="fill:rgb(38,38,38)" />
<polygon points="190,217 190,209 182,209 182,217" style="fill:rgb(115,115,115)" />
<polygon points="357,281 357,273 349,273 349,281" style="fill:rgb(238,238,238)" />
<polygon points="324,327 324,319 316,319 316,327" style="fill:rgb(254,254,254)" />
<polygon points="263,371 263,363 255,363 255,371" style="fill:rgb(228,228,228)" />
<polygon points="72,397 72,389 64,389 64,397" style="fill:rgb(59,59,59)" />
<polygon points="130,398 130,390 122,390 122,398" style="fill:rgb(112,112,112)" />
<polygon points="305,402 305,394 297,394 297,402" style="fill:rgb(180,180,180)" />
<polygon points="131,457 131,449 123,449 123,457" style="fill:rgb(0,0,0)" />
<polygon points="204,464 204,456 196,456 196,464" style="fill:rgb(155,155,155)" />
<polygon points="55,465 55,457 47,457 47,465" style="fill:rgb(66,66,66)" />
<polygon points="338,473 338,465 330,465 330,473" style="fill:rgb(246,246,246)" />
<polygon points="383,502 383,494 375,494 375,502" style="fill:rgb(148,148,148)" />
<polygon points="410,505 410,497 402,497 402,505" style="fill:rgb(124,124,124)" />
<polygon points="52,506 52,498 44,498 44,506" style="fill:rgb(71,71,71)" />
<polygon points="440,509 440,501 432,501 432,509" style="fill:rgb(64,64,64)" />
<polygon points="372,511 372,503 364,503 364,511" style="fill:rgb(150,150,150)" />
<polygon points="52,517 52,509 44,509 44,517" style="fill:rgb(83,83,83)" />
<polygon points="122,519 122,511 114,511 114,519" style="fill:rgb(99,99,99)" />
<polygon points="167,523 167,515 159,515 159,523" style="fill:rgb(0,0,0)" />
<polygon points="300,543 300,535 292,535 292,543" style="fill:rgb(238,238,238)" />
<polygon points="357,595 357,587 349,587 349,595" style="fill:rgb(13,13,13)" />
<polygon points="55,596 55,588 47,588 47,596" style="fill:rgb(22,22,22)" />
<polygon points="215,597 215,589 207,589 207,597" style="fill:rgb(0,0,0)" />
<polygon points="234,597 234,589 226,589 226,597" style="fill:rgb(0,0,0)" />
<polygon points="228,9 228,1 220,1 220,9" style="fill:rgb(69,69,69)" />
<polygon points="238,9 238,1 230,1 230,9" style="fill:rgb(71,71,71)" />
<polygon points="248,9 248,1 240,1 240,9" style="fill:rgb(69,69,69)" />
<polygon points="258,9 258,1 250,1 250,9" style="fill:rgb(69,69,69)" />
<polygon points="283,9 283,1 275,1 275,9" style="fill:rgb(64,64,64)" />
<polygon points="293,9 293,1 285,1 285,9" style="fill:rgb(75,75,75)" />
<polygon points="303,9 303,1 295,1 295,9" style="fill:rgb(92,92,92)" />
<polygon points="313,9 313,1 305,1 305,9" style="fill:rgb(93,93,93)" />
<polygon points="323,9 323,1 315,1 315,9" style="fill:rgb(104,104,104)" />
<polygon points="333,9 333,1 325,1 325,9" style="fill:rgb(121,121,121)" />
<polygon points="272,22 272,14 264,14 264,22" style="fill:rgb(59,59,59)" />
<polygon points="272,32 272,24 264,24 264,32" style="fill:rgb(53,53,53)" />
<polygon points="357,36 359,30 353,28 351,34" style="fill:rgb(148,148,148)" />
<polygon points="272,42 272,34 264,34 264,42" style="fill:rgb(53,53,53)" />
<polygon points="272,52 272,44 264,44 264,52" style="fill:rgb(53,53,53)" />
<polygon points="272,62 272,54 264,54 264,62" style="fill:rgb(50,50,50)" />
<polygon points="208,78 208,70 200,70 200,78" style="fill:rgb(56,56,56)" />
<polygon points="218,78 218,70 210,70 210,78" style="fill:rgb(56,56,56)" />
<polygon points="228,78 228,70 220,70 220,78" style="fill:rgb(42,42,42)" />
<polygon points="238,78 238,70 230,70 230,78" style="fill:rgb(50,50,50)" />
<polygon points="248,78 248,70 240,70 240,78" style="fill:rgb(42,42,42)" />
<polygon points="258,78 258,70 250,70 250,78" style="fill:rgb(38,38,38)" />
<polygon points="283,78 283,70 275,70 275,78" style="fill:rgb(61,61,61)" />
<polygon points="293,78 293,70 285,70 285,78" style="fill:rgb(75,75,75)" />
<polygon points="303,78 303,70 295,70 295,78" style="fill:rgb(88,88,88)" />
<polygon points="313,78 313,70 305,70 305,78" style="fill:rgb(109,109,109)" />
<polygon points="323,78 323,70 315,70 315,78" style="fill:rgb(112,112,112)" />
<polygon points="266,87 266,79 258,79 258,87" style="fill:rgb(38,38,38)" />
<polygon points="197,89 197,81 189,81 189,89" style="fill:rgb(66,66,66)" />
<polygon points="266,97 266,89 258,89 258,97" style="fill:rgb(56,56,56)" />
<polygon points="197,99 197,91 189,91 189,99" style="fill:rgb(75,75,75)" />
<polygon points="266,107 266,99 258,99 258,107" style="fill:rgb(38,38,38)" />
<polygon points="197,109 197,101 189,101 189,109" style="fill:rgb(93,93,93)" />
<polygon points="266,117 266,109 258,109 258,117" style="fill:rgb(13,13,13)" />
<polygon points="353,142 353,134 345,134 345,142" style="fill:rgb(22,22,22)" />
<polygon points="210,147 210,139 202,139 202,147" style="fill:rgb(0,0,0)" />
<polygon points="220,147 220,139 212,139 212,147" style="fill:rgb(0,0,0)" />
<polygon points="230,147 230,139 222,139 222,147" style="fill:rgb(0,0,0)" />
<polygon points="290,147 290,139 282,139 282,147" style="fill:rgb(0,0,0)" />
<polygon points="316,147 316,139 308,139 308,147" style="fill:rgb(0,0,0)" />
<polygon points="372,161 372,153 364,153 364,161" style="fill:rgb(0,0,0)" />
<polygon points="298,165 298,157 290,157 290,165" style="fill:rgb(203,203,203)" />
<polygon points="259,196 259,188 251,188 251,196" style="fill:rgb(189,189,189)" />
<polygon points="309,200 309,192 301,192 301,200" style="fill:rgb(248,248,248)" />
<polygon points="282,202 282,194 274,194 274,202" style="fill:rgb(106,106,106)" />
<polygon points="246,207 246,199 238,199 238,207" style="fill:rgb(169,169,169)" />
<polygon points="292,210 292,202 284,202 284,210" style="fill:rgb(95,95,95)" />
<polygon points="307,227 307,219 299,219 299,227" style="fill:rgb(142,142,142)" />
<polygon points="228,251 228,243 220,243 220,251" style="fill:rgb(197,197,197)" />
<polygon points="246,268 246,260 238,260 238,268" style="fill:rgb(173,173,173)" />
<polygon points="217,269 217,261 209,261 209,269" style="fill:rgb(175,175,175)" />
<polygon points="236,278 236,270 228,270 228,278" style="fill:rgb(189,189,189)" />
<polygon points="281,292 281,284 273,284 273,292" style="fill:rgb(0,0,0)" />
<polygon points="308,292 308,284 300,284 300,292" style="fill:rgb(95,95,95)" />
<polygon points="253,295 253,287 245,287 245,295" style="fill:rgb(188,188,188)" />
<polygon points="298,302 298,294 290,294 290,302" style="fill:rgb(109,109,109)" />
<polygon points="263,305 263,297 255,297 255,305" style="fill:rgb(110,110,110)" />
<polygon points="315,319 315,311 307,311 307,319" style="fill:rgb(187,187,187)" />
<polygon points="163,324 163,316 155,316 155,324" style="fill:rgb(0,0,0)" />
<polygon points="170,334 170,326 162,326 162,334" style="fill:rgb(0,0,0)" />
<polygon points="187,351 187,343 179,343 179,351" style="fill:rgb(28,28,28)" />
<polygon points="210,354 210,346 202,346 202,354" style="fill:rgb(46,46,46)" />
<polygon points="101,360 101,352 93,352 93,360" style="fill:rgb(92,92,92)" />
<polygon points="273,379 273,371 265,371 265,379" style="fill:rgb(112,112,112)" />
<polygon points="322,404 322,396 314,396 314,404" style="fill:rgb(254,254,254)" />
<polygon points="158,406 158,398 150,398 150,406" style="fill:rgb(105,105,105)" />
<polygon points="351,413 351,405 343,405 343,413" style="fill:rgb(106,106,106)" />
<polygon points="341,423 341,415 333,415 333,423" style="fill:rgb(77,77,77)" />
<polygon points="62,427 62,419 54,419 54,427" style="fill:rgb(75,75,75)" />
<polygon points="368,430 368,422 360,422 360,430" style="fill:rgb(129,129,129)" />
<polygon points="377,439 377,431 369,431 369,439" style="fill:rgb(126,126,126)" />
<polygon points="143,446 143,438 135,438 135,446" style="fill:rgb(98,98,98)" />
<polygon points="65,466 65,458 57,458 57,466" style="fill:rgb(13,13,13)" />
<polygon points="75,466 75,458 67,458 67,466" style="fill:rgb(22,22,22)" />
<polygon points="85,466 85,458 77,458 77,466" style="fill:rgb(53,53,53)" />
<polygon points="95,466 95,458 87,458 87,466" style="fill:rgb(77,77,77)" />
<polygon points="105,466 105,458 97,458 97,466" style="fill:rgb(34,34,34)" />
<polygon points="283,467 283,459 275,459 275,467" style="fill:rgb(246,246,246)" />
<polygon points="119,479 121,473 115,471 113,477" style="fill:rgb(0,0,0)" />
<polygon points="53,481 53,473 45,473 45,481" style="fill:rgb(64,64,64)" />
<polygon points="366,483 366,475 358,475 358,483" style="fill:rgb(139,139,139)" />
<polygon points="53,491 53,483 45,483 45,491" style="fill:rgb(66,66,66)" />
<polygon points="356,493 356,485 348,485 348,493" style="fill:rgb(13,13,13)" />
<polygon points="139,503 139,495 131,495 131,503" style="fill:rgb(106,106,106)" />
<polygon points="427,504 427,496 419,496 419,504" style="fill:rgb(34,34,34)" />
<polygon points="441,519 441,511 433,511 433,519" style="fill:rgb(50,50,50)" />
<polygon points="194,520 194,512 186,512 186,520" style="fill:rgb(0,0,0)" />
<polygon points="441,529 441,521 433,521 433,529" style="fill:rgb(118,118,118)" />
<polygon points="208,534 208,526 200,526 200,534" style="fill:rgb(0,0,0)" />
<polygon points="102,535 102,527 94,527 94,535" style="fill:rgb(96,96,96)" />
<polygon points="280,537 280,529 272,529 272,537" style="fill:rgb(240,240,240)" />
<polygon points="289,546 289,538 281,538 281,546" style="fill:rgb(238,238,238)" />
<polygon points="190,547 190,539 182,539 182,547" style="fill:rgb(0,0,0)" />
<polygon points="52,548 52,540 44,540 44,548" style="fill:rgb(73,73,73)" />
<polygon points="310,548 309,541 302,542 303,549" style="fill:rgb(181,181,181)" />
<polygon points="120,551 122,545 116,543 114,549" style="fill:rgb(112,112,112)" />
<polygon points="373,555 373,547 365,547 365,555" style="fill:rgb(132,132,132)" />
<polygon points="190,557 190,549 182,549 182,557" style="fill:rgb(0,0,0)" />
<polygon points="208,567 208,559 200,559 200,567" style="fill:rgb(0,0,0)" />
<polygon points="421,574 421,566 413,566 413,574" style="fill:rgb(0,0,0)" />
<polygon points="309,593 308,586 301,587 302,594" style="fill:rgb(236,236,236)" />
<polygon points="281,595 281,587 273,587 273,595" style="fill:rgb(254,254,254)" />
<polygon points="206,597 206,589 198,589 198,597" style="fill:rgb(0,0,0)" />
<polygon points="65,598 65,590 57,590 57,598" style="fill:rgb(0,0,0)" />
<polygon points="350,57 350,51 344,51 344,57" style="fill:rgb(96,96,96)" />
<polygon points="362,96 362,90 356,90 356,96" style="fill:rgb(137,137,137)" />
<polygon points="292,181 292,175 286,175 286,181" style="fill:rgb(246,246,246)" />
<polygon points="345,229 345,223 339,223 339,229" style="fill:rgb(255,255,255)" />
<polygon points="114,378 114,372 108,372 108,378" style="fill:rgb(79,79,79)" />
<polygon points="331,395 331,389 325,389 325,395" style="fill:rgb(254,254,254)" />
<polygon points="138,402 138,396 132,396 132,402" style="fill:rgb(0,0,0)" />
<polygon points="300,410 300,404 294,404 294,410" style="fill:rgb(197,197,197)" />
<polygon points="166,412 166,406 160,406 160,412" style="fill:rgb(99,99,99)" />
<polygon points="181,445 181,439 175,439 175,445" style="fill:rgb(0,0,0)" />
<polygon points="429,446 429,440 423,440 423,446" style="fill:rgb(133,133,133)" />
<polygon points="291,473 291,467 285,467 285,473" style="fill:rgb(0,0,0)" />
<polygon points="298,480 298,474 292,474 292,480" style="fill:rgb(101,101,101)" />
<polygon points="120,486 120,480 114,480 114,486" style="fill:rgb(139,139,139)" />
<polygon points="263,522 263,516 257,516 257,522" style="fill:rgb(153,153,153)" />
<polygon points="316,553 316,547 310,547 310,553" style="fill:rgb(120,120,120)" />
<polygon points="332,595 332,589 326,589 326,595" style="fill:rgb(86,86,86)" />
<polygon points="338,10 338,6 334,6 334,10" style="fill:rgb(138,138,138)" />
<polygon points="204,31 204,27 200,27 200,31" style="fill:rgb(71,71,71)" />
<polygon points="355,40 355,36 351,36 351,40" style="fill:rgb(119,119,119)" />
<polygon points="360,42 360,38 356,38 356,42" style="fill:rgb(148,148,148)" />
<polygon points="337,61 337,57 333,57 333,61" style="fill:rgb(92,92,92)" />
<polygon points="363,69 363,65 359,65 359,69" style="fill:rgb(180,180,180)" />
<polygon points="363,87 363,83 359,83 359,87" style="fill:rgb(155,155,155)" />
<polygon points="331,91 331,87 327,87 327,91" style="fill:rgb(118,118,118)" />
<polygon points="336,94 336,90 332,90 332,94" style="fill:rgb(120,120,120)" />
<polygon points="331,128 331,124 327,124 327,128" style="fill:rgb(184,184,184)" />
<polygon points="336,131 336,127 332,127 332,131" style="fill:rgb(182,182,182)" />
<polygon points="261,141 261,137 257,137 257,141" style="fill:rgb(0,0,0)" />
<polygon points="268,142 268,138 264,138 264,142" style="fill:rgb(0,0,0)" />
<polygon points="273,144 273,140 269,140 269,144" style="fill:rgb(0,0,0)" />
<polygon points="278,146 278,142 274,142 274,146" style="fill:rgb(0,0,0)" />
<polygon points="354,148 354,144 350,144 350,148" style="fill:rgb(0,0,0)" />
<polygon points="246,149 246,145 242,145 242,149" style="fill:rgb(13,13,13)" />
<polygon points="245,157 245,153 241,153 241,157" style="fill:rgb(85,85,85)" />
<polygon points="243,164 243,160 239,160 239,164" style="fill:rgb(112,112,112)" />
<polygon points="292,170 292,166 288,166 288,170" style="fill:rgb(229,229,229)" />
<polygon points="298,184 298,180 294,180 294,184" style="fill:rgb(249,249,249)" />
<polygon points="369,186 369,182 365,182 365,186" style="fill:rgb(187,187,187)" />
<polygon points="176,189 176,185 172,185 172,189" style="fill:rgb(66,66,66)" />
<polygon points="265,193 265,189 261,189 261,193" style="fill:rgb(218,218,218)" />
<polygon points="271,194 271,190 267,190 267,194" style="fill:rgb(202,202,202)" />
<polygon points="361,194 361,190 357,190 357,194" style="fill:rgb(175,175,175)" />
<polygon points="254,201 254,197 250,197 250,201" style="fill:rgb(114,114,114)" />
<polygon points="314,201 314,197 310,197 310,201" style="fill:rgb(253,253,253)" />
<polygon points="223,212 223,208 219,208 219,212" style="fill:rgb(178,178,178)" />
<polygon points="241,212 241,208 237,208 237,212" style="fill:rgb(164,164,164)" />
<polygon points="327,213 327,209 323,209 323,213" style="fill:rgb(218,218,218)" />
<polygon points="291,216 291,212 287,212 287,216" style="fill:rgb(71,71,71)" />
<polygon points="332,217 332,213 328,213 328,217" style="fill:rgb(115,115,115)" />
<polygon points="313,221 313,217 309,217 309,221" style="fill:rgb(219,219,219)" />
<polygon points="297,222 297,218 293,218 293,222" style="fill:rgb(108,108,108)" />
<polygon points="228,224 228,220 224,220 224,224" style="fill:rgb(187,187,187)" />
<polygon points="350,232 350,228 346,228 346,232" style="fill:rgb(254,254,254)" />
<polygon points="359,246 359,242 355,242 355,246" style="fill:rgb(249,249,249)" />
<polygon points="234,251 234,247 230,247 230,251" style="fill:rgb(196,196,196)" />
<polygon points="364,251 364,247 360,247 360,251" style="fill:rgb(247,247,247)" />
<polygon points="251,269 251,265 247,265 247,269" style="fill:rgb(148,148,148)" />
<polygon points="361,271 361,267 357,267 357,271" style="fill:rgb(242,242,242)" />
<polygon points="294,273 294,269 290,269 290,273" style="fill:rgb(0,0,0)" />
<polygon points="259,276 259,272 255,272 255,276" style="fill:rgb(163,163,163)" />
<polygon points="237,284 237,280 233,280 233,284" style="fill:rgb(180,180,180)" />
<polygon points="350,286 350,282 346,282 346,286" style="fill:rgb(233,233,233)" />
<polygon points="313,293 313,289 309,289 309,293" style="fill:rgb(234,234,234)" />
<polygon points="321,300 321,296 317,296 317,300" style="fill:rgb(238,238,238)" />
<polygon points="332,300 332,296 328,296 328,300" style="fill:rgb(246,246,246)" />
<polygon points="270,301 270,297 266,297 266,301" style="fill:rgb(216,216,216)" />
<polygon points="339,307 339,303 335,303 335,307" style="fill:rgb(240,240,240)" />
<polygon points="299,308 299,304 295,304 295,308" style="fill:rgb(223,223,223)" />
<polygon points="179,309 179,305 175,305 175,309" style="fill:rgb(0,0,0)" />
<polygon points="184,323 184,319 180,319 180,323" style="fill:rgb(0,0,0)" />
<polygon points="193,332 193,328 189,328 189,332" style="fill:rgb(0,0,0)" />
<polygon points="171,340 171,336 167,336 167,340" style="fill:rgb(0,0,0)" />
<polygon points="249,350 249,346 245,346 245,350" style="fill:rgb(175,175,175)" />
<polygon points="384,352 384,348 380,348 380,352" style="fill:rgb(130,130,130)" />
<polygon points="192,353 192,349 188,349 188,353" style="fill:rgb(0,0,0)" />
<polygon points="390,355 390,351 386,351 386,355" style="fill:rgb(180,180,180)" />
<polygon points="189,358 189,354 185,354 185,358" style="fill:rgb(77,77,77)" />
<polygon points="258,359 258,355 254,355 254,359" style="fill:rgb(170,170,170)" />
<polygon points="209,360 209,356 205,356 205,360" style="fill:rgb(56,56,56)" />
<polygon points="395,360 395,356 391,356 391,360" style="fill:rgb(110,110,110)" />
<polygon points="400,365 400,361 396,361 396,365" style="fill:rgb(148,148,148)" />
<polygon points="101,366 101,362 97,362 97,366" style="fill:rgb(79,79,79)" />
<polygon points="107,368 107,364 103,364 103,368" style="fill:rgb(69,69,69)" />
<polygon points="405,370 405,366 401,366 401,370" style="fill:rgb(137,137,137)" />
<polygon points="220,371 220,367 216,367 216,371" style="fill:rgb(85,85,85)" />
<polygon points="225,375 225,371 221,371 221,375" style="fill:rgb(83,83,83)" />
<polygon points="410,375 410,371 406,371 406,375" style="fill:rgb(156,156,156)" />
<polygon points="253,376 253,372 249,372 249,376" style="fill:rgb(254,254,254)" />
<polygon points="231,377 231,373 227,373 227,377" style="fill:rgb(0,0,0)" />
<polygon points="415,380 415,376 411,376 411,380" style="fill:rgb(194,194,194)" />
<polygon points="248,381 248,377 244,377 244,381" style="fill:rgb(254,254,254)" />
<polygon points="321,382 321,378 317,378 317,382" style="fill:rgb(254,254,254)" />
<polygon points="291,383 291,379 287,379 287,383" style="fill:rgb(0,0,0)" />
<polygon points="272,385 272,381 268,381 268,385" style="fill:rgb(213,213,213)" />
<polygon points="125,386 125,382 121,382 121,386" style="fill:rgb(69,69,69)" />
<polygon points="239,390 239,386 235,386 235,390" style="fill:rgb(131,131,131)" />
<polygon points="278,391 278,387 274,387 274,391" style="fill:rgb(252,252,252)" />
<polygon points="300,392 300,388 296,388 296,392" style="fill:rgb(178,178,178)" />
<polygon points="78,394 78,390 74,390 74,394" style="fill:rgb(59,59,59)" />
<polygon points="102,394 102,390 98,390 98,394" style="fill:rgb(46,46,46)" />
<polygon points="83,396 83,392 79,392 79,396" style="fill:rgb(59,59,59)" />
<polygon points="312,399 312,395 308,395 308,399" style="fill:rgb(255,255,255)" />
<polygon points="128,404 128,400 124,400 124,404" style="fill:rgb(118,118,118)" />
<polygon points="291,404 291,400 287,400 287,404" style="fill:rgb(105,105,105)" />
<polygon points="143,405 143,401 139,401 139,405" style="fill:rgb(0,0,0)" />
<polygon points="62,410 62,406 58,406 58,410" style="fill:rgb(86,86,86)" />
<polygon points="323,410 323,406 319,406 319,410" style="fill:rgb(254,254,254)" />
<polygon points="126,412 126,408 122,408 122,412" style="fill:rgb(124,124,124)" />
<polygon points="356,414 356,410 352,410 352,414" style="fill:rgb(125,125,125)" />
<polygon points="177,420 177,416 173,416 173,420" style="fill:rgb(117,117,117)" />
<polygon points="404,424 404,420 400,420 400,424" style="fill:rgb(0,0,0)" />
<polygon points="342,429 342,425 338,425 338,429" style="fill:rgb(66,66,66)" />
<polygon points="409,429 409,425 405,425 405,429" style="fill:rgb(229,229,229)" />
<polygon points="415,430 415,426 411,426 411,430" style="fill:rgb(124,124,124)" />
<polygon points="226,431 226,427 222,427 222,431" style="fill:rgb(128,128,128)" />
<polygon points="190,433 190,429 186,429 186,433" style="fill:rgb(105,105,105)" />
<polygon points="156,434 156,430 152,430 152,434" style="fill:rgb(0,0,0)" />
<polygon points="168,435 168,431 164,431 164,435" style="fill:rgb(0,0,0)" />
<polygon points="349,436 349,432 345,432 345,436" style="fill:rgb(95,95,95)" />
<polygon points="154,439 154,435 150,435 150,439" style="fill:rgb(0,0,0)" />
<polygon points="235,440 235,436 231,436 231,440" style="fill:rgb(126,126,126)" />
<polygon points="205,441 205,437 201,437 201,441" style="fill:rgb(134,134,134)" />
<polygon points="149,444 149,440 145,440 145,444" style="fill:rgb(0,0,0)" />
<polygon points="271,450 271,446 267,446 267,450" style="fill:rgb(238,238,238)" />
<polygon points="138,451 138,447 134,447 134,451" style="fill:rgb(118,118,118)" />
<polygon points="356,452 356,448 352,448 352,452" style="fill:rgb(135,135,135)" />
<polygon points="248,453 248,449 244,449 244,453" style="fill:rgb(148,148,148)" />
<polygon points="217,455 217,451 213,451 213,455" style="fill:rgb(135,135,135)" />
<polygon points="227,456 227,452 223,452 223,456" style="fill:rgb(145,145,145)" />
<polygon points="190,457 190,453 186,453 186,457" style="fill:rgb(0,0,0)" />
<polygon points="195,459 195,455 191,455 191,459" style="fill:rgb(140,140,140)" />
<polygon points="215,460 215,456 211,456 211,460" style="fill:rgb(139,139,139)" />
<polygon points="255,460 255,456 251,456 251,460" style="fill:rgb(122,122,122)" />
<polygon points="232,461 232,457 228,457 228,461" style="fill:rgb(144,144,144)" />
<polygon points="111,462 111,458 107,458 107,462" style="fill:rgb(129,129,129)" />
<polygon points="130,463 130,459 126,459 126,463" style="fill:rgb(108,108,108)" />
<polygon points="209,465 209,461 205,461 205,465" style="fill:rgb(148,148,148)" />
<polygon points="237,466 237,462 233,462 233,466" style="fill:rgb(143,143,143)" />
<polygon points="50,470 50,466 46,466 46,470" style="fill:rgb(71,71,71)" />
<polygon points="203,470 203,466 199,466 199,470" style="fill:rgb(155,155,155)" />
<polygon points="437,472 437,468 433,468 433,472" style="fill:rgb(124,124,124)" />
<polygon points="271,473 271,469 267,469 267,473" style="fill:rgb(223,223,223)" />
<polygon points="245,474 245,470 241,470 241,474" style="fill:rgb(137,137,137)" />
<polygon points="266,478 266,474 262,474 262,478" style="fill:rgb(223,223,223)" />
<polygon points="337,479 337,475 333,475 333,479" style="fill:rgb(241,241,241)" />
<polygon points="304,483 304,479 300,479 300,483" style="fill:rgb(203,203,203)" />
<polygon points="371,484 371,480 367,480 367,484" style="fill:rgb(135,135,135)" />
<polygon points="127,486 127,482 123,482 123,486" style="fill:rgb(145,145,145)" />
<polygon points="257,486 257,482 253,482 253,486" style="fill:rgb(141,141,141)" />
<polygon points="378,490 378,486 374,486 374,490" style="fill:rgb(126,126,126)" />
<polygon points="48,496 48,492 44,492 44,496" style="fill:rgb(81,81,81)" />
<polygon points="389,501 389,497 385,497 385,501" style="fill:rgb(132,132,132)" />
<polygon points="416,502 416,498 412,498 412,502" style="fill:rgb(151,151,151)" />
<polygon points="182,503 182,499 178,499 178,503" style="fill:rgb(0,0,0)" />
<polygon points="144,504 144,500 140,500 140,504" style="fill:rgb(117,117,117)" />
<polygon points="394,506 394,502 390,502 390,506" style="fill:rgb(77,77,77)" />
<polygon points="117,508 117,504 113,504 113,508" style="fill:rgb(86,86,86)" />
<polygon points="123,509 123,505 119,505 119,509" style="fill:rgb(96,96,96)" />
<polygon points="271,509 271,505 267,505 267,509" style="fill:rgb(196,196,196)" />
<polygon points="253,515 253,511 249,511 249,515" style="fill:rgb(159,159,159)" />
<polygon points="157,516 157,512 153,512 153,516" style="fill:rgb(69,69,69)" />
<polygon points="372,517 372,513 368,513 368,517" style="fill:rgb(142,142,142)" />
<polygon points="286,520 286,516 282,516 282,520" style="fill:rgb(0,0,0)" />
<polygon points="199,521 199,517 195,517 195,521" style="fill:rgb(0,0,0)" />
<polygon points="47,522 47,518 43,518 43,522" style="fill:rgb(101,101,101)" />
<polygon points="156,522 156,518 152,518 152,522" style="fill:rgb(69,69,69)" />
<polygon points="117,524 117,520 113,520 113,524" style="fill:rgb(136,136,136)" />
<polygon points="143,524 143,520 139,520 139,524" style="fill:rgb(121,121,121)" />
<polygon points="123,525 123,521 119,521 119,525" style="fill:rgb(140,140,140)" />
<polygon points="172,525 172,521 168,521 168,525" style="fill:rgb(0,0,0)" />
<polygon points="181,526 181,522 177,522 177,526" style="fill:rgb(0,0,0)" />
<polygon points="79,531 79,527 75,527 75,531" style="fill:rgb(42,42,42)" />
<polygon points="85,532 85,528 81,528 81,532" style="fill:rgb(56,56,56)" />
<polygon points="299,533 299,529 295,529 295,533" style="fill:rgb(246,246,246)" />
<polygon points="90,534 90,530 86,530 86,534" style="fill:rgb(53,53,53)" />
<polygon points="213,535 213,531 209,531 209,535" style="fill:rgb(0,0,0)" />
<polygon points="350,535 350,531 346,531 346,535" style="fill:rgb(0,0,0)" />
<polygon points="107,536 107,532 103,532 103,536" style="fill:rgb(120,120,120)" />
<polygon points="211,540 211,536 207,536 207,540" style="fill:rgb(0,0,0)" />
<polygon points="306,540 306,536 302,536 302,540" style="fill:rgb(247,247,247)" />
<polygon points="119,543 119,539 115,539 115,543" style="fill:rgb(126,126,126)" />
<polygon points="306,553 306,549 302,549 302,553" style="fill:rgb(239,239,239)" />
<polygon points="116,554 116,550 112,550 112,554" style="fill:rgb(88,88,88)" />
<polygon points="51,555 51,551 47,551 47,555" style="fill:rgb(66,66,66)" />
<polygon points="196,557 196,553 192,553 192,557" style="fill:rgb(0,0,0)" />
<polygon points="311,558 311,554 307,554 307,558" style="fill:rgb(231,231,231)" />
<polygon points="122,559 122,555 118,555 118,559" style="fill:rgb(98,98,98)" />
<polygon points="449,562 449,558 445,558 445,562" style="fill:rgb(165,165,165)" />
<polygon points="316,563 316,559 312,559 312,563" style="fill:rgb(150,150,150)" />
<polygon points="48,566 48,562 44,562 44,566" style="fill:rgb(73,73,73)" />
<polygon points="378,569 378,565 374,565 374,569" style="fill:rgb(134,134,134)" />
<polygon points="111,575 111,571 107,571 107,575" style="fill:rgb(53,53,53)" />
<polygon points="323,575 323,571 319,571 319,575" style="fill:rgb(81,81,81)" />
<polygon points="122,578 122,574 118,574 118,578" style="fill:rgb(64,64,64)" />
<polygon points="270,579 270,575 266,575 266,579" style="fill:rgb(162,162,162)" />
<polygon points="376,579 376,575 372,575 372,579" style="fill:rgb(121,121,121)" />
<polygon points="420,582 420,578 416,578 416,582" style="fill:rgb(81,81,81)" />
<polygon points="202,587 202,583 198,583 198,587" style="fill:rgb(0,0,0)" />
<polygon points="233,587 233,583 229,583 229,587" style="fill:rgb(0,0,0)" />
<polygon points="71,594 71,590 67,590 67,594" style="fill:rgb(53,53,53)" />
<polygon points="240,594 240,590 236,590 236,594" style="fill:rgb(0,0,0)" />
<polygon points="221,595 221,591 217,591 217,595" style="fill:rgb(0,0,0)" />
<polygon points="77,596 77,592 73,592 73,596" style="fill:rgb(69,69,69)" />
<polygon points="105,596 105,592 101,592 101,596" style="fill:rgb(73,73,73)" />
<polygon points="286,596 286,592 282,592 282,596" style="fill:rgb(254,254,254)" />
<polygon points="406,596 406,592 402,592 402,596" style="fill:rgb(114,114,114)" />
<polygon points="83,597 83,593 79,593 79,597" style="fill:rgb(79,79,79)" />
<polygon points="178,597 178,593 174,593 174,597" style="fill:rgb(0,0,0)" />
<polygon points="110,598 110,594 106,594 106,598" style="fill:rgb(71,71,71)" />
<polygon points="184,598 184,594 180,594 180,598" style="fill:rgb(0,0,0)" />
<polygon points="245,598 245,594 241,594 241,598" style="fill:rgb(0,0,0)" />
<polygon points="302,598 302,594 298,594 298,598" style="fill:rgb(254,254,254)" />
<polygon points="411,598 411,594 407,594 407,598" style="fill:rgb(113,113,113)" />
<polygon points="424,598 424,594 420,594 420,598" style="fill:rgb(83,83,83)" />
</svg>