<svg xmlns="http://www.w3.org/2000/svg" version="1.1" width="1716" height="1092">
<rect width="1716" height="1092" style="fill:rgb(255,255,255)"/><polygon points="496,468 536,428 496,388 456,428" style="fill:rgb(131,105,99)" />
<polygon points="944,464 944,408 888,408 888,464" style="fill:rgb(87,59,51)" />
<polygon points="1378,513 1418,473 1378,433 1338,473" style="fill:rgb(121,91,79)" />
<polygon points="883,522 883,466 827,466 827,522" style="fill:rgb(180,87,92)" />
<polygon points="472,525 472,469 416,469 416,525" style="fill:rgb(53,24,28)" />
<polygon points="1322,578 1362,538 1322,498 1282,538" style="fill:rgb(129,53,47)" />
<polygon points="952,567 952,511 896,511 896,567" style="fill:rgb(146,86,86)" />
<polygon points="507,583 547,543 507,503 467,543" style="fill:rgb(171,70,77)" />
<polygon points="865,591 865,535 809,535 809,591" style="fill:rgb(135,29,39)" />
<polygon points="431,606 471,566 431,526 391,566" style="fill:rgb(53,9,18)" />
<polygon points="1357,624 1397,584 1357,544 1317,584" style="fill:rgb(101,47,51)" />
<polygon points="460,658 500,618 460,578 420,618" style="fill:rgb(39,3,12)" />
<polygon points="873,665 913,625 873,585 833,625" style="fill:rgb(110,34,38)" />
<polygon points="1284,672 1324,632 1284,592 1244,632" style="fill:rgb(129,19,27)" />
<polygon points="573,664 573,608 517,608 517,664" style="fill:rgb(96,12,21)" />
<polygon points="958,693 958,637 902,637 902,693" style="fill:rgb(180,51,55)" />
<polygon points="417,696 417,640 361,640 361,696" style="fill:rgb(80,24,30)" />
<polygon points="1311,726 1351,686 1311,646 1271,686" style="fill:rgb(52,7,13)" />
<polygon points="500,715 500,659 444,659 444,715" style="fill:rgb(80,15,26)" />
<polygon points="855,728 855,672 799,672 799,728" style="fill:rgb(107,61,66)" />
<polygon points="1237,749 1277,709 1237,669 1197,709" style="fill:rgb(161,112,116)" />
<polygon points="1404,750 1404,694 1348,694 1348,750" style="fill:rgb(95,29,29)" />
<polygon points="422,765 422,709 366,709 366,765" style="fill:rgb(82,8,21)" />
<polygon points="1265,802 1305,762 1265,722 1225,762" style="fill:rgb(120,42,50)" />
<polygon points="867,797 867,741 811,741 811,797" style="fill:rgb(92,50,55)" />
<polygon points="392,846 432,806 392,766 352,806" style="fill:rgb(94,14,24)" />
<polygon points="876,866 876,810 820,810 820,866" style="fill:rgb(120,24,34)" />
<polygon points="970,745 970,703 928,703 928,745" style="fill:rgb(115,19,29)" />
<polygon points="1394,811 1424,781 1394,751 1364,781" style="fill:rgb(74,13,18)" />
<polygon points="1223,821 1223,779 1181,779 1181,821" style="fill:rgb(172,161,161)" />
<polygon points="1254,863 1284,833 1254,803 1224,833" style="fill:rgb(86,7,17)" />
<polygon points="1245,915 1245,873 1203,873 1203,915" style="fill:rgb(58,4,10)" />
<polygon points="1282,419 1282,391 1254,391 1254,419" style="fill:rgb(63,38,28)" />
<polygon points="426,431 426,403 398,403 398,431" style="fill:rgb(44,31,29)" />
<polygon points="843,443 843,415 815,415 815,443" style="fill:rgb(96,59,46)" />
<polygon points="1305,478 1305,450 1277,450 1277,478" style="fill:rgb(75,44,32)" />
<polygon points="918,499 918,471 890,471 890,499" style="fill:rgb(120,69,52)" />
<polygon points="410,626 410,598 382,598 382,626" style="fill:rgb(73,40,42)" />
<polygon points="608,683 608,655 580,655 580,683" style="fill:rgb(169,150,149)" />
<polygon points="893,694 893,666 865,666 865,694" style="fill:rgb(114,73,80)" />
<polygon points="993,696 993,668 965,668 965,696" style="fill:rgb(155,71,68)" />
<polygon points="551,699 551,671 523,671 523,699" style="fill:rgb(38,16,13)" />
<polygon points="1439,740 1439,712 1411,712 1411,740" style="fill:rgb(20,9,12)" />
<polygon points="1327,751 1347,731 1327,711 1307,731" style="fill:rgb(44,2,9)" />
<polygon points="534,767 534,739 506,739 506,767" style="fill:rgb(168,144,139)" />
<polygon points="1219,772 1219,744 1191,744 1191,772" style="fill:rgb(179,172,171)" />
<polygon points="1307,802 1327,782 1307,762 1287,782" style="fill:rgb(64,20,24)" />
<polygon points="1314,837 1314,809 1286,809 1286,837" style="fill:rgb(197,116,115)" />
<polygon points="375,871 375,843 347,843 347,871" style="fill:rgb(89,9,21)" />
<polygon points="1371,885 1371,857 1343,857 1343,885" style="fill:rgb(137,88,60)" />
<polygon points="841,901 841,873 813,873 813,901" style="fill:rgb(106,8,18)" />
<polygon points="371,906 371,878 343,878 343,906" style="fill:rgb(54,22,22)" />
<polygon points="1223,1018 1223,990 1195,990 1195,1018" style="fill:rgb(136,92,63)" />
<polygon points="351,1069 351,1041 323,1041 323,1069" style="fill:rgb(33,28,40)" />
<polygon points="825,1077 825,1049 797,1049 797,1077" style="fill:rgb(20,21,30)" />
<polygon points="890,1082 890,1054 862,1054 862,1082" style="fill:rgb(0,2,6)" />
<polygon points="772,1083 772,1055 744,1055 744,1083" style="fill:rgb(0,2,7)" />
<polygon points="966,1083 966,1055 938,1055 938,1083" style="fill:rgb(2,5,11)" />
<polygon points="925,1084 925,1056 897,1056 897,1084" style="fill:rgb(0,2,6)" />
<polygon points="383,199 393,189 383,179 373,189" style="fill:rgb(221,222,217)" />
<polygon points="425,205 435,195 425,185 415,195" style="fill:rgb(221,223,218)" />
<polygon points="395,209 405,199 395,189 385,199" style="fill:rgb(221,209,202)" />
<polygon points="416,217 416,203 402,203 402,217" style="fill:rgb(219,204,196)" />
<polygon points="384,219 384,205 370,205 370,219" style="fill:rgb(216,216,210)" />
<polygon points="809,223 819,213 809,203 799,213" style="fill:rgb(195,187,183)" />
<polygon points="819,238 819,224 805,224 805,238" style="fill:rgb(182,71,71)" />
<polygon points="793,245 803,235 793,225 783,235" style="fill:rgb(146,58,52)" />
<polygon points="394,253 404,243 394,233 384,243" style="fill:rgb(204,186,176)" />
<polygon points="836,250 836,236 822,236 822,250" style="fill:rgb(198,192,188)" />
<polygon points="800,259 810,249 800,239 790,249" style="fill:rgb(187,133,104)" />
<polygon points="397,271 407,261 397,251 387,261" style="fill:rgb(104,73,63)" />
<polygon points="803,277 803,263 789,263 789,277" style="fill:rgb(130,73,46)" />
<polygon points="1211,284 1211,270 1197,270 1197,284" style="fill:rgb(188,187,180)" />
<polygon points="401,288 411,278 401,268 391,278" style="fill:rgb(170,147,136)" />
<polygon points="1230,286 1230,272 1216,272 1216,286" style="fill:rgb(191,189,185)" />
<polygon points="804,295 804,281 790,281 790,295" style="fill:rgb(125,67,41)" />
<polygon points="1229,304 1229,290 1215,290 1215,304" style="fill:rgb(187,182,175)" />
<polygon points="401,306 401,292 387,292 387,306" style="fill:rgb(7,8,12)" />
<polygon points="804,313 804,299 790,299 790,313" style="fill:rgb(120,64,39)" />
<polygon points="1226,322 1226,308 1212,308 1212,322" style="fill:rgb(158,113,96)" />
<polygon points="401,324 401,310 387,310 387,324" style="fill:rgb(10,10,13)" />
<polygon points="808,331 818,321 808,311 798,321" style="fill:rgb(137,76,46)" />
<polygon points="1234,339 1244,329 1234,319 1224,329" style="fill:rgb(101,65,52)" />
<polygon points="403,344 413,334 403,324 393,334" style="fill:rgb(57,41,37)" />
<polygon points="812,348 822,338 812,328 802,338" style="fill:rgb(128,69,42)" />
<polygon points="1243,351 1253,341 1243,331 1233,341" style="fill:rgb(83,50,36)" />
<polygon points="407,361 417,351 407,341 397,351" style="fill:rgb(120,92,81)" />
<polygon points="806,363 806,349 792,349 792,363" style="fill:rgb(136,87,62)" />
<polygon points="1254,366 1254,352 1240,352 1240,366" style="fill:rgb(101,69,57)" />
<polygon points="399,374 399,360 385,360 385,374" style="fill:rgb(15,15,20)" />
<polygon points="417,376 417,362 403,362 403,376" style="fill:rgb(148,117,104)" />
<polygon points="816,379 826,369 816,359 806,369" style="fill:rgb(168,107,71)" />
<polygon points="1265,381 1265,367 1251,367 1251,381" style="fill:rgb(54,29,19)" />
<polygon points="821,395 831,385 821,375 811,385" style="fill:rgb(110,55,30)" />
<polygon points="402,394 402,380 388,380 388,394" style="fill:rgb(21,19,24)" />
<polygon points="831,410 831,396 817,396 817,410" style="fill:rgb(78,37,22)" />
<polygon points="1275,437 1275,423 1261,423 1261,437" style="fill:rgb(123,79,57)" />
<polygon points="962,441 962,427 948,427 948,441" style="fill:rgb(181,171,169)" />
<polygon points="1293,444 1293,430 1279,430 1279,444" style="fill:rgb(63,35,26)" />
<polygon points="431,450 441,440 431,430 421,440" style="fill:rgb(82,60,53)" />
<polygon points="413,449 413,435 399,435 399,449" style="fill:rgb(62,53,53)" />
<polygon points="858,456 858,442 844,442 844,456" style="fill:rgb(162,104,73)" />
<polygon points="524,461 534,451 524,441 514,451" style="fill:rgb(152,134,131)" />
<polygon points="1346,461 1356,451 1346,441 1336,451" style="fill:rgb(156,127,120)" />
<polygon points="962,459 962,445 948,445 948,459" style="fill:rgb(154,140,138)" />
<polygon points="455,460 455,446 441,446 441,460" style="fill:rgb(170,120,95)" />
<polygon points="836,461 836,447 822,447 822,461" style="fill:rgb(96,73,64)" />
<polygon points="424,464 424,450 410,450 410,464" style="fill:rgb(10,9,15)" />
<polygon points="508,477 518,467 508,457 498,467" style="fill:rgb(149,133,127)" />
<polygon points="955,479 955,465 941,465 941,479" style="fill:rgb(96,78,79)" />
<polygon points="936,482 936,468 922,468 922,482" style="fill:rgb(10,10,13)" />
<polygon points="490,483 490,469 476,469 476,483" style="fill:rgb(49,35,36)" />
<polygon points="1323,483 1323,469 1309,469 1309,483" style="fill:rgb(65,38,27)" />
<polygon points="1338,494 1338,480 1324,480 1324,494" style="fill:rgb(119,78,54)" />
<polygon points="1299,496 1299,482 1285,482 1285,496" style="fill:rgb(123,73,49)" />
<polygon points="492,503 502,493 492,483 482,493" style="fill:rgb(83,62,58)" />
<polygon points="1370,526 1370,512 1356,512 1356,526" style="fill:rgb(24,12,12)" />
<polygon points="885,542 895,532 885,522 875,532" style="fill:rgb(170,112,113)" />
<polygon points="970,544 970,530 956,530 956,544" style="fill:rgb(165,133,117)" />
<polygon points="976,562 986,552 976,542 966,552" style="fill:rgb(180,155,140)" />
<polygon points="560,560 560,546 546,546 546,560" style="fill:rgb(172,139,122)" />
<polygon points="883,560 883,546 869,546 869,560" style="fill:rgb(113,35,44)" />
<polygon points="1292,569 1292,555 1278,555 1278,569" style="fill:rgb(181,53,54)" />
<polygon points="987,573 997,563 987,553 977,563" style="fill:rgb(157,123,108)" />
<polygon points="892,577 892,563 878,563 878,577" style="fill:rgb(81,4,16)" />
<polygon points="585,578 585,564 571,564 571,578" style="fill:rgb(135,102,86)" />
<polygon points="485,582 485,568 471,568 471,582" style="fill:rgb(123,50,61)" />
<polygon points="910,585 910,571 896,571 896,585" style="fill:rgb(109,16,27)" />
<polygon points="928,585 928,571 914,571 914,585" style="fill:rgb(15,10,16)" />
<polygon points="1301,586 1301,572 1287,572 1287,586" style="fill:rgb(166,81,68)" />
<polygon points="1005,587 1005,573 991,573 991,587" style="fill:rgb(118,90,79)" />
<polygon points="519,592 529,582 519,572 509,582" style="fill:rgb(196,105,115)" />
<polygon points="502,599 502,585 488,585 488,599" style="fill:rgb(91,3,14)" />
<polygon points="1005,605 1005,591 991,591 991,605" style="fill:rgb(105,79,71)" />
<polygon points="824,609 824,595 810,595 810,609" style="fill:rgb(151,130,119)" />
<polygon points="842,609 842,595 828,595 828,609" style="fill:rgb(78,39,27)" />
<polygon points="513,615 513,601 499,601 499,615" style="fill:rgb(60,15,23)" />
<polygon points="1384,618 1394,608 1384,598 1374,608" style="fill:rgb(185,154,155)" />
<polygon points="1332,620 1332,606 1318,606 1318,620" style="fill:rgb(55,1,11)" />
<polygon points="1008,623 1008,609 994,609 994,623" style="fill:rgb(100,70,62)" />
<polygon points="826,627 826,613 812,613 812,627" style="fill:rgb(165,147,135)" />
<polygon points="1368,634 1378,624 1368,614 1358,624" style="fill:rgb(86,39,44)" />
<polygon points="504,636 514,626 504,616 494,626" style="fill:rgb(66,3,13)" />
<polygon points="1341,637 1341,623 1327,623 1327,637" style="fill:rgb(30,1,11)" />
<polygon points="1381,643 1391,633 1381,623 1371,633" style="fill:rgb(164,122,127)" />
<polygon points="1012,641 1012,627 998,627 998,641" style="fill:rgb(89,56,48)" />
<polygon points="822,645 822,631 808,631 808,645" style="fill:rgb(200,122,122)" />
<polygon points="1359,646 1359,632 1345,632 1345,646" style="fill:rgb(102,49,54)" />
<polygon points="497,650 497,636 483,636 483,650" style="fill:rgb(54,2,11)" />
<polygon points="833,656 843,646 833,636 823,646" style="fill:rgb(65,7,18)" />
<polygon points="435,654 435,640 421,640 421,654" style="fill:rgb(45,1,10)" />
<polygon points="976,655 976,641 962,641 962,655" style="fill:rgb(41,20,20)" />
<polygon points="1341,655 1341,641 1327,641 1327,655" style="fill:rgb(50,2,12)" />
<polygon points="1251,660 1251,646 1237,646 1237,660" style="fill:rgb(200,71,70)" />
<polygon points="1380,661 1380,647 1366,647 1366,661" style="fill:rgb(166,120,94)" />
<polygon points="816,663 816,649 802,649 802,663" style="fill:rgb(165,81,87)" />
<polygon points="852,666 852,652 838,652 838,666" style="fill:rgb(179,170,170)" />
<polygon points="1015,667 1015,653 1001,653 1001,667" style="fill:rgb(71,36,30)" />
<polygon points="435,672 435,658 421,658 421,672" style="fill:rgb(24,2,11)" />
<polygon points="350,680 360,670 350,660 340,670" style="fill:rgb(108,55,52)" />
<polygon points="1266,677 1266,663 1252,663 1252,677" style="fill:rgb(152,24,39)" />
<polygon points="518,682 518,668 504,668 504,682" style="fill:rgb(77,1,13)" />
<polygon points="569,682 569,668 555,668 555,682" style="fill:rgb(51,24,15)" />
<polygon points="1011,685 1011,671 997,671 997,685" style="fill:rgb(43,20,19)" />
<polygon points="435,690 435,676 421,676 421,690" style="fill:rgb(87,68,67)" />
<polygon points="343,694 343,680 329,680 329,694" style="fill:rgb(89,52,44)" />
<polygon points="432,708 432,694 418,694 418,708" style="fill:rgb(230,199,193)" />
<polygon points="902,711 902,697 888,697 888,711" style="fill:rgb(55,0,9)" />
<polygon points="920,711 920,697 906,697 906,711" style="fill:rgb(94,15,22)" />
<polygon points="873,712 873,698 859,698 859,712" style="fill:rgb(152,146,141)" />
<polygon points="327,718 337,708 327,698 317,708" style="fill:rgb(139,55,57)" />
<polygon points="553,719 563,709 553,699 543,709" style="fill:rgb(57,33,26)" />
<polygon points="536,717 536,703 522,703 522,717" style="fill:rgb(60,26,19)" />
<polygon points="439,727 443,713 429,709 425,723" style="fill:rgb(224,192,189)" />
<polygon points="1290,726 1290,712 1276,712 1276,726" style="fill:rgb(188,142,140)" />
<polygon points="876,731 886,721 876,711 866,721" style="fill:rgb(122,105,104)" />
<polygon points="314,736 324,726 314,716 304,726" style="fill:rgb(123,59,55)" />
<polygon points="459,733 459,719 445,719 445,733" style="fill:rgb(218,151,153)" />
<polygon points="477,733 477,719 463,719 463,733" style="fill:rgb(201,114,122)" />
<polygon points="546,733 546,719 532,719 532,733" style="fill:rgb(62,28,18)" />
<polygon points="1206,740 1206,726 1192,726 1192,740" style="fill:rgb(96,53,50)" />
<polygon points="884,744 894,734 884,724 874,734" style="fill:rgb(138,84,95)" />
<polygon points="440,745 440,731 426,731 426,745" style="fill:rgb(215,65,69)" />
<polygon points="495,747 495,733 481,733 481,747" style="fill:rgb(216,213,210)" />
<polygon points="301,754 311,744 301,734 291,744" style="fill:rgb(44,15,22)" />
<polygon points="1422,758 1422,744 1408,744 1408,758" style="fill:rgb(38,6,10)" />
<polygon points="1440,758 1440,744 1426,744 1426,758" style="fill:rgb(66,50,44)" />
<polygon points="885,762 885,748 871,748 871,762" style="fill:rgb(138,129,127)" />
<polygon points="440,763 440,749 426,749 426,763" style="fill:rgb(212,67,71)" />
<polygon points="942,763 942,749 928,749 928,763" style="fill:rgb(115,41,45)" />
<polygon points="960,763 960,749 946,749 946,763" style="fill:rgb(76,44,33)" />
<polygon points="285,769 295,759 285,749 275,759" style="fill:rgb(55,23,26)" />
<polygon points="299,777 309,767 299,757 289,767" style="fill:rgb(22,8,15)" />
<polygon points="885,780 885,766 871,766 871,780" style="fill:rgb(147,139,136)" />
<polygon points="432,781 432,767 418,767 418,781" style="fill:rgb(157,41,45)" />
<polygon points="942,781 942,767 928,767 928,781" style="fill:rgb(69,53,48)" />
<polygon points="369,783 369,769 355,769 355,783" style="fill:rgb(58,2,12)" />
<polygon points="522,785 522,771 508,771 508,785" style="fill:rgb(45,24,18)" />
<polygon points="281,786 281,772 267,772 267,786" style="fill:rgb(70,42,40)" />
<polygon points="540,796 540,782 526,782 526,796" style="fill:rgb(171,129,105)" />
<polygon points="885,798 885,784 871,784 871,798" style="fill:rgb(152,144,136)" />
<polygon points="942,799 942,785 928,785 928,799" style="fill:rgb(63,49,44)" />
<polygon points="1241,799 1241,785 1227,785 1227,799" style="fill:rgb(73,2,12)" />
<polygon points="1285,811 1285,797 1271,797 1271,811" style="fill:rgb(129,39,49)" />
<polygon points="896,813 896,799 882,799 882,813" style="fill:rgb(168,158,156)" />
<polygon points="542,814 542,800 528,800 528,814" style="fill:rgb(94,58,44)" />
<polygon points="940,817 940,803 926,803 926,817" style="fill:rgb(81,65,58)" />
<polygon points="1372,820 1382,810 1372,800 1362,810" style="fill:rgb(108,54,36)" />
<polygon points="1404,826 1404,812 1390,812 1390,826" style="fill:rgb(77,48,40)" />
<polygon points="1379,834 1389,824 1379,814 1369,824" style="fill:rgb(69,40,26)" />
<polygon points="937,835 937,821 923,821 923,835" style="fill:rgb(102,76,64)" />
<polygon points="419,840 429,830 419,820 409,830" style="fill:rgb(114,8,19)" />
<polygon points="1178,837 1178,823 1164,823 1164,837" style="fill:rgb(227,225,222)" />
<polygon points="1196,839 1196,825 1182,825 1182,839" style="fill:rgb(211,209,206)" />
<polygon points="1214,839 1214,825 1200,825 1200,839" style="fill:rgb(194,190,193)" />
<polygon points="1332,841 1332,827 1318,827 1318,841" style="fill:rgb(212,47,59)" />
<polygon points="1370,847 1370,833 1356,833 1356,847" style="fill:rgb(114,59,39)" />
<polygon points="403,856 413,846 403,836 393,846" style="fill:rgb(65,2,12)" />
<polygon points="938,853 938,839 924,839 924,853" style="fill:rgb(134,89,67)" />
<polygon points="1187,857 1187,843 1173,843 1173,857" style="fill:rgb(202,196,193)" />
<polygon points="1235,866 1235,852 1221,852 1221,866" style="fill:rgb(79,1,10)" />
<polygon points="393,867 393,853 379,853 379,867" style="fill:rgb(103,18,26)" />
<polygon points="948,869 948,855 934,855 934,869" style="fill:rgb(145,96,73)" />
<polygon points="1264,874 1274,864 1264,854 1254,864" style="fill:rgb(100,12,23)" />
<polygon points="412,872 412,858 398,858 398,872" style="fill:rgb(48,2,10)" />
<polygon points="882,882 892,872 882,862 872,872" style="fill:rgb(56,1,10)" />
<polygon points="859,884 859,870 845,870 845,884" style="fill:rgb(77,0,11)" />
<polygon points="1263,892 1263,878 1249,878 1249,892" style="fill:rgb(104,21,29)" />
<polygon points="873,899 873,885 859,885 859,899" style="fill:rgb(60,2,10)" />
<polygon points="1381,901 1381,887 1367,887 1367,901" style="fill:rgb(124,83,56)" />
<polygon points="1263,910 1263,896 1249,896 1249,910" style="fill:rgb(130,57,60)" />
<polygon points="1391,918 1391,904 1377,904 1377,918" style="fill:rgb(161,124,102)" />
<polygon points="826,919 826,905 812,905 812,919" style="fill:rgb(61,25,23)" />
<polygon points="844,919 844,905 830,905 830,919" style="fill:rgb(68,35,26)" />
<polygon points="354,924 354,910 340,910 340,924" style="fill:rgb(35,23,21)" />
<polygon points="372,924 372,910 358,910 358,924" style="fill:rgb(71,42,32)" />
<polygon points="1219,933 1219,919 1205,919 1205,933" style="fill:rgb(136,95,69)" />
<polygon points="1237,933 1237,919 1223,919 1223,933" style="fill:rgb(97,66,53)" />
<polygon points="828,937 828,923 814,923 814,937" style="fill:rgb(65,34,24)" />
<polygon points="354,942 354,928 340,928 340,942" style="fill:rgb(27,19,15)" />
<polygon points="1218,951 1218,937 1204,937 1204,951" style="fill:rgb(149,109,85)" />
<polygon points="831,956 841,946 831,936 821,946" style="fill:rgb(78,42,28)" />
<polygon points="353,960 353,946 339,946 339,960" style="fill:rgb(25,16,14)" />
<polygon points="1221,970 1231,960 1221,950 1211,960" style="fill:rgb(104,69,53)" />
<polygon points="832,974 832,960 818,960 818,974" style="fill:rgb(89,51,36)" />
<polygon points="353,978 353,964 339,964 339,978" style="fill:rgb(26,18,16)" />
<polygon points="833,992 833,978 819,978 819,992" style="fill:rgb(114,74,56)" />
<polygon points="350,996 350,982 336,982 336,996" style="fill:rgb(22,13,12)" />
<polygon points="843,1008 843,994 829,994 829,1008" style="fill:rgb(176,138,110)" />
<polygon points="347,1014 347,1000 333,1000 333,1014" style="fill:rgb(57,44,40)" />
<polygon points="833,1026 833,1012 819,1012 819,1026" style="fill:rgb(92,57,42)" />
<polygon points="340,1032 340,1018 326,1018 326,1032" style="fill:rgb(60,46,41)" />
<polygon points="1228,1036 1238,1026 1228,1016 1218,1026" style="fill:rgb(131,81,49)" />
<polygon points="830,1044 830,1030 816,1030 816,1044" style="fill:rgb(130,96,81)" />
<polygon points="793,1065 793,1051 779,1051 779,1065" style="fill:rgb(19,22,37)" />
<polygon points="843,1067 843,1053 829,1053 829,1067" style="fill:rgb(5,6,16)" />
<polygon points="262,1069 262,1055 248,1055 248,1069" style="fill:rgb(1,6,18)" />
<polygon points="280,1069 280,1055 266,1055 266,1069" style="fill:rgb(1,6,18)" />
<polygon points="298,1069 298,1055 284,1055 284,1069" style="fill:rgb(1,6,18)" />
<polygon points="316,1069 316,1055 302,1055 302,1069" style="fill:rgb(1,5,17)" />
<polygon points="369,1069 369,1055 355,1055 355,1069" style="fill:rgb(1,6,18)" />
<polygon points="387,1069 387,1055 373,1055 373,1069" style="fill:rgb(1,6,17)" />
<polygon points="405,1069 405,1055 391,1055 391,1069" style="fill:rgb(0,6,17)" />
<polygon points="423,1069 423,1055 409,1055 409,1069" style="fill:rgb(1,6,18)" />
<polygon points="441,1069 441,1055 427,1055 427,1069" style="fill:rgb(0,6,17)" />
<polygon points="228,1073 238,1063 228,1053 218,1063" style="fill:rgb(1,4,13)" />
<polygon points="459,1070 459,1056 445,1056 445,1070" style="fill:rgb(1,4,13)" />
<polygon points="706,1070 706,1056 692,1056 692,1070" style="fill:rgb(2,7,20)" />
<polygon points="724,1070 724,1056 710,1056 710,1070" style="fill:rgb(1,6,17)" />
<polygon points="1571,1070 1571,1056 1557,1056 1557,1070" style="fill:rgb(0,4,13)" />
<polygon points="1589,1070 1589,1056 1575,1056 1575,1070" style="fill:rgb(1,4,13)" />
<polygon points="1608,1070 1608,1056 1594,1056 1594,1070" style="fill:rgb(1,4,13)" />
<polygon points="1626,1070 1626,1056 1612,1056 1612,1070" style="fill:rgb(1,4,13)" />
<polygon points="1645,1070 1645,1056 1631,1056 1631,1070" style="fill:rgb(1,3,12)" />
<polygon points="1663,1070 1663,1056 1649,1056 1649,1070" style="fill:rgb(1,3,12)" />
<polygon points="1689,1073 1699,1063 1689,1053 1679,1063" style="fill:rgb(0,4,12)" />
<polygon points="152,1071 152,1057 138,1057 138,1071" style="fill:rgb(1,3,9)" />
<polygon points="170,1071 170,1057 156,1057 156,1071" style="fill:rgb(1,3,9)" />
<polygon points="188,1071 188,1057 174,1057 174,1071" style="fill:rgb(1,3,10)" />
<polygon points="206,1071 206,1057 192,1057 192,1071" style="fill:rgb(1,3,9)" />
<polygon points="477,1071 477,1057 463,1057 463,1071" style="fill:rgb(1,3,9)" />
<polygon points="495,1071 495,1057 481,1057 481,1071" style="fill:rgb(0,4,11)" />
<polygon points="1271,1071 1271,1057 1257,1057 1257,1071" style="fill:rgb(1,2,10)" />
<polygon points="1381,1071 1381,1057 1367,1057 1367,1071" style="fill:rgb(1,3,9)" />
<polygon points="1399,1071 1399,1057 1385,1057 1385,1071" style="fill:rgb(0,3,9)" />
<polygon points="1417,1071 1417,1057 1403,1057 1403,1071" style="fill:rgb(0,3,9)" />
<polygon points="1435,1071 1435,1057 1421,1057 1421,1071" style="fill:rgb(1,3,10)" />
<polygon points="1453,1071 1453,1057 1439,1057 1439,1071" style="fill:rgb(0,3,10)" />
<polygon points="1471,1071 1471,1057 1457,1057 1457,1071" style="fill:rgb(0,3,9)" />
<polygon points="1489,1071 1489,1057 1475,1057 1475,1071" style="fill:rgb(1,3,9)" />
<polygon points="1507,1071 1507,1057 1493,1057 1493,1071" style="fill:rgb(0,3,9)" />
<polygon points="1525,1071 1525,1057 1511,1057 1511,1071" style="fill:rgb(1,3,9)" />
<polygon points="1543,1071 1543,1057 1529,1057 1529,1071" style="fill:rgb(1,2,9)" />
<polygon points="30,1072 30,1058 16,1058 16,1072" style="fill:rgb(0,2,7)" />
<polygon points="48,1072 48,1058 34,1058 34,1072" style="fill:rgb(0,2,7)" />
<polygon points="66,1072 66,1058 52,1058 52,1072" style="fill:rgb(0,2,7)" />
<polygon points="84,1072 84,1058 70,1058 70,1072" style="fill:rgb(1,2,7)" />
<polygon points="102,1072 102,1058 88,1058 88,1072" style="fill:rgb(1,2,7)" />
<polygon points="120,1072 120,1058 106,1058 106,1072" style="fill:rgb(0,2,6)" />
<polygon points="513,1072 513,1058 499,1058 499,1072" style="fill:rgb(1,2,9)" />
<polygon points="531,1072 531,1058 517,1058 517,1072" style="fill:rgb(0,3,10)" />
<polygon points="549,1072 549,1058 535,1058 535,1072" style="fill:rgb(0,3,10)" />
<polygon points="984,1072 984,1058 970,1058 970,1072" style="fill:rgb(1,3,10)" />
<polygon points="1243,1075 1253,1065 1243,1055 1233,1065" style="fill:rgb(1,3,8)" />
<polygon points="1289,1072 1289,1058 1275,1058 1275,1072" style="fill:rgb(0,2,7)" />
<polygon points="1307,1072 1307,1058 1293,1058 1293,1072" style="fill:rgb(1,1,7)" />
<polygon points="1325,1072 1325,1058 1311,1058 1311,1072" style="fill:rgb(1,1,6)" />
<polygon points="1343,1072 1343,1058 1329,1058 1329,1072" style="fill:rgb(1,1,6)" />
<polygon points="1361,1072 1361,1058 1347,1058 1347,1072" style="fill:rgb(1,2,6)" />
<polygon points="567,1073 567,1059 553,1059 553,1073" style="fill:rgb(0,1,6)" />
<polygon points="585,1073 585,1059 571,1059 571,1073" style="fill:rgb(0,2,6)" />
<polygon points="603,1073 603,1059 589,1059 589,1073" style="fill:rgb(1,2,7)" />
<polygon points="621,1073 621,1059 607,1059 607,1073" style="fill:rgb(0,2,7)" />
<polygon points="644,1073 644,1059 630,1059 630,1073" style="fill:rgb(0,2,7)" />
<polygon points="663,1073 663,1059 649,1059 649,1073" style="fill:rgb(0,3,8)" />
<polygon points="681,1073 681,1059 667,1059 667,1073" style="fill:rgb(0,2,7)" />
<polygon points="1175,1073 1175,1059 1161,1059 1161,1073" style="fill:rgb(0,1,5)" />
<polygon points="1194,1073 1194,1059 1180,1059 1180,1073" style="fill:rgb(0,1,5)" />
<polygon points="1212,1073 1212,1059 1198,1059 1198,1073" style="fill:rgb(0,1,4)" />
<polygon points="1230,1073 1230,1059 1216,1059 1216,1073" style="fill:rgb(0,1,4)" />
<polygon points="1002,1074 1002,1060 988,1060 988,1074" style="fill:rgb(0,1,3)" />
<polygon points="1062,1074 1062,1060 1048,1060 1048,1074" style="fill:rgb(0,1,3)" />
<polygon points="1080,1074 1080,1060 1066,1060 1066,1074" style="fill:rgb(0,1,3)" />
<polygon points="1098,1074 1098,1060 1084,1060 1084,1074" style="fill:rgb(0,0,3)" />
<polygon points="1116,1074 1116,1060 1102,1060 1102,1074" style="fill:rgb(0,0,3)" />
<polygon points="1134,1074 1134,1060 1120,1060 1120,1074" style="fill:rgb(0,1,3)" />
<polygon points="1152,1074 1152,1060 1138,1060 1138,1074" style="fill:rgb(0,1,2)" />
<polygon points="1020,1075 1020,1061 1006,1061 1006,1075" style="fill:rgb(0,0,1)" />
<polygon points="1038,1075 1038,1061 1024,1061 1024,1075" style="fill:rgb(0,0,1)" />
<polygon points="432,219 432,207 420,207 420,219" style="fill:rgb(221,222,216)" />
<polygon points="779,250 779,238 767,238 767,250" style="fill:rgb(191,31,44)" />
<polygon points="388,279 388,267 376,267 376,279" style="fill:rgb(63,53,48)" />
<polygon points="801,341 801,329 789,329 789,341" style="fill:rgb(106,61,43)" />
<polygon points="396,354 396,342 384,342 384,354" style="fill:rgb(15,13,18)" />
<polygon points="417,391 417,379 405,379 405,391" style="fill:rgb(169,136,117)" />
<polygon points="463,419 463,407 451,407 451,419" style="fill:rgb(156,138,128)" />
<polygon points="470,459 470,447 458,447 458,459" style="fill:rgb(100,66,56)" />
<polygon points="439,463 439,451 427,451 427,463" style="fill:rgb(26,19,22)" />
<polygon points="1314,498 1314,486 1302,486 1302,498" style="fill:rgb(53,27,20)" />
<polygon points="1353,505 1353,493 1341,493 1341,505" style="fill:rgb(79,39,27)" />
<polygon points="487,515 487,503 475,503 475,515" style="fill:rgb(132,47,50)" />
<polygon points="825,521 825,509 813,509 813,521" style="fill:rgb(170,34,43)" />
<polygon points="414,524 414,512 402,512 402,524" style="fill:rgb(55,45,44)" />
<polygon points="553,526 553,514 541,514 541,526" style="fill:rgb(165,118,132)" />
<polygon points="1386,526 1386,514 1374,514 1374,526" style="fill:rgb(140,126,118)" />
<polygon points="414,540 414,528 402,528 402,540" style="fill:rgb(15,11,15)" />
<polygon points="462,540 462,528 450,528 450,540" style="fill:rgb(192,113,119)" />
<polygon points="1375,541 1375,529 1363,529 1363,541" style="fill:rgb(21,13,15)" />
<polygon points="967,570 967,558 955,558 955,570" style="fill:rgb(28,18,20)" />
<polygon points="806,578 806,566 794,566 794,578" style="fill:rgb(165,6,22)" />
<polygon points="943,582 943,570 931,570 931,582" style="fill:rgb(8,8,15)" />
<polygon points="1283,584 1283,572 1271,572 1271,584" style="fill:rgb(196,23,42)" />
<polygon points="1316,589 1316,577 1304,577 1304,589" style="fill:rgb(160,25,38)" />
<polygon points="398,590 398,578 386,578 386,590" style="fill:rgb(91,56,57)" />
<polygon points="905,600 905,588 893,588 893,600" style="fill:rgb(147,19,33)" />
<polygon points="932,600 932,588 920,588 920,600" style="fill:rgb(9,9,14)" />
<polygon points="1313,604 1313,592 1301,592 1301,604" style="fill:rgb(109,3,12)" />
<polygon points="587,605 587,593 575,593 575,605" style="fill:rgb(161,27,39)" />
<polygon points="588,620 588,608 576,608 576,620" style="fill:rgb(144,65,64)" />
<polygon points="379,631 379,619 367,619 367,631" style="fill:rgb(195,92,95)" />
<polygon points="588,635 588,623 576,623 576,635" style="fill:rgb(142,117,105)" />
<polygon points="512,649 512,637 500,637 500,649" style="fill:rgb(51,0,10)" />
<polygon points="513,664 513,652 501,652 501,664" style="fill:rgb(55,1,12)" />
<polygon points="1356,666 1356,654 1344,654 1344,666" style="fill:rgb(183,132,133)" />
<polygon points="1381,676 1381,664 1369,664 1369,676" style="fill:rgb(183,139,118)" />
<polygon points="623,681 623,669 611,669 611,681" style="fill:rgb(199,192,196)" />
<polygon points="358,693 358,681 346,681 346,693" style="fill:rgb(98,58,51)" />
<polygon points="568,697 568,685 556,685 556,697" style="fill:rgb(74,47,40)" />
<polygon points="1419,707 1419,695 1407,695 1407,707" style="fill:rgb(100,54,39)" />
<polygon points="985,711 985,699 973,699 973,711" style="fill:rgb(180,61,64)" />
<polygon points="515,714 515,702 503,702 503,714" style="fill:rgb(139,93,93)" />
<polygon points="1305,737 1305,725 1293,725 1293,737" style="fill:rgb(190,82,87)" />
<polygon points="808,743 808,731 796,731 796,743" style="fill:rgb(201,100,109)" />
<polygon points="477,748 477,736 465,736 465,748" style="fill:rgb(146,138,135)" />
<polygon points="1312,753 1312,741 1300,741 1300,753" style="fill:rgb(155,24,31)" />
<polygon points="1346,757 1346,745 1334,745 1334,757" style="fill:rgb(88,1,9)" />
<polygon points="1376,765 1376,753 1364,753 1364,765" style="fill:rgb(91,12,19)" />
<polygon points="1328,766 1328,754 1316,754 1316,766" style="fill:rgb(89,3,10)" />
<polygon points="816,812 816,800 804,800 804,812" style="fill:rgb(145,32,40)" />
<polygon points="1238,814 1238,802 1226,802 1226,814" style="fill:rgb(60,2,10)" />
<polygon points="362,833 362,821 350,821 350,833" style="fill:rgb(108,27,37)" />
<polygon points="1202,854 1202,842 1190,842 1190,854" style="fill:rgb(195,192,192)" />
<polygon points="388,882 388,870 376,870 376,882" style="fill:rgb(91,12,22)" />
<polygon points="856,899 856,887 844,887 844,899" style="fill:rgb(79,0,12)" />
<polygon points="845,934 845,922 833,922 833,934" style="fill:rgb(95,56,40)" />
<polygon points="1215,981 1215,969 1203,969 1203,981" style="fill:rgb(148,103,71)" />
<polygon points="355,1031 355,1019 343,1019 343,1031" style="fill:rgb(108,90,82)" />
<polygon points="1240,1050 1240,1038 1228,1038 1228,1050" style="fill:rgb(139,97,82)" />
<polygon points="858,1064 858,1052 846,1052 846,1064" style="fill:rgb(14,17,30)" />
<polygon points="739,1067 739,1055 727,1055 727,1067" style="fill:rgb(1,8,20)" />
<polygon points="1678,1067 1678,1055 1666,1055 1666,1067" style="fill:rgb(1,6,20)" />
<polygon points="1713,1067 1713,1055 1701,1055 1701,1067" style="fill:rgb(1,6,19)" />
<polygon points="135,1069 135,1057 123,1057 123,1069" style="fill:rgb(1,3,11)" />
<polygon points="14,1071 14,1059 2,1059 2,1071" style="fill:rgb(0,1,5)" />
<polygon points="858,1079 858,1067 846,1067 846,1079" style="fill:rgb(0,0,0)" />
<polygon points="246,1080 246,1068 234,1068 234,1080" style="fill:rgb(0,0,0)" />
<polygon points="787,1080 787,1068 775,1068 775,1080" style="fill:rgb(0,0,0)" />
<polygon points="739,1082 739,1070 727,1070 727,1082" style="fill:rgb(0,0,0)" />
<polygon points="840,1082 840,1070 828,1070 828,1082" style="fill:rgb(0,0,0)" />
<polygon points="1678,1082 1678,1070 1666,1070 1666,1082" style="fill:rgb(0,0,0)" />
<polygon points="1705,1082 1705,1070 1693,1070 1693,1082" style="fill:rgb(0,0,0)" />
<polygon points="221,1083 221,1071 209,1071 209,1083" style="fill:rgb(0,0,0)" />
<polygon points="135,1084 135,1072 123,1072 123,1084" style="fill:rgb(0,0,0)" />
<polygon points="261,1084 261,1072 249,1072 249,1084" style="fill:rgb(0,0,0)" />
<polygon points="276,1084 276,1072 264,1072 264,1084" style="fill:rgb(0,0,0)" />
<polygon points="291,1084 291,1072 279,1072 279,1084" style="fill:rgb(0,0,0)" />
<polygon points="306,1084 306,1072 294,1072 294,1084" style="fill:rgb(0,0,0)" />
<polygon points="321,1084 321,1072 309,1072 309,1084" style="fill:rgb(0,0,0)" />
<polygon points="336,1084 336,1072 324,1072 324,1084" style="fill:rgb(0,0,0)" />
<polygon points="351,1084 351,1072 339,1072 339,1084" style="fill:rgb(0,0,0)" />
<polygon points="366,1084 366,1072 354,1072 354,1084" style="fill:rgb(0,0,0)" />
<polygon points="381,1084 381,1072 369,1072 369,1084" style="fill:rgb(0,0,0)" />
<polygon points="396,1084 396,1072 384,1072 384,1084" style="fill:rgb(0,0,0)" />
<polygon points="411,1084 411,1072 399,1072 399,1084" style="fill:rgb(0,0,0)" />
<polygon points="426,1084 426,1072 414,1072 414,1084" style="fill:rgb(0,0,0)" />
<polygon points="441,1084 441,1072 429,1072 429,1084" style="fill:rgb(0,0,0)" />
<polygon points="1552,1084 1552,1072 1540,1072 1540,1084" style="fill:rgb(0,0,0)" />
<polygon points="456,1085 456,1073 444,1073 444,1085" style="fill:rgb(0,0,0)" />
<polygon points="694,1085 694,1073 682,1073 682,1085" style="fill:rgb(0,0,0)" />
<polygon points="709,1085 709,1073 697,1073 697,1085" style="fill:rgb(0,0,0)" />
<polygon points="724,1085 724,1073 712,1073 712,1085" style="fill:rgb(0,0,0)" />
<polygon points="1567,1085 1567,1073 1555,1073 1555,1085" style="fill:rgb(0,0,0)" />
<polygon points="1582,1085 1582,1073 1570,1073 1570,1085" style="fill:rgb(0,0,0)" />
<polygon points="1597,1085 1597,1073 1585,1073 1585,1085" style="fill:rgb(0,0,0)" />
<polygon points="1612,1085 1612,1073 1600,1073 1600,1085" style="fill:rgb(0,0,0)" />
<polygon points="1627,1085 1627,1073 1615,1073 1615,1085" style="fill:rgb(0,0,0)" />
<polygon points="1642,1085 1642,1073 1630,1073 1630,1085" style="fill:rgb(0,0,0)" />
<polygon points="1657,1085 1657,1073 1645,1073 1645,1085" style="fill:rgb(0,0,0)" />
<polygon points="150,1086 150,1074 138,1074 138,1086" style="fill:rgb(0,0,0)" />
<polygon points="165,1086 165,1074 153,1074 153,1086" style="fill:rgb(0,0,0)" />
<polygon points="180,1086 180,1074 168,1074 168,1086" style="fill:rgb(0,0,0)" />
<polygon points="195,1086 195,1074 183,1074 183,1086" style="fill:rgb(0,0,0)" />
<polygon points="471,1086 471,1074 459,1074 459,1086" style="fill:rgb(0,0,0)" />
<polygon points="486,1086 486,1074 474,1074 474,1086" style="fill:rgb(0,0,0)" />
<polygon points="1257,1086 1257,1074 1245,1074 1245,1086" style="fill:rgb(0,0,0)" />
<polygon points="1272,1086 1272,1074 1260,1074 1260,1086" style="fill:rgb(0,0,0)" />
<polygon points="1370,1086 1370,1074 1358,1074 1358,1086" style="fill:rgb(0,0,0)" />
<polygon points="1385,1086 1385,1074 1373,1074 1373,1086" style="fill:rgb(0,0,0)" />
<polygon points="1400,1086 1400,1074 1388,1074 1388,1086" style="fill:rgb(0,0,0)" />
<polygon points="1415,1086 1415,1074 1403,1074 1403,1086" style="fill:rgb(0,0,0)" />
<polygon points="1430,1086 1430,1074 1418,1074 1418,1086" style="fill:rgb(0,0,0)" />
<polygon points="1445,1086 1445,1074 1433,1074 1433,1086" style="fill:rgb(0,0,0)" />
<polygon points="1460,1086 1460,1074 1448,1074 1448,1086" style="fill:rgb(0,0,0)" />
<polygon points="1475,1086 1475,1074 1463,1074 1463,1086" style="fill:rgb(0,0,0)" />
<polygon points="1490,1086 1490,1074 1478,1074 1478,1086" style="fill:rgb(0,0,0)" />
<polygon points="1505,1086 1505,1074 1493,1074 1493,1086" style="fill:rgb(0,0,0)" />
<polygon points="1520,1086 1520,1074 1508,1074 1508,1086" style="fill:rgb(0,0,0)" />
<polygon points="1535,1086 1535,1074 1523,1074 1523,1086" style="fill:rgb(0,0,0)" />
<polygon points="14,1087 14,1075 2,1075 2,1087" style="fill:rgb(0,0,0)" />
<polygon points="29,1087 29,1075 17,1075 17,1087" style="fill:rgb(0,0,0)" />
<polygon points="44,1087 44,1075 32,1075 32,1087" style="fill:rgb(0,0,0)" />
<polygon points="59,1087 59,1075 47,1075 47,1087" style="fill:rgb(0,0,0)" />
<polygon points="74,1087 74,1075 62,1075 62,1087" style="fill:rgb(0,0,0)" />
<polygon points="89,1087 89,1075 77,1075 77,1087" style="fill:rgb(0,0,0)" />
<polygon points="104,1087 104,1075 92,1075 92,1087" style="fill:rgb(0,0,0)" />
<polygon points="119,1087 119,1075 107,1075 107,1087" style="fill:rgb(0,0,0)" />
<polygon points="501,1087 501,1075 489,1075 489,1087" style="fill:rgb(0,0,0)" />
<polygon points="516,1087 516,1075 504,1075 504,1087" style="fill:rgb(0,0,0)" />
<polygon points="531,1087 531,1075 519,1075 519,1087" style="fill:rgb(0,0,0)" />
<polygon points="546,1087 546,1075 534,1075 534,1087" style="fill:rgb(0,0,0)" />
<polygon points="981,1087 981,1075 969,1075 969,1087" style="fill:rgb(0,0,0)" />
<polygon points="1238,1087 1238,1075 1226,1075 1226,1087" style="fill:rgb(0,0,0)" />
<polygon points="1287,1087 1287,1075 1275,1075 1275,1087" style="fill:rgb(0,0,0)" />
<polygon points="1302,1087 1302,1075 1290,1075 1290,1087" style="fill:rgb(0,0,0)" />
<polygon points="1317,1087 1317,1075 1305,1075 1305,1087" style="fill:rgb(0,0,0)" />
<polygon points="1332,1087 1332,1075 1320,1075 1320,1087" style="fill:rgb(0,0,0)" />
<polygon points="1347,1087 1347,1075 1335,1075 1335,1087" style="fill:rgb(0,0,0)" />
<polygon points="561,1088 561,1076 549,1076 549,1088" style="fill:rgb(0,0,0)" />
<polygon points="576,1088 576,1076 564,1076 564,1088" style="fill:rgb(0,0,0)" />
<polygon points="591,1088 591,1076 579,1076 579,1088" style="fill:rgb(0,0,0)" />
<polygon points="606,1088 606,1076 594,1076 594,1088" style="fill:rgb(0,0,0)" />
<polygon points="621,1088 621,1076 609,1076 609,1088" style="fill:rgb(0,0,0)" />
<polygon points="636,1088 636,1076 624,1076 624,1088" style="fill:rgb(0,0,0)" />
<polygon points="651,1088 651,1076 639,1076 639,1088" style="fill:rgb(0,0,0)" />
<polygon points="666,1088 666,1076 654,1076 654,1088" style="fill:rgb(0,0,0)" />
<polygon points="1160,1088 1160,1076 1148,1076 1148,1088" style="fill:rgb(0,0,0)" />
<polygon points="1175,1088 1175,1076 1163,1076 1163,1088" style="fill:rgb(0,0,0)" />
<polygon points="1190,1088 1190,1076 1178,1076 1178,1088" style="fill:rgb(0,0,0)" />
<polygon points="1205,1088 1205,1076 1193,1076 1193,1088" style="fill:rgb(0,0,0)" />
<polygon points="1220,1088 1220,1076 1208,1076 1208,1088" style="fill:rgb(0,0,0)" />
<polygon points="996,1089 996,1077 984,1077 984,1089" style="fill:rgb(0,0,0)" />
<polygon points="1046,1089 1046,1077 1034,1077 1034,1089" style="fill:rgb(0,0,0)" />
<polygon points="1061,1089 1061,1077 1049,1077 1049,1089" style="fill:rgb(0,0,0)" />
<polygon points="1076,1089 1076,1077 1064,1077 1064,1089" style="fill:rgb(0,0,0)" />
<polygon points="1091,1089 1091,1077 1079,1077 1079,1089" style="fill:rgb(0,0,0)" />
<polygon points="1106,1089 1106,1077 1094,1077 1094,1089" style="fill:rgb(0,0,0)" />
<polygon points="1121,1089 1121,1077 1109,1077 1109,1089" style="fill:rgb(0,0,0)" />
<polygon points="1136,1089 1136,1077 1124,1077 1124,1089" style="fill:rgb(0,0,0)" />
<polygon points="797,218 797,210 789,210 789,218" style="fill:rgb(201,181,175)" />
<polygon points="398,220 398,212 390,212 390,220" style="fill:rgb(221,217,212)" />
<polygon points="423,230 423,222 415,222 415,230" style="fill:rgb(211,211,204)" />
<polygon points="847,250 847,242 839,242 839,250" style="fill:rgb(195,187,185)" />
<polygon points="385,258 385,250 377,250 377,258" style="fill:rgb(138,110,99)" />
<polygon points="1199,263 1199,255 1191,255 1191,263" style="fill:rgb(195,196,192)" />
<polygon points="1207,295 1207,287 1199,287 1199,295" style="fill:rgb(181,180,174)" />
<polygon points="1237,313 1237,305 1229,305 1229,313" style="fill:rgb(194,183,175)" />
<polygon points="797,324 797,316 789,316 789,324" style="fill:rgb(110,63,44)" />
<polygon points="1221,333 1221,325 1213,325 1213,333" style="fill:rgb(142,97,80)" />
<polygon points="1229,348 1229,340 1221,340 1221,348" style="fill:rgb(198,189,177)" />
<polygon points="822,355 822,347 814,347 814,355" style="fill:rgb(159,111,83)" />
<polygon points="804,374 804,366 796,366 796,374" style="fill:rgb(106,76,66)" />
<polygon points="807,385 807,377 799,377 799,385" style="fill:rgb(102,72,64)" />
<polygon points="810,397 810,389 802,389 802,397" style="fill:rgb(110,87,81)" />
<polygon points="900,405 900,397 892,397 892,405" style="fill:rgb(133,111,104)" />
<polygon points="911,405 911,397 903,397 903,405" style="fill:rgb(148,133,128)" />
<polygon points="813,408 813,400 805,400 805,408" style="fill:rgb(127,107,100)" />
<polygon points="551,418 551,410 543,410 543,418" style="fill:rgb(234,58,69)" />
<polygon points="955,420 955,412 947,412 947,420" style="fill:rgb(213,212,215)" />
<polygon points="455,430 455,422 447,422 447,430" style="fill:rgb(176,167,161)" />
<polygon points="854,437 854,429 846,429 846,437" style="fill:rgb(169,114,83)" />
<polygon points="1275,448 1275,440 1267,440 1267,448" style="fill:rgb(139,89,65)" />
<polygon points="481,466 481,458 473,458 473,466" style="fill:rgb(27,15,15)" />
<polygon points="1340,468 1340,460 1332,460 1332,468" style="fill:rgb(191,180,179)" />
<polygon points="1416,492 1416,484 1408,484 1408,492" style="fill:rgb(107,92,83)" />
<polygon points="824,501 824,493 816,493 816,501" style="fill:rgb(147,70,65)" />
<polygon points="929,501 929,493 921,493 921,501" style="fill:rgb(218,12,40)" />
<polygon points="413,503 413,495 405,495 405,503" style="fill:rgb(71,66,66)" />
<polygon points="1405,503 1405,495 1397,495 1397,503" style="fill:rgb(121,87,80)" />
<polygon points="1298,507 1298,499 1290,499 1290,507" style="fill:rgb(155,104,78)" />
<polygon points="894,510 894,502 886,502 886,510" style="fill:rgb(177,80,73)" />
<polygon points="1395,514 1395,506 1387,506 1387,514" style="fill:rgb(176,157,144)" />
<polygon points="1353,516 1353,508 1345,508 1345,516" style="fill:rgb(87,47,42)" />
<polygon points="963,526 963,518 955,518 955,526" style="fill:rgb(173,130,104)" />
<polygon points="820,532 820,524 812,524 812,532" style="fill:rgb(197,66,71)" />
<polygon points="870,533 870,525 862,525 862,533" style="fill:rgb(151,18,34)" />
<polygon points="1378,552 1378,544 1370,544 1370,552" style="fill:rgb(179,160,151)" />
<polygon points="963,555 963,547 955,547 955,555" style="fill:rgb(98,68,59)" />
<polygon points="544,563 544,555 536,555 536,563" style="fill:rgb(154,108,100)" />
<polygon points="571,563 571,555 563,555 563,563" style="fill:rgb(148,109,93)" />
<polygon points="876,576 876,568 868,568 868,576" style="fill:rgb(116,14,28)" />
<polygon points="889,588 889,580 881,580 881,588" style="fill:rgb(195,32,50)" />
<polygon points="1275,595 1275,587 1267,587 1267,595" style="fill:rgb(217,41,56)" />
<polygon points="853,602 853,594 845,594 845,602" style="fill:rgb(73,16,18)" />
<polygon points="561,604 561,596 553,596 553,604" style="fill:rgb(222,35,48)" />
<polygon points="572,604 572,596 564,596 564,604" style="fill:rgb(150,34,40)" />
<polygon points="421,609 421,601 413,601 413,609" style="fill:rgb(56,0,14)" />
<polygon points="837,620 837,612 829,612 829,620" style="fill:rgb(74,38,29)" />
<polygon points="421,632 421,624 413,624 413,632" style="fill:rgb(25,12,15)" />
<polygon points="926,634 926,626 918,626 918,634" style="fill:rgb(94,52,44)" />
<polygon points="390,637 390,629 382,629 382,637" style="fill:rgb(75,12,21)" />
<polygon points="401,637 401,629 393,629 393,637" style="fill:rgb(56,2,15)" />
<polygon points="584,646 584,638 576,638 576,646" style="fill:rgb(122,101,92)" />
<polygon points="480,655 480,647 472,647 472,655" style="fill:rgb(33,2,8)" />
<polygon points="899,656 899,648 891,648 891,656" style="fill:rgb(33,5,10)" />
<polygon points="827,663 827,655 819,655 819,663" style="fill:rgb(93,14,24)" />
<polygon points="985,663 985,655 977,655 977,663" style="fill:rgb(28,13,15)" />
<polygon points="863,668 863,660 855,660 855,668" style="fill:rgb(185,180,174)" />
<polygon points="799,671 799,663 791,663 791,671" style="fill:rgb(178,169,171)" />
<polygon points="1355,677 1355,669 1347,669 1347,677" style="fill:rgb(98,43,53)" />
<polygon points="1277,678 1277,670 1269,670 1269,678" style="fill:rgb(92,4,14)" />
<polygon points="1270,689 1270,681 1262,681 1262,689" style="fill:rgb(118,13,26)" />
<polygon points="511,693 511,685 503,685 503,693" style="fill:rgb(91,1,13)" />
<polygon points="602,694 602,686 594,686 594,694" style="fill:rgb(150,132,131)" />
<polygon points="796,695 796,687 788,687 788,695" style="fill:rgb(182,176,179)" />
<polygon points="1004,696 1004,688 996,688 996,696" style="fill:rgb(54,30,27)" />
<polygon points="884,705 884,697 876,697 876,705" style="fill:rgb(69,43,47)" />
<polygon points="365,707 365,699 357,699 357,707" style="fill:rgb(171,36,50)" />
<polygon points="1345,709 1345,701 1337,701 1337,709" style="fill:rgb(112,65,50)" />
<polygon points="363,720 363,712 355,712 355,720" style="fill:rgb(163,36,46)" />
<polygon points="529,728 529,720 521,720 521,728" style="fill:rgb(67,31,21)" />
<polygon points="865,734 865,726 857,726 857,734" style="fill:rgb(146,141,134)" />
<polygon points="451,744 451,736 443,736 443,744" style="fill:rgb(113,63,67)" />
<polygon points="363,745 363,737 355,737 355,745" style="fill:rgb(52,1,12)" />
<polygon points="896,749 896,741 888,741 888,749" style="fill:rgb(186,145,154)" />
<polygon points="808,754 808,746 800,746 800,754" style="fill:rgb(190,62,70)" />
<polygon points="1230,755 1230,747 1222,747 1222,755" style="fill:rgb(200,195,196)" />
<polygon points="316,756 316,748 308,748 308,756" style="fill:rgb(39,21,23)" />
<polygon points="363,756 363,748 355,748 355,756" style="fill:rgb(51,2,9)" />
<polygon points="502,756 502,748 494,748 494,756" style="fill:rgb(213,211,210)" />
<polygon points="1357,761 1357,753 1349,753 1349,761" style="fill:rgb(93,2,10)" />
<polygon points="1425,769 1425,761 1417,761 1417,769" style="fill:rgb(116,39,41)" />
<polygon points="953,774 953,766 945,766 945,774" style="fill:rgb(59,36,27)" />
<polygon points="380,776 380,768 372,768 372,776" style="fill:rgb(51,1,12)" />
<polygon points="415,776 415,768 407,768 407,776" style="fill:rgb(86,10,20)" />
<polygon points="533,778 533,770 525,770 525,778" style="fill:rgb(155,119,101)" />
<polygon points="1232,782 1232,774 1224,774 1224,782" style="fill:rgb(120,80,88)" />
<polygon points="292,783 292,775 284,775 284,783" style="fill:rgb(10,4,13)" />
<polygon points="953,785 953,777 945,777 945,785" style="fill:rgb(87,53,39)" />
<polygon points="431,792 431,784 423,784 423,792" style="fill:rgb(152,42,48)" />
<polygon points="363,794 363,786 355,786 355,794" style="fill:rgb(209,128,129)" />
<polygon points="271,797 271,789 263,789 263,797" style="fill:rgb(95,79,74)" />
<polygon points="1296,804 1296,796 1288,796 1288,804" style="fill:rgb(90,72,71)" />
<polygon points="1322,804 1322,796 1314,796 1314,804" style="fill:rgb(84,8,14)" />
<polygon points="1412,810 1412,802 1404,802 1404,810" style="fill:rgb(122,92,85)" />
<polygon points="553,813 553,805 545,805 545,813" style="fill:rgb(152,113,92)" />
<polygon points="1178,820 1178,812 1170,812 1170,820" style="fill:rgb(224,224,223)" />
<polygon points="814,823 814,815 806,815 806,823" style="fill:rgb(161,44,53)" />
<polygon points="887,824 887,816 879,816 879,824" style="fill:rgb(186,179,178)" />
<polygon points="1367,829 1367,821 1359,821 1359,829" style="fill:rgb(124,60,40)" />
<polygon points="817,834 817,826 809,826 809,834" style="fill:rgb(150,38,43)" />
<polygon points="373,840 373,832 365,832 365,840" style="fill:rgb(59,0,14)" />
<polygon points="1385,843 1385,835 1377,835 1377,843" style="fill:rgb(70,48,35)" />
<polygon points="887,848 887,840 879,840 879,848" style="fill:rgb(69,4,13)" />
<polygon points="1297,848 1297,840 1289,840 1289,848" style="fill:rgb(237,72,71)" />
<polygon points="1308,848 1308,840 1300,840 1300,848" style="fill:rgb(236,41,53)" />
<polygon points="1213,850 1213,842 1205,842 1205,850" style="fill:rgb(152,133,131)" />
<polygon points="1379,855 1379,847 1371,847 1371,855" style="fill:rgb(101,74,60)" />
<polygon points="887,859 887,851 879,851 879,859" style="fill:rgb(61,2,9)" />
<polygon points="1246,868 1246,860 1238,860 1238,868" style="fill:rgb(44,1,8)" />
<polygon points="870,877 870,869 862,869 862,877" style="fill:rgb(67,0,10)" />
<polygon points="893,888 893,880 885,880 885,888" style="fill:rgb(91,10,18)" />
<polygon points="382,893 382,885 374,885 374,893" style="fill:rgb(130,101,83)" />
<polygon points="1199,897 1199,889 1191,889 1191,897" style="fill:rgb(126,4,18)" />
<polygon points="1392,929 1392,921 1384,921 1384,929" style="fill:rgb(140,93,73)" />
<polygon points="365,935 365,927 357,927 357,935" style="fill:rgb(68,40,28)" />
<polygon points="1229,944 1229,936 1221,936 1221,944" style="fill:rgb(81,48,31)" />
<polygon points="365,946 365,938 357,938 357,946" style="fill:rgb(94,55,40)" />
<polygon points="1226,986 1226,978 1218,978 1218,986" style="fill:rgb(113,86,72)" />
<polygon points="827,1007 827,999 819,999 819,1007" style="fill:rgb(59,31,22)" />
<polygon points="1699,1024 1699,1016 1691,1016 1691,1024" style="fill:rgb(24,54,106)" />
<polygon points="1683,1025 1683,1017 1675,1017 1675,1025" style="fill:rgb(23,53,105)" />
<polygon points="1211,1029 1211,1021 1203,1021 1203,1029" style="fill:rgb(161,121,95)" />
<polygon points="1221,1042 1221,1034 1213,1034 1213,1042" style="fill:rgb(175,129,106)" />
<polygon points="1251,1049 1251,1041 1243,1041 1243,1049" style="fill:rgb(139,96,83)" />
<polygon points="217,1064 217,1056 209,1056 209,1064" style="fill:rgb(1,6,22)" />
<polygon points="1554,1064 1554,1056 1546,1056 1546,1064" style="fill:rgb(0,5,21)" />
<polygon points="206,1082 206,1074 198,1074 198,1082" style="fill:rgb(0,0,0)" />
<polygon points="936,1082 936,1074 928,1074 928,1082" style="fill:rgb(0,0,0)" />
<polygon points="677,1084 677,1076 669,1076 669,1084" style="fill:rgb(0,0,0)" />
<polygon points="1689,1084 1689,1076 1681,1076 1681,1084" style="fill:rgb(0,0,0)" />
<polygon points="232,1085 232,1077 224,1077 224,1085" style="fill:rgb(0,0,0)" />
<polygon points="1007,1086 1007,1078 999,1078 999,1086" style="fill:rgb(0,0,0)" />
<polygon points="1018,1086 1018,1078 1010,1078 1010,1086" style="fill:rgb(0,0,0)" />
<polygon points="1029,1086 1029,1078 1021,1078 1021,1086" style="fill:rgb(0,0,0)" />
<polygon points="798,1088 798,1080 790,1080 790,1088" style="fill:rgb(0,0,0)" />
<polygon points="809,1088 809,1080 801,1080 801,1088" style="fill:rgb(0,0,0)" />
<polygon points="820,1088 820,1080 812,1080 812,1088" style="fill:rgb(0,0,0)" />
<polygon points="398,230 398,222 390,222 390,230" style="fill:rgb(227,223,218)" />
<polygon points="789,252 789,244 781,244 781,252" style="fill:rgb(172,52,58)" />
<polygon points="391,289 391,281 383,281 383,289" style="fill:rgb(160,149,141)" />
<polygon points="392,334 392,326 384,326 384,334" style="fill:rgb(44,40,41)" />
<polygon points="1274,389 1274,381 1266,381 1266,389" style="fill:rgb(62,32,21)" />
<polygon points="1253,391 1253,383 1245,383 1245,391" style="fill:rgb(183,145,119)" />
<polygon points="412,401 412,393 404,393 404,401" style="fill:rgb(96,65,52)" />
<polygon points="921,406 921,398 913,398 913,406" style="fill:rgb(172,169,167)" />
<polygon points="936,406 936,398 928,398 928,406" style="fill:rgb(201,200,203)" />
<polygon points="1287,428 1287,420 1279,420 1279,428" style="fill:rgb(57,34,24)" />
<polygon points="886,435 886,427 878,427 878,435" style="fill:rgb(69,42,36)" />
<polygon points="462,445 462,437 454,437 454,445" style="fill:rgb(141,80,62)" />
<polygon points="886,445 886,437 878,437 878,445" style="fill:rgb(18,7,13)" />
<polygon points="500,480 500,472 492,472 492,480" style="fill:rgb(144,122,114)" />
<polygon points="509,489 509,481 501,481 501,489" style="fill:rgb(87,70,65)" />
<polygon points="825,491 825,483 817,483 817,491" style="fill:rgb(130,90,74)" />
<polygon points="1339,504 1339,496 1331,496 1331,504" style="fill:rgb(75,42,26)" />
<polygon points="1308,508 1308,500 1300,500 1300,508" style="fill:rgb(137,93,69)" />
<polygon points="904,509 904,501 896,501 896,509" style="fill:rgb(200,101,111)" />
<polygon points="914,509 914,501 906,501 906,509" style="fill:rgb(211,136,140)" />
<polygon points="1363,509 1363,501 1355,501 1355,509" style="fill:rgb(15,3,9)" />
<polygon points="1299,518 1299,510 1291,510 1291,518" style="fill:rgb(186,142,108)" />
<polygon points="893,520 893,512 885,512 885,520" style="fill:rgb(186,18,36)" />
<polygon points="482,525 482,517 474,517 474,525" style="fill:rgb(204,120,121)" />
<polygon points="830,532 830,524 822,524 822,532" style="fill:rgb(148,15,33)" />
<polygon points="840,532 840,524 832,524 832,532" style="fill:rgb(131,1,17)" />
<polygon points="850,532 850,524 842,524 842,532" style="fill:rgb(147,9,33)" />
<polygon points="860,532 860,524 852,524 852,532" style="fill:rgb(190,174,170)" />
<polygon points="472,535 472,527 464,527 464,535" style="fill:rgb(210,207,202)" />
<polygon points="551,536 551,528 543,528 543,536" style="fill:rgb(162,109,115)" />
<polygon points="875,543 875,535 867,535 867,543" style="fill:rgb(201,169,167)" />
<polygon points="466,550 466,542 458,542 458,550" style="fill:rgb(194,138,142)" />
<polygon points="894,550 894,542 886,542 886,550" style="fill:rgb(162,1,28)" />
<polygon points="893,560 893,552 885,552 885,560" style="fill:rgb(103,1,12)" />
<polygon points="1302,569 1302,561 1294,561 1294,569" style="fill:rgb(140,77,62)" />
<polygon points="561,570 561,562 553,562 553,570" style="fill:rgb(100,67,57)" />
<polygon points="977,574 977,566 969,566 969,574" style="fill:rgb(64,43,38)" />
<polygon points="953,577 953,569 945,569 945,577" style="fill:rgb(7,9,18)" />
<polygon points="495,582 495,574 487,574 487,582" style="fill:rgb(183,87,100)" />
<polygon points="989,583 989,575 981,575 981,583" style="fill:rgb(52,29,25)" />
<polygon points="807,588 807,580 799,580 799,588" style="fill:rgb(52,20,23)" />
<polygon points="591,590 591,582 583,582 583,590" style="fill:rgb(199,71,72)" />
<polygon points="485,592 485,584 477,584 477,592" style="fill:rgb(122,61,64)" />
<polygon points="408,594 408,586 400,586 400,594" style="fill:rgb(83,2,15)" />
<polygon points="915,595 915,587 907,587 907,595" style="fill:rgb(47,27,28)" />
<polygon points="512,596 512,588 504,588 504,596" style="fill:rgb(114,1,14)" />
<polygon points="1299,596 1299,588 1291,588 1291,596" style="fill:rgb(109,17,26)" />
<polygon points="1323,601 1323,593 1315,593 1315,601" style="fill:rgb(86,1,14)" />
<polygon points="551,605 551,597 543,597 543,605" style="fill:rgb(190,8,28)" />
<polygon points="909,610 909,602 901,602 901,610" style="fill:rgb(191,106,103)" />
<polygon points="1342,620 1342,612 1334,612 1334,620" style="fill:rgb(51,1,12)" />
<polygon points="1351,629 1351,621 1343,621 1343,629" style="fill:rgb(40,1,10)" />
<polygon points="942,634 942,626 934,626 934,634" style="fill:rgb(91,55,52)" />
<polygon points="952,634 952,626 944,626 944,634" style="fill:rgb(126,85,66)" />
<polygon points="411,636 411,628 403,628 403,636" style="fill:rgb(47,6,14)" />
<polygon points="1369,644 1369,636 1361,636 1361,644" style="fill:rgb(150,64,68)" />
<polygon points="1325,648 1325,640 1317,640 1317,648" style="fill:rgb(82,2,13)" />
<polygon points="1007,651 1007,643 999,643 999,651" style="fill:rgb(63,33,28)" />
<polygon points="445,654 445,646 437,646 437,654" style="fill:rgb(35,1,9)" />
<polygon points="1261,660 1261,652 1253,652 1253,660" style="fill:rgb(157,40,41)" />
<polygon points="968,665 968,657 960,657 960,665" style="fill:rgb(212,75,75)" />
<polygon points="1341,665 1341,657 1333,657 1333,665" style="fill:rgb(60,5,14)" />
<polygon points="837,666 837,658 829,658 829,666" style="fill:rgb(103,72,75)" />
<polygon points="1234,669 1234,661 1226,661 1226,669" style="fill:rgb(200,35,52)" />
<polygon points="1249,670 1249,662 1241,662 1241,670" style="fill:rgb(199,33,50)" />
<polygon points="797,681 797,673 789,673 789,681" style="fill:rgb(153,142,146)" />
<polygon points="579,683 579,675 571,675 571,683" style="fill:rgb(173,151,144)" />
<polygon points="1021,685 1021,677 1013,677 1013,685" style="fill:rgb(154,119,102)" />
<polygon points="521,692 521,684 513,684 513,692" style="fill:rgb(112,2,18)" />
<polygon points="591,693 591,685 583,685 583,693" style="fill:rgb(151,131,131)" />
<polygon points="442,699 442,691 434,691 434,699" style="fill:rgb(124,111,109)" />
<polygon points="796,705 796,697 788,697 788,705" style="fill:rgb(190,185,188)" />
<polygon points="375,706 375,698 367,698 367,706" style="fill:rgb(45,0,10)" />
<polygon points="385,706 385,698 377,698 377,706" style="fill:rgb(45,0,10)" />
<polygon points="395,706 395,698 387,698 387,706" style="fill:rgb(107,3,18)" />
<polygon points="405,706 405,698 397,698 397,706" style="fill:rgb(106,8,21)" />
<polygon points="415,706 415,698 407,698 407,706" style="fill:rgb(113,17,29)" />
<polygon points="442,709 442,701 434,701 434,709" style="fill:rgb(236,226,225)" />
<polygon points="1429,709 1429,701 1421,701 1421,709" style="fill:rgb(60,28,22)" />
<polygon points="797,715 797,707 789,707 789,715" style="fill:rgb(198,195,198)" />
<polygon points="1346,719 1346,711 1338,711 1338,719" style="fill:rgb(28,2,8)" />
<polygon points="926,720 926,712 918,712 918,720" style="fill:rgb(143,27,39)" />
<polygon points="865,722 865,714 857,714 857,722" style="fill:rgb(153,150,143)" />
<polygon points="980,729 980,721 972,721 972,729" style="fill:rgb(175,31,46)" />
<polygon points="363,730 363,722 355,722 355,730" style="fill:rgb(56,2,14)" />
<polygon points="1290,736 1290,728 1282,728 1282,736" style="fill:rgb(231,222,217)" />
<polygon points="818,738 818,730 810,730 810,738" style="fill:rgb(71,1,12)" />
<polygon points="828,738 828,730 820,730 820,738" style="fill:rgb(72,0,10)" />
<polygon points="838,738 838,730 830,730 830,738" style="fill:rgb(63,0,12)" />
<polygon points="848,738 848,730 840,730 840,738" style="fill:rgb(141,124,124)" />
<polygon points="505,739 505,731 497,731 497,739" style="fill:rgb(231,231,232)" />
<polygon points="1216,739 1216,731 1208,731 1208,739" style="fill:rgb(212,209,208)" />
<polygon points="461,743 461,735 453,735 453,743" style="fill:rgb(119,102,100)" />
<polygon points="544,743 544,735 536,735 536,743" style="fill:rgb(112,87,74)" />
<polygon points="320,745 320,737 312,737 312,745" style="fill:rgb(22,9,14)" />
<polygon points="450,754 450,746 442,746 442,754" style="fill:rgb(54,8,14)" />
<polygon points="970,755 970,747 962,747 962,755" style="fill:rgb(149,44,48)" />
<polygon points="808,764 808,756 800,756 800,764" style="fill:rgb(179,69,75)" />
<polygon points="363,766 363,758 355,758 355,766" style="fill:rgb(54,1,11)" />
<polygon points="1435,768 1435,760 1427,760 1427,768" style="fill:rgb(155,131,118)" />
<polygon points="808,774 808,766 800,766 800,774" style="fill:rgb(175,67,71)" />
<polygon points="808,784 808,776 800,776 800,784" style="fill:rgb(174,52,63)" />
<polygon points="809,794 809,786 801,786 801,794" style="fill:rgb(171,29,45)" />
<polygon points="1289,795 1289,787 1281,787 1281,795" style="fill:rgb(99,74,73)" />
<polygon points="1251,799 1251,791 1243,791 1243,799" style="fill:rgb(120,1,13)" />
<polygon points="826,807 826,799 818,799 818,807" style="fill:rgb(72,0,10)" />
<polygon points="836,807 836,799 828,799 828,807" style="fill:rgb(61,0,9)" />
<polygon points="846,807 846,799 838,799 838,807" style="fill:rgb(71,1,11)" />
<polygon points="856,807 856,799 848,799 848,807" style="fill:rgb(181,90,91)" />
<polygon points="866,807 866,799 858,799 858,807" style="fill:rgb(145,136,131)" />
<polygon points="876,808 876,800 868,800 868,808" style="fill:rgb(148,141,135)" />
<polygon points="1283,821 1283,813 1275,813 1275,821" style="fill:rgb(239,91,83)" />
<polygon points="548,823 548,815 540,815 540,823" style="fill:rgb(132,76,65)" />
<polygon points="1224,831 1224,823 1216,823 1216,831" style="fill:rgb(100,25,30)" />
<polygon points="886,837 886,829 878,829 878,837" style="fill:rgb(138,65,72)" />
<polygon points="817,844 817,836 809,836 809,844" style="fill:rgb(199,55,63)" />
<polygon points="385,850 385,842 377,842 377,850" style="fill:rgb(48,1,11)" />
<polygon points="1230,850 1230,842 1222,842 1222,850" style="fill:rgb(116,3,12)" />
<polygon points="1318,851 1318,843 1310,843 1310,851" style="fill:rgb(210,44,63)" />
<polygon points="818,854 818,846 810,846 810,854" style="fill:rgb(166,31,48)" />
<polygon points="931,863 931,855 923,855 923,863" style="fill:rgb(140,100,83)" />
<polygon points="818,864 818,856 810,856 810,864" style="fill:rgb(195,51,63)" />
<polygon points="1219,870 1219,862 1211,862 1211,870" style="fill:rgb(117,9,21)" />
<polygon points="1255,876 1255,868 1247,868 1247,876" style="fill:rgb(57,1,8)" />
<polygon points="883,892 883,884 875,884 875,892" style="fill:rgb(44,1,10)" />
<polygon points="1194,907 1194,899 1186,899 1186,907" style="fill:rgb(146,13,35)" />
<polygon points="1255,920 1255,912 1247,912 1247,920" style="fill:rgb(45,4,12)" />
<polygon points="363,956 363,948 355,948 355,956" style="fill:rgb(107,68,48)" />
<polygon points="1210,961 1210,953 1202,953 1202,961" style="fill:rgb(186,152,121)" />
<polygon points="843,992 843,984 835,984 835,992" style="fill:rgb(170,133,109)" />
<polygon points="1709,1026 1709,1018 1701,1018 1701,1026" style="fill:rgb(21,52,103)" />
<polygon points="934,1059 934,1051 926,1051 926,1059" style="fill:rgb(32,46,70)" />
<polygon points="935,1069 935,1061 927,1061 927,1069" style="fill:rgb(1,0,4)" />
<polygon points="691,1070 691,1062 683,1062 683,1070" style="fill:rgb(1,0,2)" />
<polygon points="1146,1084 1146,1076 1138,1076 1138,1084" style="fill:rgb(0,0,0)" />
<polygon points="1357,1086 1357,1078 1349,1078 1349,1086" style="fill:rgb(0,0,0)" />
<polygon points="850,1089 850,1081 842,1081 842,1089" style="fill:rgb(0,0,0)" />
<polygon points="860,1089 860,1081 852,1081 852,1089" style="fill:rgb(0,0,0)" />
<polygon points="242,1090 242,1082 234,1082 234,1090" style="fill:rgb(0,0,0)" />
<polygon points="781,1090 781,1082 773,1082 773,1090" style="fill:rgb(0,0,0)" />
</svg>